<svg width="1363" height="167" viewBox="0 0 1363 167" fill="none" xmlns="http://www.w3.org/2000/svg">
<rect width="1363" height="167" rx="15" fill="#F0F0F0"/>
<path d="M0 15C0 6.71573 6.71573 0 15 0H37V167H15C6.71573 167 0 160.284 0 152V15Z" fill="#424241"/>
<path d="M100.906 54.9219L93.3945 52.2383V49.0859L103.602 53.375V55.6367L100.906 54.9219ZM93.3945 57.1719L100.918 54.4297L103.602 53.7852V56.0352L93.3945 60.3242V57.1719ZM118.543 55.918H114.195V53.1758H118.543C119.215 53.1758 119.762 53.0664 120.184 52.8477C120.605 52.6211 120.914 52.3086 121.109 51.9102C121.305 51.5117 121.402 51.0625 121.402 50.5625C121.402 50.0547 121.305 49.582 121.109 49.1445C120.914 48.707 120.605 48.3555 120.184 48.0898C119.762 47.8242 119.215 47.6914 118.543 47.6914H115.414V62H111.898V44.9375H118.543C119.879 44.9375 121.023 45.1797 121.977 45.6641C122.938 46.1406 123.672 46.8008 124.18 47.6445C124.688 48.4883 124.941 49.4531 124.941 50.5391C124.941 51.6406 124.688 52.5938 124.18 53.3984C123.672 54.2031 122.938 54.8242 121.977 55.2617C121.023 55.6992 119.879 55.918 118.543 55.918ZM130.531 52.0859V62H127.156V49.3203H130.332L130.531 52.0859ZM134.352 49.2383L134.293 52.3672C134.129 52.3438 133.93 52.3242 133.695 52.3086C133.469 52.2852 133.262 52.2734 133.074 52.2734C132.598 52.2734 132.184 52.3359 131.832 52.4609C131.488 52.5781 131.199 52.7539 130.965 52.9883C130.738 53.2227 130.566 53.5078 130.449 53.8438C130.34 54.1797 130.277 54.5625 130.262 54.9922L129.582 54.7812C129.582 53.9609 129.664 53.207 129.828 52.5195C129.992 51.8242 130.23 51.2188 130.543 50.7031C130.863 50.1875 131.254 49.7891 131.715 49.5078C132.176 49.2266 132.703 49.0859 133.297 49.0859C133.484 49.0859 133.676 49.1016 133.871 49.1328C134.066 49.1562 134.227 49.1914 134.352 49.2383ZM135.055 55.7891V55.543C135.055 54.6133 135.188 53.7578 135.453 52.9766C135.719 52.1875 136.105 51.5039 136.613 50.9258C137.121 50.3477 137.746 49.8984 138.488 49.5781C139.23 49.25 140.082 49.0859 141.043 49.0859C142.004 49.0859 142.859 49.25 143.609 49.5781C144.359 49.8984 144.988 50.3477 145.496 50.9258C146.012 51.5039 146.402 52.1875 146.668 52.9766C146.934 53.7578 147.066 54.6133 147.066 55.543V55.7891C147.066 56.7109 146.934 57.5664 146.668 58.3555C146.402 59.1367 146.012 59.8203 145.496 60.4062C144.988 60.9844 144.363 61.4336 143.621 61.7539C142.879 62.0742 142.027 62.2344 141.066 62.2344C140.105 62.2344 139.25 62.0742 138.5 61.7539C137.758 61.4336 137.129 60.9844 136.613 60.4062C136.105 59.8203 135.719 59.1367 135.453 58.3555C135.188 57.5664 135.055 56.7109 135.055 55.7891ZM138.43 55.543V55.7891C138.43 56.3203 138.477 56.8164 138.57 57.2773C138.664 57.7383 138.812 58.1445 139.016 58.4961C139.227 58.8398 139.5 59.1094 139.836 59.3047C140.172 59.5 140.582 59.5977 141.066 59.5977C141.535 59.5977 141.938 59.5 142.273 59.3047C142.609 59.1094 142.879 58.8398 143.082 58.4961C143.285 58.1445 143.434 57.7383 143.527 57.2773C143.629 56.8164 143.68 56.3203 143.68 55.7891V55.543C143.68 55.0273 143.629 54.543 143.527 54.0898C143.434 53.6289 143.281 53.2227 143.07 52.8711C142.867 52.5117 142.598 52.2305 142.262 52.0273C141.926 51.8242 141.52 51.7227 141.043 51.7227C140.566 51.7227 140.16 51.8242 139.824 52.0273C139.496 52.2305 139.227 52.5117 139.016 52.8711C138.812 53.2227 138.664 53.6289 138.57 54.0898C138.477 54.543 138.43 55.0273 138.43 55.543ZM149.328 49.3203H152.715V62.7617C152.715 63.6992 152.543 64.4922 152.199 65.1406C151.855 65.7891 151.359 66.2812 150.711 66.6172C150.062 66.9531 149.277 67.1211 148.355 67.1211C148.066 67.1211 147.785 67.1055 147.512 67.0742C147.23 67.043 146.941 66.9922 146.645 66.9219L146.656 64.332C146.844 64.3633 147.027 64.3867 147.207 64.4023C147.379 64.4258 147.555 64.4375 147.734 64.4375C148.086 64.4375 148.379 64.3789 148.613 64.2617C148.848 64.1445 149.023 63.9609 149.141 63.7109C149.266 63.4688 149.328 63.1523 149.328 62.7617V49.3203ZM149.059 46.0156C149.059 45.5234 149.23 45.1172 149.574 44.7969C149.926 44.4766 150.387 44.3164 150.957 44.3164C151.535 44.3164 151.996 44.4766 152.34 44.7969C152.684 45.1172 152.855 45.5234 152.855 46.0156C152.855 46.5078 152.684 46.9141 152.34 47.2344C151.996 47.5547 151.535 47.7148 150.957 47.7148C150.387 47.7148 149.926 47.5547 149.574 47.2344C149.23 46.9141 149.059 46.5078 149.059 46.0156ZM161.234 62.2344C160.25 62.2344 159.367 62.0781 158.586 61.7656C157.805 61.4453 157.141 61.0039 156.594 60.4414C156.055 59.8789 155.641 59.2266 155.352 58.4844C155.062 57.7344 154.918 56.9375 154.918 56.0938V55.625C154.918 54.6641 155.055 53.7852 155.328 52.9883C155.602 52.1914 155.992 51.5 156.5 50.9141C157.016 50.3281 157.641 49.8789 158.375 49.5664C159.109 49.2461 159.938 49.0859 160.859 49.0859C161.758 49.0859 162.555 49.2344 163.25 49.5312C163.945 49.8281 164.527 50.25 164.996 50.7969C165.473 51.3438 165.832 52 166.074 52.7656C166.316 53.5234 166.438 54.3672 166.438 55.2969V56.7031H156.359V54.4531H163.121V54.1953C163.121 53.7266 163.035 53.3086 162.863 52.9414C162.699 52.5664 162.449 52.2695 162.113 52.0508C161.777 51.832 161.348 51.7227 160.824 51.7227C160.379 51.7227 159.996 51.8203 159.676 52.0156C159.355 52.2109 159.094 52.4844 158.891 52.8359C158.695 53.1875 158.547 53.6016 158.445 54.0781C158.352 54.5469 158.305 55.0625 158.305 55.625V56.0938C158.305 56.6016 158.375 57.0703 158.516 57.5C158.664 57.9297 158.871 58.3008 159.137 58.6133C159.41 58.9258 159.738 59.168 160.121 59.3398C160.512 59.5117 160.953 59.5977 161.445 59.5977C162.055 59.5977 162.621 59.4805 163.145 59.2461C163.676 59.0039 164.133 58.6406 164.516 58.1562L166.156 59.9375C165.891 60.3203 165.527 60.6875 165.066 61.0391C164.613 61.3906 164.066 61.6797 163.426 61.9062C162.785 62.125 162.055 62.2344 161.234 62.2344ZM173.598 59.5977C174.012 59.5977 174.379 59.5195 174.699 59.3633C175.02 59.1992 175.27 58.9727 175.449 58.6836C175.637 58.3867 175.734 58.0391 175.742 57.6406H178.918C178.91 58.5312 178.672 59.3242 178.203 60.0195C177.734 60.707 177.105 61.25 176.316 61.6484C175.527 62.0391 174.645 62.2344 173.668 62.2344C172.684 62.2344 171.824 62.0703 171.09 61.7422C170.363 61.4141 169.758 60.9609 169.273 60.3828C168.789 59.7969 168.426 59.1172 168.184 58.3438C167.941 57.5625 167.82 56.7266 167.82 55.8359V55.4961C167.82 54.5977 167.941 53.7617 168.184 52.9883C168.426 52.207 168.789 51.5273 169.273 50.9492C169.758 50.3633 170.363 49.9062 171.09 49.5781C171.816 49.25 172.668 49.0859 173.645 49.0859C174.684 49.0859 175.594 49.2852 176.375 49.6836C177.164 50.082 177.781 50.6523 178.227 51.3945C178.68 52.1289 178.91 53 178.918 54.0078H175.742C175.734 53.5859 175.645 53.2031 175.473 52.8594C175.309 52.5156 175.066 52.2422 174.746 52.0391C174.434 51.8281 174.047 51.7227 173.586 51.7227C173.094 51.7227 172.691 51.8281 172.379 52.0391C172.066 52.2422 171.824 52.5234 171.652 52.8828C171.48 53.2344 171.359 53.6367 171.289 54.0898C171.227 54.5352 171.195 55.0039 171.195 55.4961V55.8359C171.195 56.3281 171.227 56.8008 171.289 57.2539C171.352 57.707 171.469 58.1094 171.641 58.4609C171.82 58.8125 172.066 59.0898 172.379 59.293C172.691 59.4961 173.098 59.5977 173.598 59.5977ZM187.086 49.3203V51.7109H179.703V49.3203H187.086ZM181.531 46.1914H184.906V58.1797C184.906 58.5469 184.953 58.8281 185.047 59.0234C185.148 59.2188 185.297 59.3555 185.492 59.4336C185.688 59.5039 185.934 59.5391 186.23 59.5391C186.441 59.5391 186.629 59.5312 186.793 59.5156C186.965 59.4922 187.109 59.4688 187.227 59.4453L187.238 61.9297C186.949 62.0234 186.637 62.0977 186.301 62.1523C185.965 62.207 185.594 62.2344 185.188 62.2344C184.445 62.2344 183.797 62.1133 183.242 61.8711C182.695 61.6211 182.273 61.2227 181.977 60.6758C181.68 60.1289 181.531 59.4102 181.531 58.5195V46.1914ZM209.082 44.9375V62H205.566L198.711 50.5625V62H195.195V44.9375H198.711L205.578 56.3867V44.9375H209.082ZM218.773 59.1406V53.4922C218.773 53.0859 218.707 52.7383 218.574 52.4492C218.441 52.1523 218.234 51.9219 217.953 51.7578C217.68 51.5938 217.324 51.5117 216.887 51.5117C216.512 51.5117 216.188 51.5781 215.914 51.7109C215.641 51.8359 215.43 52.0195 215.281 52.2617C215.133 52.4961 215.059 52.7734 215.059 53.0938H211.684C211.684 52.5547 211.809 52.043 212.059 51.5586C212.309 51.0742 212.672 50.6484 213.148 50.2812C213.625 49.9062 214.191 49.6133 214.848 49.4023C215.512 49.1914 216.254 49.0859 217.074 49.0859C218.059 49.0859 218.934 49.25 219.699 49.5781C220.465 49.9062 221.066 50.3984 221.504 51.0547C221.949 51.7109 222.172 52.5312 222.172 53.5156V58.9414C222.172 59.6367 222.215 60.207 222.301 60.6523C222.387 61.0898 222.512 61.4727 222.676 61.8008V62H219.266C219.102 61.6562 218.977 61.2266 218.891 60.7109C218.812 60.1875 218.773 59.6641 218.773 59.1406ZM219.219 54.2773L219.242 56.1875H217.355C216.91 56.1875 216.523 56.2383 216.195 56.3398C215.867 56.4414 215.598 56.5859 215.387 56.7734C215.176 56.9531 215.02 57.1641 214.918 57.4062C214.824 57.6484 214.777 57.9141 214.777 58.2031C214.777 58.4922 214.844 58.7539 214.977 58.9883C215.109 59.2148 215.301 59.3945 215.551 59.5273C215.801 59.6523 216.094 59.7148 216.43 59.7148C216.938 59.7148 217.379 59.6133 217.754 59.4102C218.129 59.207 218.418 58.957 218.621 58.6602C218.832 58.3633 218.941 58.082 218.949 57.8164L219.84 59.2461C219.715 59.5664 219.543 59.8984 219.324 60.2422C219.113 60.5859 218.844 60.9102 218.516 61.2148C218.188 61.5117 217.793 61.7578 217.332 61.9531C216.871 62.1406 216.324 62.2344 215.691 62.2344C214.887 62.2344 214.156 62.0742 213.5 61.7539C212.852 61.4258 212.336 60.9766 211.953 60.4062C211.578 59.8281 211.391 59.1719 211.391 58.4375C211.391 57.7734 211.516 57.1836 211.766 56.668C212.016 56.1523 212.383 55.7188 212.867 55.3672C213.359 55.0078 213.973 54.7383 214.707 54.5586C215.441 54.3711 216.293 54.2773 217.262 54.2773H219.219ZM228.148 51.9453V62H224.762V49.3203H227.938L228.148 51.9453ZM227.68 55.2148H226.742C226.742 54.332 226.848 53.5195 227.059 52.7773C227.277 52.0273 227.594 51.3789 228.008 50.832C228.43 50.2773 228.949 49.8477 229.566 49.543C230.184 49.2383 230.898 49.0859 231.711 49.0859C232.273 49.0859 232.789 49.1719 233.258 49.3438C233.727 49.5078 234.129 49.7695 234.465 50.1289C234.809 50.4805 235.074 50.9414 235.262 51.5117C235.449 52.0742 235.543 52.75 235.543 53.5391V62H232.168V53.9141C232.168 53.3359 232.09 52.8906 231.934 52.5781C231.777 52.2656 231.555 52.0469 231.266 51.9219C230.984 51.7969 230.645 51.7344 230.246 51.7344C229.809 51.7344 229.426 51.8242 229.098 52.0039C228.777 52.1836 228.512 52.4336 228.301 52.7539C228.09 53.0664 227.934 53.4336 227.832 53.8555C227.73 54.2773 227.68 54.7305 227.68 55.2148ZM235.227 54.8281L234.02 54.9805C234.02 54.1523 234.121 53.3828 234.324 52.6719C234.535 51.9609 234.844 51.3359 235.25 50.7969C235.664 50.2578 236.176 49.8398 236.785 49.543C237.395 49.2383 238.098 49.0859 238.895 49.0859C239.504 49.0859 240.059 49.1758 240.559 49.3555C241.059 49.5273 241.484 49.8047 241.836 50.1875C242.195 50.5625 242.469 51.0547 242.656 51.6641C242.852 52.2734 242.949 53.0195 242.949 53.9023V62H239.562V53.9023C239.562 53.3164 239.484 52.8711 239.328 52.5664C239.18 52.2539 238.961 52.0391 238.672 51.9219C238.391 51.7969 238.055 51.7344 237.664 51.7344C237.258 51.7344 236.902 51.8164 236.598 51.9805C236.293 52.1367 236.039 52.3555 235.836 52.6367C235.633 52.918 235.48 53.2461 235.379 53.6211C235.277 53.9883 235.227 54.3906 235.227 54.8281ZM251.398 62.2344C250.414 62.2344 249.531 62.0781 248.75 61.7656C247.969 61.4453 247.305 61.0039 246.758 60.4414C246.219 59.8789 245.805 59.2266 245.516 58.4844C245.227 57.7344 245.082 56.9375 245.082 56.0938V55.625C245.082 54.6641 245.219 53.7852 245.492 52.9883C245.766 52.1914 246.156 51.5 246.664 50.9141C247.18 50.3281 247.805 49.8789 248.539 49.5664C249.273 49.2461 250.102 49.0859 251.023 49.0859C251.922 49.0859 252.719 49.2344 253.414 49.5312C254.109 49.8281 254.691 50.25 255.16 50.7969C255.637 51.3438 255.996 52 256.238 52.7656C256.48 53.5234 256.602 54.3672 256.602 55.2969V56.7031H246.523V54.4531H253.285V54.1953C253.285 53.7266 253.199 53.3086 253.027 52.9414C252.863 52.5664 252.613 52.2695 252.277 52.0508C251.941 51.832 251.512 51.7227 250.988 51.7227C250.543 51.7227 250.16 51.8203 249.84 52.0156C249.52 52.2109 249.258 52.4844 249.055 52.8359C248.859 53.1875 248.711 53.6016 248.609 54.0781C248.516 54.5469 248.469 55.0625 248.469 55.625V56.0938C248.469 56.6016 248.539 57.0703 248.68 57.5C248.828 57.9297 249.035 58.3008 249.301 58.6133C249.574 58.9258 249.902 59.168 250.285 59.3398C250.676 59.5117 251.117 59.5977 251.609 59.5977C252.219 59.5977 252.785 59.4805 253.309 59.2461C253.84 59.0039 254.297 58.6406 254.68 58.1562L256.32 59.9375C256.055 60.3203 255.691 60.6875 255.23 61.0391C254.777 61.3906 254.23 61.6797 253.59 61.9062C252.949 62.125 252.219 62.2344 251.398 62.2344Z" fill="#888888"/>
<path d="M109.93 86.0078V118H102.217V86.0078H109.93ZM119.554 86.0078V91.9624H92.813V86.0078H119.554ZM132.012 118.439C130.079 118.439 128.35 118.139 126.827 117.539C125.303 116.923 124.014 116.081 122.959 115.012C121.919 113.942 121.121 112.712 120.564 111.32C120.022 109.929 119.751 108.457 119.751 106.904V106.069C119.751 104.326 119.993 102.714 120.477 101.235C120.96 99.7407 121.678 98.437 122.63 97.3237C123.582 96.2104 124.776 95.3462 126.211 94.731C127.647 94.1011 129.317 93.7861 131.221 93.7861C132.906 93.7861 134.415 94.0571 135.748 94.5991C137.081 95.1411 138.208 95.9175 139.131 96.9282C140.069 97.939 140.779 99.1621 141.263 100.598C141.761 102.033 142.01 103.645 142.01 105.432V108.442H122.586V103.806H134.781V103.234C134.795 102.443 134.656 101.77 134.363 101.213C134.085 100.656 133.675 100.231 133.133 99.9385C132.591 99.6455 131.932 99.499 131.155 99.499C130.35 99.499 129.683 99.6748 129.156 100.026C128.643 100.378 128.24 100.861 127.947 101.477C127.669 102.077 127.471 102.773 127.354 103.564C127.237 104.355 127.178 105.19 127.178 106.069V106.904C127.178 107.783 127.295 108.581 127.53 109.299C127.779 110.017 128.13 110.632 128.584 111.145C129.053 111.643 129.61 112.031 130.254 112.309C130.914 112.587 131.661 112.727 132.496 112.727C133.506 112.727 134.502 112.536 135.484 112.155C136.465 111.774 137.308 111.145 138.011 110.266L141.373 114.265C140.889 114.953 140.201 115.62 139.307 116.264C138.428 116.909 137.374 117.436 136.143 117.846C134.913 118.242 133.536 118.439 132.012 118.439ZM155.062 112.727C155.75 112.727 156.336 112.602 156.819 112.353C157.317 112.089 157.691 111.723 157.94 111.254C158.204 110.771 158.328 110.192 158.313 109.519H165.279C165.293 111.306 164.854 112.873 163.96 114.221C163.082 115.554 161.88 116.594 160.357 117.341C158.848 118.073 157.142 118.439 155.237 118.439C153.377 118.439 151.751 118.139 150.359 117.539C148.968 116.923 147.803 116.074 146.866 114.99C145.943 113.891 145.247 112.609 144.778 111.145C144.324 109.68 144.097 108.09 144.097 106.376V105.871C144.097 104.157 144.324 102.568 144.778 101.103C145.247 99.6235 145.943 98.3418 146.866 97.2578C147.803 96.1592 148.96 95.3096 150.337 94.709C151.729 94.0938 153.348 93.7861 155.193 93.7861C157.171 93.7861 158.914 94.1597 160.423 94.9067C161.946 95.6538 163.14 96.7378 164.004 98.1587C164.869 99.5796 165.293 101.301 165.279 103.322H158.313C158.328 102.604 158.218 101.96 157.984 101.389C157.75 100.817 157.383 100.363 156.885 100.026C156.402 99.6748 155.779 99.499 155.018 99.499C154.256 99.499 153.641 99.6675 153.172 100.004C152.703 100.341 152.344 100.81 152.095 101.411C151.861 101.997 151.7 102.67 151.612 103.432C151.539 104.194 151.502 105.007 151.502 105.871V106.376C151.502 107.255 151.539 108.083 151.612 108.859C151.7 109.621 151.868 110.295 152.117 110.881C152.366 111.452 152.725 111.906 153.194 112.243C153.663 112.565 154.285 112.727 155.062 112.727ZM175.694 84.25V118H168.289V84.25H175.694ZM174.815 105.3L173.079 105.344C173.079 103.674 173.284 102.136 173.694 100.729C174.104 99.3232 174.69 98.1001 175.452 97.0601C176.214 96.02 177.129 95.2144 178.199 94.6431C179.268 94.0718 180.455 93.7861 181.758 93.7861C182.93 93.7861 184 93.9546 184.966 94.2915C185.948 94.6284 186.79 95.1704 187.493 95.9175C188.211 96.6646 188.76 97.6387 189.141 98.8398C189.537 100.041 189.734 101.506 189.734 103.234V118H182.286V103.19C182.286 102.224 182.146 101.477 181.868 100.949C181.604 100.407 181.224 100.034 180.726 99.8286C180.228 99.6089 179.62 99.499 178.902 99.499C178.038 99.499 177.334 99.6455 176.792 99.9385C176.25 100.231 175.833 100.642 175.54 101.169C175.262 101.682 175.071 102.29 174.969 102.993C174.866 103.696 174.815 104.465 174.815 105.3ZM221.88 109.497C221.88 108.999 221.807 108.552 221.661 108.156C221.514 107.746 221.243 107.365 220.848 107.014C220.452 106.662 219.881 106.311 219.134 105.959C218.401 105.593 217.435 105.212 216.233 104.816C214.827 104.348 213.472 103.82 212.168 103.234C210.865 102.634 209.7 101.938 208.675 101.147C207.649 100.341 206.836 99.4038 206.236 98.3345C205.635 97.2505 205.335 95.9907 205.335 94.5552C205.335 93.1782 205.643 91.9404 206.258 90.8418C206.873 89.7285 207.73 88.7837 208.829 88.0073C209.942 87.2163 211.246 86.6157 212.74 86.2056C214.234 85.7808 215.867 85.5684 217.64 85.5684C219.983 85.5684 222.049 85.9785 223.836 86.7988C225.638 87.6045 227.044 88.7544 228.055 90.2485C229.08 91.728 229.593 93.4785 229.593 95.5H221.924C221.924 94.6943 221.756 93.9839 221.419 93.3687C221.097 92.7534 220.606 92.27 219.947 91.9185C219.288 91.5669 218.46 91.3911 217.464 91.3911C216.497 91.3911 215.684 91.5376 215.025 91.8306C214.366 92.1235 213.868 92.519 213.531 93.0171C213.194 93.5005 213.025 94.0352 213.025 94.6211C213.025 95.1045 213.157 95.5439 213.421 95.9395C213.699 96.3203 214.087 96.6792 214.585 97.0161C215.098 97.353 215.713 97.6753 216.431 97.9829C217.164 98.2905 217.984 98.5908 218.892 98.8838C220.591 99.4258 222.1 100.034 223.418 100.708C224.751 101.367 225.872 102.121 226.78 102.971C227.703 103.806 228.399 104.758 228.868 105.827C229.351 106.896 229.593 108.105 229.593 109.453C229.593 110.888 229.314 112.163 228.758 113.276C228.201 114.389 227.403 115.334 226.363 116.11C225.323 116.872 224.078 117.451 222.627 117.846C221.177 118.242 219.559 118.439 217.771 118.439C216.131 118.439 214.512 118.234 212.916 117.824C211.333 117.399 209.898 116.755 208.609 115.891C207.32 115.012 206.287 113.891 205.511 112.529C204.749 111.152 204.368 109.519 204.368 107.629H212.103C212.103 108.566 212.227 109.357 212.476 110.002C212.725 110.646 213.091 111.167 213.575 111.562C214.058 111.943 214.651 112.221 215.354 112.397C216.058 112.558 216.863 112.639 217.771 112.639C218.753 112.639 219.544 112.5 220.145 112.221C220.745 111.928 221.185 111.547 221.463 111.079C221.741 110.595 221.88 110.068 221.88 109.497ZM245.743 94.2256V99.3672H231.417V94.2256H245.743ZM234.427 88.3149H241.832V110.244C241.832 110.874 241.905 111.364 242.051 111.716C242.198 112.053 242.447 112.294 242.798 112.441C243.165 112.573 243.648 112.639 244.249 112.639C244.673 112.639 245.025 112.631 245.303 112.617C245.582 112.587 245.845 112.551 246.094 112.507V117.802C245.464 118.007 244.805 118.161 244.117 118.264C243.428 118.381 242.696 118.439 241.919 118.439C240.337 118.439 238.982 118.19 237.854 117.692C236.741 117.194 235.892 116.411 235.306 115.341C234.72 114.272 234.427 112.88 234.427 111.167V88.3149ZM261.036 112.023V102.224C261.036 101.55 260.94 100.971 260.75 100.488C260.56 100.004 260.259 99.6309 259.849 99.3672C259.439 99.0889 258.89 98.9497 258.201 98.9497C257.645 98.9497 257.168 99.0449 256.773 99.2354C256.377 99.4258 256.077 99.7114 255.872 100.092C255.667 100.473 255.564 100.957 255.564 101.542H248.16C248.16 100.444 248.401 99.4258 248.885 98.4883C249.383 97.5361 250.086 96.7085 250.994 96.0054C251.917 95.3022 253.016 94.7603 254.29 94.3794C255.579 93.9839 257.015 93.7861 258.597 93.7861C260.486 93.7861 262.171 94.1011 263.65 94.731C265.145 95.3608 266.324 96.3057 267.188 97.5654C268.052 98.8105 268.484 100.378 268.484 102.268V112.001C268.484 113.554 268.572 114.733 268.748 115.539C268.924 116.33 269.173 117.026 269.495 117.626V118H262.068C261.717 117.268 261.453 116.374 261.277 115.319C261.116 114.25 261.036 113.151 261.036 112.023ZM261.937 103.476L261.98 107.431H258.707C258.018 107.431 257.432 107.526 256.949 107.717C256.48 107.907 256.099 108.171 255.806 108.508C255.528 108.83 255.323 109.196 255.191 109.606C255.074 110.017 255.015 110.449 255.015 110.903C255.015 111.342 255.118 111.738 255.323 112.089C255.542 112.426 255.835 112.69 256.202 112.88C256.568 113.071 256.978 113.166 257.432 113.166C258.252 113.166 258.948 113.012 259.52 112.705C260.105 112.382 260.552 111.994 260.86 111.54C261.167 111.086 261.321 110.661 261.321 110.266L262.947 113.298C262.654 113.884 262.317 114.477 261.937 115.078C261.57 115.678 261.109 116.235 260.552 116.748C260.01 117.246 259.344 117.656 258.553 117.978C257.762 118.286 256.802 118.439 255.674 118.439C254.209 118.439 252.862 118.139 251.631 117.539C250.416 116.938 249.441 116.103 248.709 115.034C247.977 113.95 247.61 112.705 247.61 111.298C247.61 110.068 247.83 108.969 248.27 108.002C248.724 107.036 249.405 106.215 250.313 105.542C251.221 104.868 252.378 104.355 253.785 104.003C255.191 103.652 256.846 103.476 258.75 103.476H261.937ZM282.635 112.727C283.323 112.727 283.909 112.602 284.393 112.353C284.891 112.089 285.264 111.723 285.513 111.254C285.777 110.771 285.901 110.192 285.887 109.519H292.852C292.867 111.306 292.427 112.873 291.534 114.221C290.655 115.554 289.454 116.594 287.93 117.341C286.421 118.073 284.715 118.439 282.811 118.439C280.95 118.439 279.324 118.139 277.933 117.539C276.541 116.923 275.376 116.074 274.439 114.99C273.516 113.891 272.82 112.609 272.352 111.145C271.897 109.68 271.67 108.09 271.67 106.376V105.871C271.67 104.157 271.897 102.568 272.352 101.103C272.82 99.6235 273.516 98.3418 274.439 97.2578C275.376 96.1592 276.534 95.3096 277.911 94.709C279.302 94.0938 280.921 93.7861 282.767 93.7861C284.744 93.7861 286.487 94.1597 287.996 94.9067C289.52 95.6538 290.713 96.7378 291.578 98.1587C292.442 99.5796 292.867 101.301 292.852 103.322H285.887C285.901 102.604 285.792 101.96 285.557 101.389C285.323 100.817 284.957 100.363 284.458 100.026C283.975 99.6748 283.353 99.499 282.591 99.499C281.829 99.499 281.214 99.6675 280.745 100.004C280.276 100.341 279.917 100.81 279.668 101.411C279.434 101.997 279.273 102.67 279.185 103.432C279.112 104.194 279.075 105.007 279.075 105.871V106.376C279.075 107.255 279.112 108.083 279.185 108.859C279.273 109.621 279.441 110.295 279.69 110.881C279.939 111.452 280.298 111.906 280.767 112.243C281.236 112.565 281.858 112.727 282.635 112.727ZM303.487 84.228V118H296.082V84.228H303.487ZM318.692 94.2256L308.365 106.333L302.959 111.738L299.729 107.036L304.234 101.169L309.815 94.2256H318.692ZM310.76 118L304.41 107.167L309.881 103.278L319.241 118H310.76Z" fill="#424241"/>
<path d="M1363 15C1363 6.71573 1356.28 0 1348 0H1134V167H1348C1356.28 167 1363 160.284 1363 152V15Z" fill="#011043"/>
<path fill-rule="evenodd" clip-rule="evenodd" d="M1218.5 55C1218.37 55 1218.24 55.0527 1218.15 55.1464C1218.05 55.2402 1218 55.3674 1218 55.5V111.5C1218 111.633 1218.05 111.76 1218.15 111.854C1218.24 111.947 1218.37 112 1218.5 112H1278C1278.13 112 1278.26 111.947 1278.35 111.854C1278.45 111.76 1278.5 111.633 1278.5 111.5V66C1278.5 65.8674 1278.45 65.7402 1278.35 65.6464C1278.26 65.5527 1278.13 65.5 1278 65.5H1248.25C1247.36 65.5 1246.52 65.1045 1245.95 64.4206L1238.09 55H1218.5ZM1213.9 50.9038C1215.12 49.6848 1216.78 49 1218.5 49H1239.5C1240.39 49 1241.23 49.3955 1241.8 50.0794L1249.66 59.5H1278C1279.72 59.5 1281.38 60.1848 1282.6 61.4038C1283.82 62.6228 1284.5 64.2761 1284.5 66V111.5C1284.5 113.224 1283.82 114.877 1282.6 116.096C1281.38 117.315 1279.72 118 1278 118H1218.5C1216.78 118 1215.12 117.315 1213.9 116.096C1212.68 114.877 1212 113.224 1212 111.5V55.5C1212 53.7761 1212.68 52.1228 1213.9 50.9038Z" fill="white"/>
<path fill-rule="evenodd" clip-rule="evenodd" d="M1243.72 77.5251C1245.09 78.892 1245.09 81.108 1243.72 82.4749L1237.45 88.75L1243.72 95.0251C1245.09 96.392 1245.09 98.608 1243.72 99.9749C1242.36 101.342 1240.14 101.342 1238.78 99.9749L1230.03 91.2249C1228.66 89.858 1228.66 87.642 1230.03 86.2751L1238.78 77.5251C1240.14 76.1583 1242.36 76.1583 1243.72 77.5251Z" fill="white"/>
<path fill-rule="evenodd" clip-rule="evenodd" d="M1252.03 99.9749C1250.66 98.608 1250.66 96.392 1252.03 95.0251L1258.3 88.75L1252.03 82.4749C1250.66 81.108 1250.66 78.892 1252.03 77.5251C1253.39 76.1583 1255.61 76.1583 1256.97 77.5251L1265.72 86.2751C1267.09 87.642 1267.09 89.858 1265.72 91.2249L1256.97 99.9749C1255.61 101.342 1253.39 101.342 1252.03 99.9749Z" fill="white"/>
</svg>
