<svg width="1363" height="167" viewBox="0 0 1363 167" fill="none" xmlns="http://www.w3.org/2000/svg">
<rect width="1363" height="167" rx="15" fill="#F0F0F0"/>
<path d="M0 15C0 6.71573 6.71573 0 15 0H37V167H15C6.71573 167 0 160.284 0 152V15Z" fill="#424241"/>
<path d="M103.414 52.3398H106.918C106.848 53.4883 106.531 54.5078 105.969 55.3984C105.414 56.2891 104.637 56.9844 103.637 57.4844C102.645 57.9844 101.449 58.2344 100.051 58.2344C98.957 58.2344 97.9766 58.0469 97.1094 57.6719C96.2422 57.2891 95.5 56.7422 94.8828 56.0312C94.2734 55.3203 93.8086 54.4609 93.4883 53.4531C93.168 52.4453 93.0078 51.3164 93.0078 50.0664V48.8828C93.0078 47.6328 93.1719 46.5039 93.5 45.4961C93.8359 44.4805 94.3125 43.6172 94.9297 42.9062C95.5547 42.1953 96.3008 41.6484 97.168 41.2656C98.0352 40.8828 99.0039 40.6914 100.074 40.6914C101.496 40.6914 102.695 40.9492 103.672 41.4648C104.656 41.9805 105.418 42.6914 105.957 43.5977C106.504 44.5039 106.832 45.5352 106.941 46.6914H103.426C103.387 46.0039 103.25 45.4219 103.016 44.9453C102.781 44.4609 102.426 44.0977 101.949 43.8555C101.48 43.6055 100.855 43.4805 100.074 43.4805C99.4883 43.4805 98.9766 43.5898 98.5391 43.8086C98.1016 44.0273 97.7344 44.3594 97.4375 44.8047C97.1406 45.25 96.918 45.8125 96.7695 46.4922C96.6289 47.1641 96.5586 47.9531 96.5586 48.8594V50.0664C96.5586 50.9492 96.625 51.7266 96.7578 52.3984C96.8906 53.0625 97.0938 53.625 97.3672 54.0859C97.6484 54.5391 98.0078 54.8828 98.4453 55.1172C98.8906 55.3438 99.4258 55.457 100.051 55.457C100.785 55.457 101.391 55.3398 101.867 55.1055C102.344 54.8711 102.707 54.5234 102.957 54.0625C103.215 53.6016 103.367 53.0273 103.414 52.3398ZM112.578 40V58H109.191V40H112.578ZM114.828 51.7891V51.543C114.828 50.6133 114.961 49.7578 115.227 48.9766C115.492 48.1875 115.879 47.5039 116.387 46.9258C116.895 46.3477 117.52 45.8984 118.262 45.5781C119.004 45.25 119.855 45.0859 120.816 45.0859C121.777 45.0859 122.633 45.25 123.383 45.5781C124.133 45.8984 124.762 46.3477 125.27 46.9258C125.785 47.5039 126.176 48.1875 126.441 48.9766C126.707 49.7578 126.84 50.6133 126.84 51.543V51.7891C126.84 52.7109 126.707 53.5664 126.441 54.3555C126.176 55.1367 125.785 55.8203 125.27 56.4062C124.762 56.9844 124.137 57.4336 123.395 57.7539C122.652 58.0742 121.801 58.2344 120.84 58.2344C119.879 58.2344 119.023 58.0742 118.273 57.7539C117.531 57.4336 116.902 56.9844 116.387 56.4062C115.879 55.8203 115.492 55.1367 115.227 54.3555C114.961 53.5664 114.828 52.7109 114.828 51.7891ZM118.203 51.543V51.7891C118.203 52.3203 118.25 52.8164 118.344 53.2773C118.438 53.7383 118.586 54.1445 118.789 54.4961C119 54.8398 119.273 55.1094 119.609 55.3047C119.945 55.5 120.355 55.5977 120.84 55.5977C121.309 55.5977 121.711 55.5 122.047 55.3047C122.383 55.1094 122.652 54.8398 122.855 54.4961C123.059 54.1445 123.207 53.7383 123.301 53.2773C123.402 52.8164 123.453 52.3203 123.453 51.7891V51.543C123.453 51.0273 123.402 50.543 123.301 50.0898C123.207 49.6289 123.055 49.2227 122.844 48.8711C122.641 48.5117 122.371 48.2305 122.035 48.0273C121.699 47.8242 121.293 47.7227 120.816 47.7227C120.34 47.7227 119.934 47.8242 119.598 48.0273C119.27 48.2305 119 48.5117 118.789 48.8711C118.586 49.2227 118.438 49.6289 118.344 50.0898C118.25 50.543 118.203 51.0273 118.203 51.543ZM135.77 54.4961C135.77 54.2539 135.699 54.0352 135.559 53.8398C135.418 53.6445 135.156 53.4648 134.773 53.3008C134.398 53.1289 133.855 52.9727 133.145 52.832C132.504 52.6914 131.906 52.5156 131.352 52.3047C130.805 52.0859 130.328 51.8242 129.922 51.5195C129.523 51.2148 129.211 50.8555 128.984 50.4414C128.758 50.0195 128.645 49.5391 128.645 49C128.645 48.4688 128.758 47.9688 128.984 47.5C129.219 47.0312 129.551 46.6172 129.98 46.2578C130.418 45.8906 130.949 45.6055 131.574 45.4023C132.207 45.1914 132.918 45.0859 133.707 45.0859C134.809 45.0859 135.754 45.2617 136.543 45.6133C137.34 45.9648 137.949 46.4492 138.371 47.0664C138.801 47.6758 139.016 48.3711 139.016 49.1523H135.641C135.641 48.8242 135.57 48.5312 135.43 48.2734C135.297 48.0078 135.086 47.8008 134.797 47.6523C134.516 47.4961 134.148 47.418 133.695 47.418C133.32 47.418 132.996 47.4844 132.723 47.6172C132.449 47.7422 132.238 47.9141 132.09 48.1328C131.949 48.3438 131.879 48.5781 131.879 48.8359C131.879 49.0312 131.918 49.207 131.996 49.3633C132.082 49.5117 132.219 49.6484 132.406 49.7734C132.594 49.8984 132.836 50.0156 133.133 50.125C133.438 50.2266 133.812 50.3203 134.258 50.4062C135.172 50.5938 135.988 50.8398 136.707 51.1445C137.426 51.4414 137.996 51.8477 138.418 52.3633C138.84 52.8711 139.051 53.5391 139.051 54.3672C139.051 54.9297 138.926 55.4453 138.676 55.9141C138.426 56.3828 138.066 56.793 137.598 57.1445C137.129 57.4883 136.566 57.7578 135.91 57.9531C135.262 58.1406 134.531 58.2344 133.719 58.2344C132.539 58.2344 131.539 58.0234 130.719 57.6016C129.906 57.1797 129.289 56.6445 128.867 55.9961C128.453 55.3398 128.246 54.668 128.246 53.9805H131.445C131.461 54.4414 131.578 54.8125 131.797 55.0938C132.023 55.375 132.309 55.5781 132.652 55.7031C133.004 55.8281 133.383 55.8906 133.789 55.8906C134.227 55.8906 134.59 55.832 134.879 55.7148C135.168 55.5898 135.387 55.4258 135.535 55.2227C135.691 55.0117 135.77 54.7695 135.77 54.4961ZM147.078 58.2344C146.094 58.2344 145.211 58.0781 144.43 57.7656C143.648 57.4453 142.984 57.0039 142.438 56.4414C141.898 55.8789 141.484 55.2266 141.195 54.4844C140.906 53.7344 140.762 52.9375 140.762 52.0938V51.625C140.762 50.6641 140.898 49.7852 141.172 48.9883C141.445 48.1914 141.836 47.5 142.344 46.9141C142.859 46.3281 143.484 45.8789 144.219 45.5664C144.953 45.2461 145.781 45.0859 146.703 45.0859C147.602 45.0859 148.398 45.2344 149.094 45.5312C149.789 45.8281 150.371 46.25 150.84 46.7969C151.316 47.3438 151.676 48 151.918 48.7656C152.16 49.5234 152.281 50.3672 152.281 51.2969V52.7031H142.203V50.4531H148.965V50.1953C148.965 49.7266 148.879 49.3086 148.707 48.9414C148.543 48.5664 148.293 48.2695 147.957 48.0508C147.621 47.832 147.191 47.7227 146.668 47.7227C146.223 47.7227 145.84 47.8203 145.52 48.0156C145.199 48.2109 144.938 48.4844 144.734 48.8359C144.539 49.1875 144.391 49.6016 144.289 50.0781C144.195 50.5469 144.148 51.0625 144.148 51.625V52.0938C144.148 52.6016 144.219 53.0703 144.359 53.5C144.508 53.9297 144.715 54.3008 144.98 54.6133C145.254 54.9258 145.582 55.168 145.965 55.3398C146.355 55.5117 146.797 55.5977 147.289 55.5977C147.898 55.5977 148.465 55.4805 148.988 55.2461C149.52 55.0039 149.977 54.6406 150.359 54.1562L152 55.9375C151.734 56.3203 151.371 56.6875 150.91 57.0391C150.457 57.3906 149.91 57.6797 149.27 57.9062C148.629 58.125 147.898 58.2344 147.078 58.2344ZM157.578 48.0859V58H154.203V45.3203H157.379L157.578 48.0859ZM161.398 45.2383L161.34 48.3672C161.176 48.3438 160.977 48.3242 160.742 48.3086C160.516 48.2852 160.309 48.2734 160.121 48.2734C159.645 48.2734 159.23 48.3359 158.879 48.4609C158.535 48.5781 158.246 48.7539 158.012 48.9883C157.785 49.2227 157.613 49.5078 157.496 49.8438C157.387 50.1797 157.324 50.5625 157.309 50.9922L156.629 50.7812C156.629 49.9609 156.711 49.207 156.875 48.5195C157.039 47.8242 157.277 47.2188 157.59 46.7031C157.91 46.1875 158.301 45.7891 158.762 45.5078C159.223 45.2266 159.75 45.0859 160.344 45.0859C160.531 45.0859 160.723 45.1016 160.918 45.1328C161.113 45.1562 161.273 45.1914 161.398 45.2383Z" fill="#888888"/>
<path d="M109.93 86.0078V118H102.217V86.0078H109.93ZM119.554 86.0078V91.9624H92.813V86.0078H119.554ZM132.012 118.439C130.079 118.439 128.35 118.139 126.827 117.539C125.303 116.923 124.014 116.081 122.959 115.012C121.919 113.942 121.121 112.712 120.564 111.32C120.022 109.929 119.751 108.457 119.751 106.904V106.069C119.751 104.326 119.993 102.714 120.477 101.235C120.96 99.7407 121.678 98.437 122.63 97.3237C123.582 96.2104 124.776 95.3462 126.211 94.731C127.647 94.1011 129.317 93.7861 131.221 93.7861C132.906 93.7861 134.415 94.0571 135.748 94.5991C137.081 95.1411 138.208 95.9175 139.131 96.9282C140.069 97.939 140.779 99.1621 141.263 100.598C141.761 102.033 142.01 103.645 142.01 105.432V108.442H122.586V103.806H134.781V103.234C134.795 102.443 134.656 101.77 134.363 101.213C134.085 100.656 133.675 100.231 133.133 99.9385C132.591 99.6455 131.932 99.499 131.155 99.499C130.35 99.499 129.683 99.6748 129.156 100.026C128.643 100.378 128.24 100.861 127.947 101.477C127.669 102.077 127.471 102.773 127.354 103.564C127.237 104.355 127.178 105.19 127.178 106.069V106.904C127.178 107.783 127.295 108.581 127.53 109.299C127.779 110.017 128.13 110.632 128.584 111.145C129.053 111.643 129.61 112.031 130.254 112.309C130.914 112.587 131.661 112.727 132.496 112.727C133.506 112.727 134.502 112.536 135.484 112.155C136.465 111.774 137.308 111.145 138.011 110.266L141.373 114.265C140.889 114.953 140.201 115.62 139.307 116.264C138.428 116.909 137.374 117.436 136.143 117.846C134.913 118.242 133.536 118.439 132.012 118.439ZM155.062 112.727C155.75 112.727 156.336 112.602 156.819 112.353C157.317 112.089 157.691 111.723 157.94 111.254C158.204 110.771 158.328 110.192 158.313 109.519H165.279C165.293 111.306 164.854 112.873 163.96 114.221C163.082 115.554 161.88 116.594 160.357 117.341C158.848 118.073 157.142 118.439 155.237 118.439C153.377 118.439 151.751 118.139 150.359 117.539C148.968 116.923 147.803 116.074 146.866 114.99C145.943 113.891 145.247 112.609 144.778 111.145C144.324 109.68 144.097 108.09 144.097 106.376V105.871C144.097 104.157 144.324 102.568 144.778 101.103C145.247 99.6235 145.943 98.3418 146.866 97.2578C147.803 96.1592 148.96 95.3096 150.337 94.709C151.729 94.0938 153.348 93.7861 155.193 93.7861C157.171 93.7861 158.914 94.1597 160.423 94.9067C161.946 95.6538 163.14 96.7378 164.004 98.1587C164.869 99.5796 165.293 101.301 165.279 103.322H158.313C158.328 102.604 158.218 101.96 157.984 101.389C157.75 100.817 157.383 100.363 156.885 100.026C156.402 99.6748 155.779 99.499 155.018 99.499C154.256 99.499 153.641 99.6675 153.172 100.004C152.703 100.341 152.344 100.81 152.095 101.411C151.861 101.997 151.7 102.67 151.612 103.432C151.539 104.194 151.502 105.007 151.502 105.871V106.376C151.502 107.255 151.539 108.083 151.612 108.859C151.7 109.621 151.868 110.295 152.117 110.881C152.366 111.452 152.725 111.906 153.194 112.243C153.663 112.565 154.285 112.727 155.062 112.727ZM175.694 84.25V118H168.289V84.25H175.694ZM174.815 105.3L173.079 105.344C173.079 103.674 173.284 102.136 173.694 100.729C174.104 99.3232 174.69 98.1001 175.452 97.0601C176.214 96.02 177.129 95.2144 178.199 94.6431C179.268 94.0718 180.455 93.7861 181.758 93.7861C182.93 93.7861 184 93.9546 184.966 94.2915C185.948 94.6284 186.79 95.1704 187.493 95.9175C188.211 96.6646 188.76 97.6387 189.141 98.8398C189.537 100.041 189.734 101.506 189.734 103.234V118H182.286V103.19C182.286 102.224 182.146 101.477 181.868 100.949C181.604 100.407 181.224 100.034 180.726 99.8286C180.228 99.6089 179.62 99.499 178.902 99.499C178.038 99.499 177.334 99.6455 176.792 99.9385C176.25 100.231 175.833 100.642 175.54 101.169C175.262 101.682 175.071 102.29 174.969 102.993C174.866 103.696 174.815 104.465 174.815 105.3ZM221.88 109.497C221.88 108.999 221.807 108.552 221.661 108.156C221.514 107.746 221.243 107.365 220.848 107.014C220.452 106.662 219.881 106.311 219.134 105.959C218.401 105.593 217.435 105.212 216.233 104.816C214.827 104.348 213.472 103.82 212.168 103.234C210.865 102.634 209.7 101.938 208.675 101.147C207.649 100.341 206.836 99.4038 206.236 98.3345C205.635 97.2505 205.335 95.9907 205.335 94.5552C205.335 93.1782 205.643 91.9404 206.258 90.8418C206.873 89.7285 207.73 88.7837 208.829 88.0073C209.942 87.2163 211.246 86.6157 212.74 86.2056C214.234 85.7808 215.867 85.5684 217.64 85.5684C219.983 85.5684 222.049 85.9785 223.836 86.7988C225.638 87.6045 227.044 88.7544 228.055 90.2485C229.08 91.728 229.593 93.4785 229.593 95.5H221.924C221.924 94.6943 221.756 93.9839 221.419 93.3687C221.097 92.7534 220.606 92.27 219.947 91.9185C219.288 91.5669 218.46 91.3911 217.464 91.3911C216.497 91.3911 215.684 91.5376 215.025 91.8306C214.366 92.1235 213.868 92.519 213.531 93.0171C213.194 93.5005 213.025 94.0352 213.025 94.6211C213.025 95.1045 213.157 95.5439 213.421 95.9395C213.699 96.3203 214.087 96.6792 214.585 97.0161C215.098 97.353 215.713 97.6753 216.431 97.9829C217.164 98.2905 217.984 98.5908 218.892 98.8838C220.591 99.4258 222.1 100.034 223.418 100.708C224.751 101.367 225.872 102.121 226.78 102.971C227.703 103.806 228.399 104.758 228.868 105.827C229.351 106.896 229.593 108.105 229.593 109.453C229.593 110.888 229.314 112.163 228.758 113.276C228.201 114.389 227.403 115.334 226.363 116.11C225.323 116.872 224.078 117.451 222.627 117.846C221.177 118.242 219.559 118.439 217.771 118.439C216.131 118.439 214.512 118.234 212.916 117.824C211.333 117.399 209.898 116.755 208.609 115.891C207.32 115.012 206.287 113.891 205.511 112.529C204.749 111.152 204.368 109.519 204.368 107.629H212.103C212.103 108.566 212.227 109.357 212.476 110.002C212.725 110.646 213.091 111.167 213.575 111.562C214.058 111.943 214.651 112.221 215.354 112.397C216.058 112.558 216.863 112.639 217.771 112.639C218.753 112.639 219.544 112.5 220.145 112.221C220.745 111.928 221.185 111.547 221.463 111.079C221.741 110.595 221.88 110.068 221.88 109.497ZM245.743 94.2256V99.3672H231.417V94.2256H245.743ZM234.427 88.3149H241.832V110.244C241.832 110.874 241.905 111.364 242.051 111.716C242.198 112.053 242.447 112.294 242.798 112.441C243.165 112.573 243.648 112.639 244.249 112.639C244.673 112.639 245.025 112.631 245.303 112.617C245.582 112.587 245.845 112.551 246.094 112.507V117.802C245.464 118.007 244.805 118.161 244.117 118.264C243.428 118.381 242.696 118.439 241.919 118.439C240.337 118.439 238.982 118.19 237.854 117.692C236.741 117.194 235.892 116.411 235.306 115.341C234.72 114.272 234.427 112.88 234.427 111.167V88.3149ZM261.036 112.023V102.224C261.036 101.55 260.94 100.971 260.75 100.488C260.56 100.004 260.259 99.6309 259.849 99.3672C259.439 99.0889 258.89 98.9497 258.201 98.9497C257.645 98.9497 257.168 99.0449 256.773 99.2354C256.377 99.4258 256.077 99.7114 255.872 100.092C255.667 100.473 255.564 100.957 255.564 101.542H248.16C248.16 100.444 248.401 99.4258 248.885 98.4883C249.383 97.5361 250.086 96.7085 250.994 96.0054C251.917 95.3022 253.016 94.7603 254.29 94.3794C255.579 93.9839 257.015 93.7861 258.597 93.7861C260.486 93.7861 262.171 94.1011 263.65 94.731C265.145 95.3608 266.324 96.3057 267.188 97.5654C268.052 98.8105 268.484 100.378 268.484 102.268V112.001C268.484 113.554 268.572 114.733 268.748 115.539C268.924 116.33 269.173 117.026 269.495 117.626V118H262.068C261.717 117.268 261.453 116.374 261.277 115.319C261.116 114.25 261.036 113.151 261.036 112.023ZM261.937 103.476L261.98 107.431H258.707C258.018 107.431 257.432 107.526 256.949 107.717C256.48 107.907 256.099 108.171 255.806 108.508C255.528 108.83 255.323 109.196 255.191 109.606C255.074 110.017 255.015 110.449 255.015 110.903C255.015 111.342 255.118 111.738 255.323 112.089C255.542 112.426 255.835 112.69 256.202 112.88C256.568 113.071 256.978 113.166 257.432 113.166C258.252 113.166 258.948 113.012 259.52 112.705C260.105 112.382 260.552 111.994 260.86 111.54C261.167 111.086 261.321 110.661 261.321 110.266L262.947 113.298C262.654 113.884 262.317 114.477 261.937 115.078C261.57 115.678 261.109 116.235 260.552 116.748C260.01 117.246 259.344 117.656 258.553 117.978C257.762 118.286 256.802 118.439 255.674 118.439C254.209 118.439 252.862 118.139 251.631 117.539C250.416 116.938 249.441 116.103 248.709 115.034C247.977 113.95 247.61 112.705 247.61 111.298C247.61 110.068 247.83 108.969 248.27 108.002C248.724 107.036 249.405 106.215 250.313 105.542C251.221 104.868 252.378 104.355 253.785 104.003C255.191 103.652 256.846 103.476 258.75 103.476H261.937ZM282.635 112.727C283.323 112.727 283.909 112.602 284.393 112.353C284.891 112.089 285.264 111.723 285.513 111.254C285.777 110.771 285.901 110.192 285.887 109.519H292.852C292.867 111.306 292.427 112.873 291.534 114.221C290.655 115.554 289.454 116.594 287.93 117.341C286.421 118.073 284.715 118.439 282.811 118.439C280.95 118.439 279.324 118.139 277.933 117.539C276.541 116.923 275.376 116.074 274.439 114.99C273.516 113.891 272.82 112.609 272.352 111.145C271.897 109.68 271.67 108.09 271.67 106.376V105.871C271.67 104.157 271.897 102.568 272.352 101.103C272.82 99.6235 273.516 98.3418 274.439 97.2578C275.376 96.1592 276.534 95.3096 277.911 94.709C279.302 94.0938 280.921 93.7861 282.767 93.7861C284.744 93.7861 286.487 94.1597 287.996 94.9067C289.52 95.6538 290.713 96.7378 291.578 98.1587C292.442 99.5796 292.867 101.301 292.852 103.322H285.887C285.901 102.604 285.792 101.96 285.557 101.389C285.323 100.817 284.957 100.363 284.458 100.026C283.975 99.6748 283.353 99.499 282.591 99.499C281.829 99.499 281.214 99.6675 280.745 100.004C280.276 100.341 279.917 100.81 279.668 101.411C279.434 101.997 279.273 102.67 279.185 103.432C279.112 104.194 279.075 105.007 279.075 105.871V106.376C279.075 107.255 279.112 108.083 279.185 108.859C279.273 109.621 279.441 110.295 279.69 110.881C279.939 111.452 280.298 111.906 280.767 112.243C281.236 112.565 281.858 112.727 282.635 112.727ZM303.487 84.228V118H296.082V84.228H303.487ZM318.692 94.2256L308.365 106.333L302.959 111.738L299.729 107.036L304.234 101.169L309.815 94.2256H318.692ZM310.76 118L304.41 107.167L309.881 103.278L319.241 118H310.76Z" fill="#202020"/>
<path d="M1363 15C1363 6.71573 1356.28 0 1348 0H1134V167H1348C1356.28 167 1363 160.284 1363 152V15Z" fill="#011043"/>
<path fill-rule="evenodd" clip-rule="evenodd" d="M1218.5 55C1218.37 55 1218.24 55.0527 1218.15 55.1464C1218.05 55.2402 1218 55.3674 1218 55.5V111.5C1218 111.633 1218.05 111.76 1218.15 111.854C1218.24 111.947 1218.37 112 1218.5 112H1278C1278.13 112 1278.26 111.947 1278.35 111.854C1278.45 111.76 1278.5 111.633 1278.5 111.5V66C1278.5 65.8674 1278.45 65.7402 1278.35 65.6464C1278.26 65.5527 1278.13 65.5 1278 65.5H1248.25C1247.36 65.5 1246.52 65.1045 1245.95 64.4206L1238.09 55H1218.5ZM1213.9 50.9038C1215.12 49.6848 1216.78 49 1218.5 49H1239.5C1240.39 49 1241.23 49.3955 1241.8 50.0794L1249.66 59.5H1278C1279.72 59.5 1281.38 60.1848 1282.6 61.4038C1283.82 62.6228 1284.5 64.2761 1284.5 66V111.5C1284.5 113.224 1283.82 114.877 1282.6 116.096C1281.38 117.315 1279.72 118 1278 118H1218.5C1216.78 118 1215.12 117.315 1213.9 116.096C1212.68 114.877 1212 113.224 1212 111.5V55.5C1212 53.7761 1212.68 52.1228 1213.9 50.9038Z" fill="white"/>
<path fill-rule="evenodd" clip-rule="evenodd" d="M1243.72 77.5251C1245.09 78.892 1245.09 81.108 1243.72 82.4749L1237.45 88.75L1243.72 95.0251C1245.09 96.392 1245.09 98.608 1243.72 99.9749C1242.36 101.342 1240.14 101.342 1238.78 99.9749L1230.03 91.2249C1228.66 89.858 1228.66 87.642 1230.03 86.2751L1238.78 77.5251C1240.14 76.1583 1242.36 76.1583 1243.72 77.5251Z" fill="white"/>
<path fill-rule="evenodd" clip-rule="evenodd" d="M1252.03 99.9749C1250.66 98.608 1250.66 96.392 1252.03 95.0251L1258.3 88.75L1252.03 82.4749C1250.66 81.108 1250.66 78.892 1252.03 77.5251C1253.39 76.1583 1255.61 76.1583 1256.97 77.5251L1265.72 86.2751C1267.09 87.642 1267.09 89.858 1265.72 91.2249L1256.97 99.9749C1255.61 101.342 1253.39 101.342 1252.03 99.9749Z" fill="white"/>
</svg>
