<svg width="1363" height="167" viewBox="0 0 1363 167" fill="none" xmlns="http://www.w3.org/2000/svg">
<rect width="1363" height="167" rx="15" fill="#F0F0F0"/>
<path d="M0 15C0 6.71573 6.71573 0 15 0H37V167H15C6.71573 167 0 160.284 0 152V15Z" fill="#424241"/>
<path d="M103.414 52.3398H106.918C106.848 53.4883 106.531 54.5078 105.969 55.3984C105.414 56.2891 104.637 56.9844 103.637 57.4844C102.645 57.9844 101.449 58.2344 100.051 58.2344C98.957 58.2344 97.9766 58.0469 97.1094 57.6719C96.2422 57.2891 95.5 56.7422 94.8828 56.0312C94.2734 55.3203 93.8086 54.4609 93.4883 53.4531C93.168 52.4453 93.0078 51.3164 93.0078 50.0664V48.8828C93.0078 47.6328 93.1719 46.5039 93.5 45.4961C93.8359 44.4805 94.3125 43.6172 94.9297 42.9062C95.5547 42.1953 96.3008 41.6484 97.168 41.2656C98.0352 40.8828 99.0039 40.6914 100.074 40.6914C101.496 40.6914 102.695 40.9492 103.672 41.4648C104.656 41.9805 105.418 42.6914 105.957 43.5977C106.504 44.5039 106.832 45.5352 106.941 46.6914H103.426C103.387 46.0039 103.25 45.4219 103.016 44.9453C102.781 44.4609 102.426 44.0977 101.949 43.8555C101.48 43.6055 100.855 43.4805 100.074 43.4805C99.4883 43.4805 98.9766 43.5898 98.5391 43.8086C98.1016 44.0273 97.7344 44.3594 97.4375 44.8047C97.1406 45.25 96.918 45.8125 96.7695 46.4922C96.6289 47.1641 96.5586 47.9531 96.5586 48.8594V50.0664C96.5586 50.9492 96.625 51.7266 96.7578 52.3984C96.8906 53.0625 97.0938 53.625 97.3672 54.0859C97.6484 54.5391 98.0078 54.8828 98.4453 55.1172C98.8906 55.3438 99.4258 55.457 100.051 55.457C100.785 55.457 101.391 55.3398 101.867 55.1055C102.344 54.8711 102.707 54.5234 102.957 54.0625C103.215 53.6016 103.367 53.0273 103.414 52.3398ZM112.578 40V58H109.191V40H112.578ZM114.828 51.7891V51.543C114.828 50.6133 114.961 49.7578 115.227 48.9766C115.492 48.1875 115.879 47.5039 116.387 46.9258C116.895 46.3477 117.52 45.8984 118.262 45.5781C119.004 45.25 119.855 45.0859 120.816 45.0859C121.777 45.0859 122.633 45.25 123.383 45.5781C124.133 45.8984 124.762 46.3477 125.27 46.9258C125.785 47.5039 126.176 48.1875 126.441 48.9766C126.707 49.7578 126.84 50.6133 126.84 51.543V51.7891C126.84 52.7109 126.707 53.5664 126.441 54.3555C126.176 55.1367 125.785 55.8203 125.27 56.4062C124.762 56.9844 124.137 57.4336 123.395 57.7539C122.652 58.0742 121.801 58.2344 120.84 58.2344C119.879 58.2344 119.023 58.0742 118.273 57.7539C117.531 57.4336 116.902 56.9844 116.387 56.4062C115.879 55.8203 115.492 55.1367 115.227 54.3555C114.961 53.5664 114.828 52.7109 114.828 51.7891ZM118.203 51.543V51.7891C118.203 52.3203 118.25 52.8164 118.344 53.2773C118.438 53.7383 118.586 54.1445 118.789 54.4961C119 54.8398 119.273 55.1094 119.609 55.3047C119.945 55.5 120.355 55.5977 120.84 55.5977C121.309 55.5977 121.711 55.5 122.047 55.3047C122.383 55.1094 122.652 54.8398 122.855 54.4961C123.059 54.1445 123.207 53.7383 123.301 53.2773C123.402 52.8164 123.453 52.3203 123.453 51.7891V51.543C123.453 51.0273 123.402 50.543 123.301 50.0898C123.207 49.6289 123.055 49.2227 122.844 48.8711C122.641 48.5117 122.371 48.2305 122.035 48.0273C121.699 47.8242 121.293 47.7227 120.816 47.7227C120.34 47.7227 119.934 47.8242 119.598 48.0273C119.27 48.2305 119 48.5117 118.789 48.8711C118.586 49.2227 118.438 49.6289 118.344 50.0898C118.25 50.543 118.203 51.0273 118.203 51.543ZM135.77 54.4961C135.77 54.2539 135.699 54.0352 135.559 53.8398C135.418 53.6445 135.156 53.4648 134.773 53.3008C134.398 53.1289 133.855 52.9727 133.145 52.832C132.504 52.6914 131.906 52.5156 131.352 52.3047C130.805 52.0859 130.328 51.8242 129.922 51.5195C129.523 51.2148 129.211 50.8555 128.984 50.4414C128.758 50.0195 128.645 49.5391 128.645 49C128.645 48.4688 128.758 47.9688 128.984 47.5C129.219 47.0312 129.551 46.6172 129.98 46.2578C130.418 45.8906 130.949 45.6055 131.574 45.4023C132.207 45.1914 132.918 45.0859 133.707 45.0859C134.809 45.0859 135.754 45.2617 136.543 45.6133C137.34 45.9648 137.949 46.4492 138.371 47.0664C138.801 47.6758 139.016 48.3711 139.016 49.1523H135.641C135.641 48.8242 135.57 48.5312 135.43 48.2734C135.297 48.0078 135.086 47.8008 134.797 47.6523C134.516 47.4961 134.148 47.418 133.695 47.418C133.32 47.418 132.996 47.4844 132.723 47.6172C132.449 47.7422 132.238 47.9141 132.09 48.1328C131.949 48.3438 131.879 48.5781 131.879 48.8359C131.879 49.0312 131.918 49.207 131.996 49.3633C132.082 49.5117 132.219 49.6484 132.406 49.7734C132.594 49.8984 132.836 50.0156 133.133 50.125C133.438 50.2266 133.812 50.3203 134.258 50.4062C135.172 50.5938 135.988 50.8398 136.707 51.1445C137.426 51.4414 137.996 51.8477 138.418 52.3633C138.84 52.8711 139.051 53.5391 139.051 54.3672C139.051 54.9297 138.926 55.4453 138.676 55.9141C138.426 56.3828 138.066 56.793 137.598 57.1445C137.129 57.4883 136.566 57.7578 135.91 57.9531C135.262 58.1406 134.531 58.2344 133.719 58.2344C132.539 58.2344 131.539 58.0234 130.719 57.6016C129.906 57.1797 129.289 56.6445 128.867 55.9961C128.453 55.3398 128.246 54.668 128.246 53.9805H131.445C131.461 54.4414 131.578 54.8125 131.797 55.0938C132.023 55.375 132.309 55.5781 132.652 55.7031C133.004 55.8281 133.383 55.8906 133.789 55.8906C134.227 55.8906 134.59 55.832 134.879 55.7148C135.168 55.5898 135.387 55.4258 135.535 55.2227C135.691 55.0117 135.77 54.7695 135.77 54.4961ZM147.078 58.2344C146.094 58.2344 145.211 58.0781 144.43 57.7656C143.648 57.4453 142.984 57.0039 142.438 56.4414C141.898 55.8789 141.484 55.2266 141.195 54.4844C140.906 53.7344 140.762 52.9375 140.762 52.0938V51.625C140.762 50.6641 140.898 49.7852 141.172 48.9883C141.445 48.1914 141.836 47.5 142.344 46.9141C142.859 46.3281 143.484 45.8789 144.219 45.5664C144.953 45.2461 145.781 45.0859 146.703 45.0859C147.602 45.0859 148.398 45.2344 149.094 45.5312C149.789 45.8281 150.371 46.25 150.84 46.7969C151.316 47.3438 151.676 48 151.918 48.7656C152.16 49.5234 152.281 50.3672 152.281 51.2969V52.7031H142.203V50.4531H148.965V50.1953C148.965 49.7266 148.879 49.3086 148.707 48.9414C148.543 48.5664 148.293 48.2695 147.957 48.0508C147.621 47.832 147.191 47.7227 146.668 47.7227C146.223 47.7227 145.84 47.8203 145.52 48.0156C145.199 48.2109 144.938 48.4844 144.734 48.8359C144.539 49.1875 144.391 49.6016 144.289 50.0781C144.195 50.5469 144.148 51.0625 144.148 51.625V52.0938C144.148 52.6016 144.219 53.0703 144.359 53.5C144.508 53.9297 144.715 54.3008 144.98 54.6133C145.254 54.9258 145.582 55.168 145.965 55.3398C146.355 55.5117 146.797 55.5977 147.289 55.5977C147.898 55.5977 148.465 55.4805 148.988 55.2461C149.52 55.0039 149.977 54.6406 150.359 54.1562L152 55.9375C151.734 56.3203 151.371 56.6875 150.91 57.0391C150.457 57.3906 149.91 57.6797 149.27 57.9062C148.629 58.125 147.898 58.2344 147.078 58.2344ZM157.578 48.0859V58H154.203V45.3203H157.379L157.578 48.0859ZM161.398 45.2383L161.34 48.3672C161.176 48.3438 160.977 48.3242 160.742 48.3086C160.516 48.2852 160.309 48.2734 160.121 48.2734C159.645 48.2734 159.23 48.3359 158.879 48.4609C158.535 48.5781 158.246 48.7539 158.012 48.9883C157.785 49.2227 157.613 49.5078 157.496 49.8438C157.387 50.1797 157.324 50.5625 157.309 50.9922L156.629 50.7812C156.629 49.9609 156.711 49.207 156.875 48.5195C157.039 47.8242 157.277 47.2188 157.59 46.7031C157.91 46.1875 158.301 45.7891 158.762 45.5078C159.223 45.2266 159.75 45.0859 160.344 45.0859C160.531 45.0859 160.723 45.1016 160.918 45.1328C161.113 45.1562 161.273 45.1914 161.398 45.2383Z" fill="#888888"/>
<path d="M115.994 98.708V104.641H99.5806V98.708H115.994ZM102.151 86.0078V118H94.439V86.0078H102.151ZM121.18 86.0078V118H113.489V86.0078H121.18ZM124.805 106.354V105.893C124.805 104.15 125.054 102.546 125.552 101.081C126.05 99.6016 126.783 98.3198 127.75 97.2358C128.716 96.1519 129.91 95.3096 131.331 94.709C132.752 94.0938 134.393 93.7861 136.253 93.7861C138.128 93.7861 139.776 94.0938 141.197 94.709C142.632 95.3096 143.833 96.1519 144.8 97.2358C145.767 98.3198 146.5 99.6016 146.998 101.081C147.496 102.546 147.745 104.15 147.745 105.893V106.354C147.745 108.083 147.496 109.687 146.998 111.167C146.5 112.631 145.767 113.913 144.8 115.012C143.833 116.096 142.64 116.938 141.219 117.539C139.798 118.139 138.157 118.439 136.297 118.439C134.437 118.439 132.789 118.139 131.353 117.539C129.917 116.938 128.716 116.096 127.75 115.012C126.783 113.913 126.05 112.631 125.552 111.167C125.054 109.687 124.805 108.083 124.805 106.354ZM132.21 105.893V106.354C132.21 107.248 132.276 108.083 132.408 108.859C132.54 109.636 132.759 110.317 133.067 110.903C133.375 111.474 133.792 111.921 134.319 112.243C134.847 112.565 135.506 112.727 136.297 112.727C137.073 112.727 137.718 112.565 138.23 112.243C138.758 111.921 139.175 111.474 139.483 110.903C139.791 110.317 140.01 109.636 140.142 108.859C140.274 108.083 140.34 107.248 140.34 106.354V105.893C140.34 105.029 140.274 104.216 140.142 103.454C140.01 102.678 139.791 101.997 139.483 101.411C139.175 100.81 138.758 100.341 138.23 100.004C137.703 99.6675 137.044 99.499 136.253 99.499C135.477 99.499 134.825 99.6675 134.297 100.004C133.785 100.341 133.375 100.81 133.067 101.411C132.759 101.997 132.54 102.678 132.408 103.454C132.276 104.216 132.21 105.029 132.21 105.893ZM158.27 110.925L162.664 94.2256H167.3L165.652 102.597L161.302 118H157.588L158.27 110.925ZM156.534 94.2256L159.258 110.793L159.566 118H155.062L149.437 94.2256H156.534ZM171.211 110.441L173.958 94.2256H181.055L175.474 118H170.97L171.211 110.441ZM167.828 94.2256L172.266 110.881L172.947 118H169.19L164.927 102.641L163.345 94.2256H167.828ZM209.466 86.0078V118H201.753V86.0078H209.466ZM219.09 86.0078V91.9624H192.349V86.0078H219.09ZM216.475 106.354V105.893C216.475 104.15 216.724 102.546 217.222 101.081C217.72 99.6016 218.453 98.3198 219.419 97.2358C220.386 96.1519 221.58 95.3096 223.001 94.709C224.422 94.0938 226.062 93.7861 227.923 93.7861C229.798 93.7861 231.446 94.0938 232.867 94.709C234.302 95.3096 235.503 96.1519 236.47 97.2358C237.437 98.3198 238.169 99.6016 238.667 101.081C239.166 102.546 239.415 104.15 239.415 105.893V106.354C239.415 108.083 239.166 109.687 238.667 111.167C238.169 112.631 237.437 113.913 236.47 115.012C235.503 116.096 234.31 116.938 232.889 117.539C231.468 118.139 229.827 118.439 227.967 118.439C226.106 118.439 224.458 118.139 223.023 117.539C221.587 116.938 220.386 116.096 219.419 115.012C218.453 113.913 217.72 112.631 217.222 111.167C216.724 109.687 216.475 108.083 216.475 106.354ZM223.88 105.893V106.354C223.88 107.248 223.946 108.083 224.078 108.859C224.209 109.636 224.429 110.317 224.737 110.903C225.044 111.474 225.462 111.921 225.989 112.243C226.517 112.565 227.176 112.727 227.967 112.727C228.743 112.727 229.388 112.565 229.9 112.243C230.428 111.921 230.845 111.474 231.153 110.903C231.46 110.317 231.68 109.636 231.812 108.859C231.944 108.083 232.01 107.248 232.01 106.354V105.893C232.01 105.029 231.944 104.216 231.812 103.454C231.68 102.678 231.46 101.997 231.153 101.411C230.845 100.81 230.428 100.341 229.9 100.004C229.373 99.6675 228.714 99.499 227.923 99.499C227.146 99.499 226.495 99.6675 225.967 100.004C225.455 100.341 225.044 100.81 224.737 101.411C224.429 101.997 224.209 102.678 224.078 103.454C223.946 104.216 223.88 105.029 223.88 105.893ZM254.268 86.0078H266.858C269.319 86.0078 271.458 86.374 273.274 87.1064C275.091 87.8389 276.49 88.9229 277.471 90.3584C278.467 91.7939 278.965 93.5664 278.965 95.6758C278.965 97.5068 278.68 99.0376 278.108 100.268C277.537 101.499 276.739 102.517 275.713 103.322C274.703 104.113 273.523 104.765 272.176 105.278L269.649 106.706H259.08L259.036 100.751H266.858C267.84 100.751 268.653 100.576 269.297 100.224C269.942 99.8726 270.425 99.3745 270.748 98.73C271.084 98.0708 271.253 97.2871 271.253 96.3789C271.253 95.4561 271.084 94.665 270.748 94.0059C270.411 93.3467 269.913 92.8413 269.253 92.4897C268.609 92.1382 267.811 91.9624 266.858 91.9624H261.98V118H254.268V86.0078ZM271.78 118L264.705 103.85L272.879 103.806L280.042 117.67V118H271.78ZM297.159 112.221V94.2256H304.585V118H297.642L297.159 112.221ZM297.862 107.387L299.795 107.343C299.795 108.94 299.605 110.419 299.224 111.782C298.843 113.129 298.279 114.301 297.532 115.297C296.8 116.293 295.892 117.07 294.808 117.626C293.738 118.168 292.5 118.439 291.094 118.439C289.922 118.439 288.846 118.278 287.864 117.956C286.897 117.619 286.062 117.099 285.359 116.396C284.656 115.678 284.107 114.763 283.711 113.649C283.331 112.521 283.14 111.174 283.14 109.606V94.2256H290.545V109.65C290.545 110.178 290.611 110.632 290.743 111.013C290.875 111.394 291.065 111.716 291.314 111.979C291.563 112.229 291.871 112.419 292.237 112.551C292.618 112.668 293.05 112.727 293.533 112.727C294.646 112.727 295.518 112.492 296.148 112.023C296.778 111.555 297.217 110.917 297.466 110.112C297.73 109.306 297.862 108.398 297.862 107.387ZM315.945 99.3013V118H308.541V94.2256H315.484L315.945 99.3013ZM315.066 105.3L313.331 105.344C313.331 103.527 313.55 101.909 313.99 100.488C314.429 99.0522 315.052 97.8364 315.857 96.8403C316.663 95.8442 317.623 95.0898 318.736 94.5771C319.864 94.0498 321.116 93.7861 322.493 93.7861C323.592 93.7861 324.595 93.9473 325.503 94.2695C326.426 94.5918 327.217 95.1118 327.876 95.8296C328.55 96.5474 329.063 97.4995 329.415 98.686C329.781 99.8579 329.964 101.308 329.964 103.037V118H322.515V103.015C322.515 102.062 322.383 101.337 322.12 100.839C321.856 100.327 321.475 99.9751 320.977 99.7847C320.479 99.5942 319.871 99.499 319.153 99.499C318.392 99.499 317.747 99.6455 317.22 99.9385C316.692 100.231 316.268 100.642 315.945 101.169C315.638 101.682 315.411 102.29 315.264 102.993C315.132 103.696 315.066 104.465 315.066 105.3ZM345.85 107.871H339.544C339.544 106.582 339.632 105.446 339.808 104.465C339.998 103.469 340.32 102.575 340.774 101.784C341.229 100.993 341.844 100.261 342.62 99.5869C343.309 99.0156 343.902 98.4663 344.4 97.939C344.898 97.4116 345.279 96.877 345.542 96.335C345.806 95.793 345.938 95.2144 345.938 94.5991C345.938 93.8374 345.828 93.2148 345.608 92.7314C345.403 92.248 345.088 91.8892 344.664 91.6548C344.253 91.4058 343.733 91.2812 343.104 91.2812C342.591 91.2812 342.107 91.4058 341.653 91.6548C341.214 91.9038 340.855 92.292 340.577 92.8193C340.298 93.332 340.145 94.0132 340.115 94.8628H332.667C332.71 92.6802 333.194 90.9077 334.117 89.5454C335.054 88.1685 336.299 87.165 337.852 86.5352C339.419 85.8906 341.17 85.5684 343.104 85.5684C345.242 85.5684 347.081 85.8979 348.619 86.5571C350.157 87.2163 351.336 88.1978 352.156 89.5015C352.977 90.7905 353.387 92.3799 353.387 94.2695C353.387 95.5293 353.145 96.6279 352.662 97.5654C352.193 98.4883 351.556 99.3525 350.75 100.158C349.959 100.949 349.073 101.799 348.091 102.707C347.242 103.454 346.663 104.216 346.355 104.992C346.048 105.754 345.879 106.713 345.85 107.871ZM338.643 114.55C338.643 113.496 339.024 112.617 339.786 111.914C340.547 111.196 341.536 110.837 342.752 110.837C343.968 110.837 344.957 111.196 345.718 111.914C346.48 112.617 346.861 113.496 346.861 114.55C346.861 115.605 346.48 116.491 345.718 117.209C344.957 117.912 343.968 118.264 342.752 118.264C341.536 118.264 340.547 117.912 339.786 117.209C339.024 116.491 338.643 115.605 338.643 114.55Z" fill="#202020"/>
<path d="M1363 15C1363 6.71573 1356.28 0 1348 0H1134V167H1348C1356.28 167 1363 160.284 1363 152V15Z" fill="#011043"/>
<path d="M1260.77 81.3079C1263.96 81.3079 1267.09 82.2553 1269.74 84.0303C1272.4 85.8053 1274.47 88.3282 1275.69 91.2799C1276.92 94.2316 1277.24 97.4796 1276.61 100.613C1275.99 103.747 1274.45 106.625 1272.19 108.884C1269.93 111.143 1267.05 112.682 1263.92 113.305C1260.79 113.928 1257.54 113.608 1254.59 112.386C1251.64 111.163 1249.11 109.093 1247.34 106.436C1245.56 103.78 1244.62 100.657 1244.62 97.4617C1244.62 93.1774 1246.32 89.0686 1249.35 86.0392C1252.38 83.0098 1256.48 81.3079 1260.77 81.3079ZM1260.77 75.9233C1256.51 75.9233 1252.35 77.1865 1248.8 79.5532C1245.26 81.9198 1242.5 85.2837 1240.87 89.2193C1239.24 93.1549 1238.81 97.4856 1239.64 101.664C1240.48 105.842 1242.53 109.679 1245.54 112.692C1248.55 115.704 1252.39 117.755 1256.57 118.586C1260.75 119.417 1265.08 118.991 1269.01 117.361C1272.95 115.73 1276.31 112.97 1278.68 109.428C1281.04 105.886 1282.31 101.722 1282.31 97.4617C1282.31 91.7493 1280.04 86.271 1276 82.2317C1271.96 78.1925 1266.48 75.9233 1260.77 75.9233Z" fill="white"/>
<path d="M1274.23 49H1220.38C1218.96 49 1217.59 49.5673 1216.58 50.5771C1215.57 51.5869 1215 52.9565 1215 54.3846V108.231C1215 109.659 1215.57 111.028 1216.58 112.038C1217.59 113.048 1218.96 113.615 1220.38 113.615H1231.15V108.231H1220.38V70.5384H1279.62V54.3846C1279.62 52.9565 1279.05 51.5869 1278.04 50.5771C1277.03 49.5673 1275.66 49 1274.23 49ZM1220.38 65.1538V54.3846H1274.23V65.1538H1220.38Z" fill="white"/>
<path d="M1255.38 89.3849V105.539L1268.85 97.4618L1255.38 89.3849Z" fill="white"/>
</svg>
