<svg width="1363" height="167" viewBox="0 0 1363 167" fill="none" xmlns="http://www.w3.org/2000/svg">
<rect width="1363" height="167" rx="15" fill="#F0F0F0"/>
<path d="M0 15C0 6.71573 6.71573 0 15 0H37V167H15C6.71573 167 0 160.284 0 152V15Z" fill="#424241"/>
<path d="M103.414 52.3398H106.918C106.848 53.4883 106.531 54.5078 105.969 55.3984C105.414 56.2891 104.637 56.9844 103.637 57.4844C102.645 57.9844 101.449 58.2344 100.051 58.2344C98.957 58.2344 97.9766 58.0469 97.1094 57.6719C96.2422 57.2891 95.5 56.7422 94.8828 56.0312C94.2734 55.3203 93.8086 54.4609 93.4883 53.4531C93.168 52.4453 93.0078 51.3164 93.0078 50.0664V48.8828C93.0078 47.6328 93.1719 46.5039 93.5 45.4961C93.8359 44.4805 94.3125 43.6172 94.9297 42.9062C95.5547 42.1953 96.3008 41.6484 97.168 41.2656C98.0352 40.8828 99.0039 40.6914 100.074 40.6914C101.496 40.6914 102.695 40.9492 103.672 41.4648C104.656 41.9805 105.418 42.6914 105.957 43.5977C106.504 44.5039 106.832 45.5352 106.941 46.6914H103.426C103.387 46.0039 103.25 45.4219 103.016 44.9453C102.781 44.4609 102.426 44.0977 101.949 43.8555C101.48 43.6055 100.855 43.4805 100.074 43.4805C99.4883 43.4805 98.9766 43.5898 98.5391 43.8086C98.1016 44.0273 97.7344 44.3594 97.4375 44.8047C97.1406 45.25 96.918 45.8125 96.7695 46.4922C96.6289 47.1641 96.5586 47.9531 96.5586 48.8594V50.0664C96.5586 50.9492 96.625 51.7266 96.7578 52.3984C96.8906 53.0625 97.0938 53.625 97.3672 54.0859C97.6484 54.5391 98.0078 54.8828 98.4453 55.1172C98.8906 55.3438 99.4258 55.457 100.051 55.457C100.785 55.457 101.391 55.3398 101.867 55.1055C102.344 54.8711 102.707 54.5234 102.957 54.0625C103.215 53.6016 103.367 53.0273 103.414 52.3398ZM112.578 40V58H109.191V40H112.578ZM114.828 51.7891V51.543C114.828 50.6133 114.961 49.7578 115.227 48.9766C115.492 48.1875 115.879 47.5039 116.387 46.9258C116.895 46.3477 117.52 45.8984 118.262 45.5781C119.004 45.25 119.855 45.0859 120.816 45.0859C121.777 45.0859 122.633 45.25 123.383 45.5781C124.133 45.8984 124.762 46.3477 125.27 46.9258C125.785 47.5039 126.176 48.1875 126.441 48.9766C126.707 49.7578 126.84 50.6133 126.84 51.543V51.7891C126.84 52.7109 126.707 53.5664 126.441 54.3555C126.176 55.1367 125.785 55.8203 125.27 56.4062C124.762 56.9844 124.137 57.4336 123.395 57.7539C122.652 58.0742 121.801 58.2344 120.84 58.2344C119.879 58.2344 119.023 58.0742 118.273 57.7539C117.531 57.4336 116.902 56.9844 116.387 56.4062C115.879 55.8203 115.492 55.1367 115.227 54.3555C114.961 53.5664 114.828 52.7109 114.828 51.7891ZM118.203 51.543V51.7891C118.203 52.3203 118.25 52.8164 118.344 53.2773C118.438 53.7383 118.586 54.1445 118.789 54.4961C119 54.8398 119.273 55.1094 119.609 55.3047C119.945 55.5 120.355 55.5977 120.84 55.5977C121.309 55.5977 121.711 55.5 122.047 55.3047C122.383 55.1094 122.652 54.8398 122.855 54.4961C123.059 54.1445 123.207 53.7383 123.301 53.2773C123.402 52.8164 123.453 52.3203 123.453 51.7891V51.543C123.453 51.0273 123.402 50.543 123.301 50.0898C123.207 49.6289 123.055 49.2227 122.844 48.8711C122.641 48.5117 122.371 48.2305 122.035 48.0273C121.699 47.8242 121.293 47.7227 120.816 47.7227C120.34 47.7227 119.934 47.8242 119.598 48.0273C119.27 48.2305 119 48.5117 118.789 48.8711C118.586 49.2227 118.438 49.6289 118.344 50.0898C118.25 50.543 118.203 51.0273 118.203 51.543ZM135.77 54.4961C135.77 54.2539 135.699 54.0352 135.559 53.8398C135.418 53.6445 135.156 53.4648 134.773 53.3008C134.398 53.1289 133.855 52.9727 133.145 52.832C132.504 52.6914 131.906 52.5156 131.352 52.3047C130.805 52.0859 130.328 51.8242 129.922 51.5195C129.523 51.2148 129.211 50.8555 128.984 50.4414C128.758 50.0195 128.645 49.5391 128.645 49C128.645 48.4688 128.758 47.9688 128.984 47.5C129.219 47.0312 129.551 46.6172 129.98 46.2578C130.418 45.8906 130.949 45.6055 131.574 45.4023C132.207 45.1914 132.918 45.0859 133.707 45.0859C134.809 45.0859 135.754 45.2617 136.543 45.6133C137.34 45.9648 137.949 46.4492 138.371 47.0664C138.801 47.6758 139.016 48.3711 139.016 49.1523H135.641C135.641 48.8242 135.57 48.5312 135.43 48.2734C135.297 48.0078 135.086 47.8008 134.797 47.6523C134.516 47.4961 134.148 47.418 133.695 47.418C133.32 47.418 132.996 47.4844 132.723 47.6172C132.449 47.7422 132.238 47.9141 132.09 48.1328C131.949 48.3438 131.879 48.5781 131.879 48.8359C131.879 49.0312 131.918 49.207 131.996 49.3633C132.082 49.5117 132.219 49.6484 132.406 49.7734C132.594 49.8984 132.836 50.0156 133.133 50.125C133.438 50.2266 133.812 50.3203 134.258 50.4062C135.172 50.5938 135.988 50.8398 136.707 51.1445C137.426 51.4414 137.996 51.8477 138.418 52.3633C138.84 52.8711 139.051 53.5391 139.051 54.3672C139.051 54.9297 138.926 55.4453 138.676 55.9141C138.426 56.3828 138.066 56.793 137.598 57.1445C137.129 57.4883 136.566 57.7578 135.91 57.9531C135.262 58.1406 134.531 58.2344 133.719 58.2344C132.539 58.2344 131.539 58.0234 130.719 57.6016C129.906 57.1797 129.289 56.6445 128.867 55.9961C128.453 55.3398 128.246 54.668 128.246 53.9805H131.445C131.461 54.4414 131.578 54.8125 131.797 55.0938C132.023 55.375 132.309 55.5781 132.652 55.7031C133.004 55.8281 133.383 55.8906 133.789 55.8906C134.227 55.8906 134.59 55.832 134.879 55.7148C135.168 55.5898 135.387 55.4258 135.535 55.2227C135.691 55.0117 135.77 54.7695 135.77 54.4961ZM147.078 58.2344C146.094 58.2344 145.211 58.0781 144.43 57.7656C143.648 57.4453 142.984 57.0039 142.438 56.4414C141.898 55.8789 141.484 55.2266 141.195 54.4844C140.906 53.7344 140.762 52.9375 140.762 52.0938V51.625C140.762 50.6641 140.898 49.7852 141.172 48.9883C141.445 48.1914 141.836 47.5 142.344 46.9141C142.859 46.3281 143.484 45.8789 144.219 45.5664C144.953 45.2461 145.781 45.0859 146.703 45.0859C147.602 45.0859 148.398 45.2344 149.094 45.5312C149.789 45.8281 150.371 46.25 150.84 46.7969C151.316 47.3438 151.676 48 151.918 48.7656C152.16 49.5234 152.281 50.3672 152.281 51.2969V52.7031H142.203V50.4531H148.965V50.1953C148.965 49.7266 148.879 49.3086 148.707 48.9414C148.543 48.5664 148.293 48.2695 147.957 48.0508C147.621 47.832 147.191 47.7227 146.668 47.7227C146.223 47.7227 145.84 47.8203 145.52 48.0156C145.199 48.2109 144.938 48.4844 144.734 48.8359C144.539 49.1875 144.391 49.6016 144.289 50.0781C144.195 50.5469 144.148 51.0625 144.148 51.625V52.0938C144.148 52.6016 144.219 53.0703 144.359 53.5C144.508 53.9297 144.715 54.3008 144.98 54.6133C145.254 54.9258 145.582 55.168 145.965 55.3398C146.355 55.5117 146.797 55.5977 147.289 55.5977C147.898 55.5977 148.465 55.4805 148.988 55.2461C149.52 55.0039 149.977 54.6406 150.359 54.1562L152 55.9375C151.734 56.3203 151.371 56.6875 150.91 57.0391C150.457 57.3906 149.91 57.6797 149.27 57.9062C148.629 58.125 147.898 58.2344 147.078 58.2344ZM157.578 48.0859V58H154.203V45.3203H157.379L157.578 48.0859ZM161.398 45.2383L161.34 48.3672C161.176 48.3438 160.977 48.3242 160.742 48.3086C160.516 48.2852 160.309 48.2734 160.121 48.2734C159.645 48.2734 159.23 48.3359 158.879 48.4609C158.535 48.5781 158.246 48.7539 158.012 48.9883C157.785 49.2227 157.613 49.5078 157.496 49.8438C157.387 50.1797 157.324 50.5625 157.309 50.9922L156.629 50.7812C156.629 49.9609 156.711 49.207 156.875 48.5195C157.039 47.8242 157.277 47.2188 157.59 46.7031C157.91 46.1875 158.301 45.7891 158.762 45.5078C159.223 45.2266 159.75 45.0859 160.344 45.0859C160.531 45.0859 160.723 45.1016 160.918 45.1328C161.113 45.1562 161.273 45.1914 161.398 45.2383Z" fill="#888888"/>
<path d="M101.822 115.1L108.194 86.0078H111.995L114.061 88.4907L107.271 118H103.074L101.822 115.1ZM100.13 86.0078L105.513 115.319L104.129 118H99.2729L92.4834 86.0078H100.13ZM117.554 115.166L122.894 86.0078H130.518L123.729 118H118.895L117.554 115.166ZM114.742 86.0078L121.268 115.275L119.949 118H115.752L108.809 88.4468L110.962 86.0078H114.742ZM141.021 94.2256V118H133.594V94.2256H141.021ZM133.155 88.0952C133.155 87.0405 133.536 86.1763 134.297 85.5024C135.059 84.8286 136.048 84.4917 137.264 84.4917C138.479 84.4917 139.468 84.8286 140.23 85.5024C140.992 86.1763 141.373 87.0405 141.373 88.0952C141.373 89.1499 140.992 90.0142 140.23 90.688C139.468 91.3618 138.479 91.6987 137.264 91.6987C136.048 91.6987 135.059 91.3618 134.297 90.688C133.536 90.0142 133.155 89.1499 133.155 88.0952ZM153.062 100.114V118H145.657V94.2256H152.579L153.062 100.114ZM160.093 94.0498L159.961 100.927C159.668 100.898 159.273 100.861 158.775 100.817C158.277 100.773 157.859 100.751 157.522 100.751C156.658 100.751 155.911 100.854 155.281 101.059C154.666 101.25 154.153 101.542 153.743 101.938C153.348 102.319 153.055 102.802 152.864 103.388C152.688 103.974 152.608 104.655 152.623 105.432L151.282 104.553C151.282 102.956 151.436 101.506 151.744 100.202C152.066 98.8838 152.52 97.7485 153.106 96.7964C153.692 95.8296 154.402 95.0898 155.237 94.5771C156.072 94.0498 157.01 93.7861 158.05 93.7861C158.416 93.7861 158.775 93.8081 159.126 93.8521C159.493 93.896 159.815 93.9619 160.093 94.0498ZM173.716 118.439C171.783 118.439 170.054 118.139 168.531 117.539C167.007 116.923 165.718 116.081 164.664 115.012C163.624 113.942 162.825 112.712 162.269 111.32C161.727 109.929 161.456 108.457 161.456 106.904V106.069C161.456 104.326 161.697 102.714 162.181 101.235C162.664 99.7407 163.382 98.437 164.334 97.3237C165.286 96.2104 166.48 95.3462 167.916 94.731C169.351 94.1011 171.021 93.7861 172.925 93.7861C174.61 93.7861 176.119 94.0571 177.452 94.5991C178.785 95.1411 179.913 95.9175 180.835 96.9282C181.773 97.939 182.483 99.1621 182.967 100.598C183.465 102.033 183.714 103.645 183.714 105.432V108.442H164.29V103.806H176.485V103.234C176.5 102.443 176.36 101.77 176.067 101.213C175.789 100.656 175.379 100.231 174.837 99.9385C174.295 99.6455 173.636 99.499 172.859 99.499C172.054 99.499 171.387 99.6748 170.86 100.026C170.347 100.378 169.944 100.861 169.651 101.477C169.373 102.077 169.175 102.773 169.058 103.564C168.941 104.355 168.882 105.19 168.882 106.069V106.904C168.882 107.783 169 108.581 169.234 109.299C169.483 110.017 169.834 110.632 170.289 111.145C170.757 111.643 171.314 112.031 171.958 112.309C172.618 112.587 173.365 112.727 174.2 112.727C175.21 112.727 176.207 112.536 177.188 112.155C178.169 111.774 179.012 111.145 179.715 110.266L183.077 114.265C182.593 114.953 181.905 115.62 181.011 116.264C180.132 116.909 179.078 117.436 177.847 117.846C176.617 118.242 175.24 118.439 173.716 118.439ZM195.799 118H188.35V92.292C188.35 90.4463 188.724 88.8936 189.471 87.6338C190.218 86.374 191.272 85.4219 192.635 84.7773C193.997 84.1182 195.608 83.7886 197.469 83.7886C198.113 83.7886 198.721 83.8325 199.292 83.9204C199.864 84.0083 200.42 84.1182 200.962 84.25L200.984 89.6992C200.721 89.626 200.45 89.5747 200.171 89.5454C199.893 89.5161 199.549 89.5015 199.139 89.5015C198.421 89.5015 197.813 89.6113 197.315 89.8311C196.817 90.0361 196.436 90.3511 196.172 90.7759C195.923 91.186 195.799 91.6914 195.799 92.292V118ZM200.413 94.2256V99.3672H184.922V94.2256H200.413ZM210.542 100.114V118H203.138V94.2256H210.059L210.542 100.114ZM217.574 94.0498L217.442 100.927C217.149 100.898 216.753 100.861 216.255 100.817C215.757 100.773 215.34 100.751 215.003 100.751C214.139 100.751 213.392 100.854 212.762 101.059C212.146 101.25 211.634 101.542 211.224 101.938C210.828 102.319 210.535 102.802 210.345 103.388C210.169 103.974 210.088 104.655 210.103 105.432L208.763 104.553C208.763 102.956 208.917 101.506 209.224 100.202C209.546 98.8838 210 97.7485 210.586 96.7964C211.172 95.8296 211.883 95.0898 212.718 94.5771C213.553 94.0498 214.49 93.7861 215.53 93.7861C215.896 93.7861 216.255 93.8081 216.607 93.8521C216.973 93.896 217.295 93.9619 217.574 94.0498ZM231.812 112.023V102.224C231.812 101.55 231.717 100.971 231.526 100.488C231.336 100.004 231.036 99.6309 230.625 99.3672C230.215 99.0889 229.666 98.9497 228.978 98.9497C228.421 98.9497 227.945 99.0449 227.549 99.2354C227.154 99.4258 226.854 99.7114 226.648 100.092C226.443 100.473 226.341 100.957 226.341 101.542H218.936C218.936 100.444 219.178 99.4258 219.661 98.4883C220.159 97.5361 220.862 96.7085 221.771 96.0054C222.693 95.3022 223.792 94.7603 225.066 94.3794C226.355 93.9839 227.791 93.7861 229.373 93.7861C231.263 93.7861 232.947 94.1011 234.427 94.731C235.921 95.3608 237.1 96.3057 237.964 97.5654C238.829 98.8105 239.261 100.378 239.261 102.268V112.001C239.261 113.554 239.349 114.733 239.524 115.539C239.7 116.33 239.949 117.026 240.271 117.626V118H232.845C232.493 117.268 232.229 116.374 232.054 115.319C231.893 114.25 231.812 113.151 231.812 112.023ZM232.713 103.476L232.757 107.431H229.483C228.794 107.431 228.208 107.526 227.725 107.717C227.256 107.907 226.875 108.171 226.583 108.508C226.304 108.83 226.099 109.196 225.967 109.606C225.85 110.017 225.792 110.449 225.792 110.903C225.792 111.342 225.894 111.738 226.099 112.089C226.319 112.426 226.612 112.69 226.978 112.88C227.344 113.071 227.754 113.166 228.208 113.166C229.029 113.166 229.725 113.012 230.296 112.705C230.882 112.382 231.329 111.994 231.636 111.54C231.944 111.086 232.098 110.661 232.098 110.266L233.724 113.298C233.431 113.884 233.094 114.477 232.713 115.078C232.347 115.678 231.885 116.235 231.329 116.748C230.787 117.246 230.12 117.656 229.329 117.978C228.538 118.286 227.579 118.439 226.451 118.439C224.986 118.439 223.638 118.139 222.408 117.539C221.192 116.938 220.218 116.103 219.485 115.034C218.753 113.95 218.387 112.705 218.387 111.298C218.387 110.068 218.606 108.969 219.046 108.002C219.5 107.036 220.181 106.215 221.089 105.542C221.998 104.868 223.155 104.355 224.561 104.003C225.967 103.652 227.623 103.476 229.527 103.476H232.713ZM250.84 99.2573V118H243.436V94.2256H250.379L250.84 99.2573ZM249.939 105.3L248.248 105.344C248.248 103.674 248.445 102.136 248.841 100.729C249.236 99.3232 249.822 98.1001 250.599 97.0601C251.375 96.02 252.327 95.2144 253.455 94.6431C254.598 94.0718 255.916 93.7861 257.41 93.7861C258.45 93.7861 259.395 93.9473 260.245 94.2695C261.094 94.5771 261.827 95.0679 262.442 95.7417C263.057 96.4009 263.526 97.2651 263.848 98.3345C264.185 99.3892 264.354 100.656 264.354 102.136V118H256.949V103.081C256.949 102.07 256.832 101.308 256.597 100.795C256.377 100.283 256.055 99.9385 255.63 99.7627C255.206 99.5869 254.686 99.499 254.07 99.499C253.426 99.499 252.847 99.6455 252.334 99.9385C251.822 100.231 251.382 100.642 251.016 101.169C250.665 101.682 250.394 102.29 250.203 102.993C250.027 103.696 249.939 104.465 249.939 105.3ZM263.519 105.3L261.453 105.344C261.453 103.674 261.636 102.136 262.002 100.729C262.383 99.3232 262.947 98.1001 263.694 97.0601C264.456 96.02 265.401 95.2144 266.529 94.6431C267.657 94.0718 268.968 93.7861 270.462 93.7861C271.546 93.7861 272.542 93.9473 273.45 94.2695C274.358 94.5918 275.142 95.1118 275.801 95.8296C276.46 96.5474 276.973 97.4995 277.339 98.686C277.706 99.8579 277.889 101.308 277.889 103.037V118H270.462V103.037C270.462 102.055 270.345 101.315 270.11 100.817C269.891 100.305 269.568 99.9604 269.144 99.7847C268.719 99.5942 268.213 99.499 267.627 99.499C266.924 99.499 266.316 99.6455 265.804 99.9385C265.291 100.231 264.859 100.642 264.507 101.169C264.17 101.682 263.921 102.29 263.76 102.993C263.599 103.696 263.519 104.465 263.519 105.3ZM293.643 118.439C291.709 118.439 289.981 118.139 288.458 117.539C286.934 116.923 285.645 116.081 284.59 115.012C283.55 113.942 282.752 112.712 282.195 111.32C281.653 109.929 281.382 108.457 281.382 106.904V106.069C281.382 104.326 281.624 102.714 282.107 101.235C282.591 99.7407 283.309 98.437 284.261 97.3237C285.213 96.2104 286.407 95.3462 287.842 94.731C289.278 94.1011 290.948 93.7861 292.852 93.7861C294.537 93.7861 296.045 94.0571 297.378 94.5991C298.711 95.1411 299.839 95.9175 300.762 96.9282C301.7 97.939 302.41 99.1621 302.894 100.598C303.392 102.033 303.641 103.645 303.641 105.432V108.442H284.217V103.806H296.412V103.234C296.426 102.443 296.287 101.77 295.994 101.213C295.716 100.656 295.306 100.231 294.764 99.9385C294.222 99.6455 293.562 99.499 292.786 99.499C291.98 99.499 291.314 99.6748 290.787 100.026C290.274 100.378 289.871 100.861 289.578 101.477C289.3 102.077 289.102 102.773 288.985 103.564C288.868 104.355 288.809 105.19 288.809 106.069V106.904C288.809 107.783 288.926 108.581 289.161 109.299C289.41 110.017 289.761 110.632 290.215 111.145C290.684 111.643 291.241 112.031 291.885 112.309C292.544 112.587 293.292 112.727 294.126 112.727C295.137 112.727 296.133 112.536 297.115 112.155C298.096 111.774 298.938 111.145 299.642 110.266L303.003 114.265C302.52 114.953 301.832 115.62 300.938 116.264C300.059 116.909 299.004 117.436 297.774 117.846C296.543 118.242 295.167 118.439 293.643 118.439ZM319.109 111.32C319.109 110.91 318.97 110.559 318.692 110.266C318.428 109.958 317.959 109.68 317.286 109.431C316.612 109.167 315.667 108.903 314.451 108.64C313.294 108.391 312.203 108.061 311.177 107.651C310.167 107.241 309.28 106.743 308.519 106.157C307.757 105.571 307.156 104.875 306.717 104.069C306.292 103.264 306.08 102.341 306.08 101.301C306.08 100.29 306.292 99.3379 306.717 98.4443C307.156 97.5361 307.793 96.7378 308.628 96.0493C309.478 95.3462 310.511 94.7969 311.727 94.4014C312.942 93.9912 314.327 93.7861 315.879 93.7861C318.018 93.7861 319.864 94.1157 321.417 94.7749C322.969 95.4194 324.163 96.3276 324.998 97.4995C325.848 98.6567 326.272 99.9971 326.272 101.521H318.868C318.868 100.92 318.765 100.407 318.56 99.9824C318.37 99.5576 318.055 99.2354 317.615 99.0156C317.176 98.7812 316.59 98.6641 315.857 98.6641C315.345 98.6641 314.876 98.7593 314.451 98.9497C314.041 99.1401 313.711 99.4038 313.462 99.7407C313.213 100.078 313.089 100.473 313.089 100.927C313.089 101.25 313.162 101.542 313.309 101.806C313.47 102.055 313.711 102.29 314.034 102.509C314.356 102.714 314.766 102.905 315.264 103.081C315.762 103.242 316.363 103.388 317.066 103.52C318.663 103.813 320.157 104.23 321.548 104.772C322.94 105.314 324.068 106.083 324.932 107.08C325.811 108.076 326.25 109.416 326.25 111.101C326.25 112.155 326.009 113.129 325.525 114.023C325.042 114.902 324.346 115.678 323.438 116.352C322.53 117.011 321.438 117.524 320.164 117.89C318.89 118.256 317.454 118.439 315.857 118.439C313.587 118.439 311.668 118.037 310.101 117.231C308.533 116.411 307.347 115.385 306.541 114.155C305.75 112.91 305.354 111.65 305.354 110.375H312.254C312.283 111.108 312.459 111.708 312.781 112.177C313.118 112.646 313.565 112.99 314.122 113.21C314.678 113.43 315.323 113.54 316.055 113.54C316.729 113.54 317.286 113.444 317.725 113.254C318.179 113.063 318.523 112.807 318.758 112.485C318.992 112.148 319.109 111.76 319.109 111.32Z" fill="#202020"/>
<path d="M1363 15C1363 6.71573 1356.28 0 1348 0H1134V167H1348C1356.28 167 1363 160.284 1363 152V15Z" fill="#011043"/>
<path fill-rule="evenodd" clip-rule="evenodd" d="M1203 49C1203 47.8954 1203.9 47 1205 47H1292.5C1293.6 47 1294.5 47.8954 1294.5 49V118.996C1294.5 120.101 1293.6 120.996 1292.5 120.996H1205C1203.9 120.996 1203 120.101 1203 118.996V49ZM1207 51V55.4945H1290.5V51H1207ZM1290.5 59.4945H1235.44V116.996H1290.5V59.4945ZM1231.44 116.996V59.4945H1207V116.996H1231.44Z" fill="white"/>
<path fill-rule="evenodd" clip-rule="evenodd" d="M1209.97 64.8004C1209.97 63.6958 1210.87 62.8004 1211.97 62.8004H1225.97C1227.08 62.8004 1227.97 63.6958 1227.97 64.8004V84.1956C1227.97 85.3001 1227.08 86.1956 1225.97 86.1956H1211.97C1210.87 86.1956 1209.97 85.3001 1209.97 84.1956V64.8004ZM1213.97 66.8004V82.1956H1223.97V66.8004H1213.97ZM1239.58 65.6964C1239.58 64.5918 1240.47 63.6964 1241.58 63.6964H1284.5C1285.61 63.6964 1286.5 64.5918 1286.5 65.6964V111.905C1286.5 113.01 1285.61 113.905 1284.5 113.905H1241.58C1240.47 113.905 1239.58 113.01 1239.58 111.905V65.6964ZM1243.58 67.6964V109.905H1282.5V67.6964H1243.58ZM1209.81 95.9363C1209.81 94.8317 1210.71 93.9363 1211.81 93.9363H1220.73C1221.84 93.9363 1222.73 94.8317 1222.73 95.9363C1222.73 97.0409 1221.84 97.9363 1220.73 97.9363H1211.81C1210.71 97.9363 1209.81 97.0409 1209.81 95.9363ZM1209.81 102.936C1209.81 101.832 1210.71 100.936 1211.81 100.936H1226.35C1227.46 100.936 1228.35 101.832 1228.35 102.936C1228.35 104.041 1227.46 104.936 1226.35 104.936H1211.81C1210.71 104.936 1209.81 104.041 1209.81 102.936ZM1209.81 109.936C1209.81 108.832 1210.71 107.936 1211.81 107.936H1220.73C1221.84 107.936 1222.73 108.832 1222.73 109.936C1222.73 111.041 1221.84 111.936 1220.73 111.936H1211.81C1210.71 111.936 1209.81 111.041 1209.81 109.936Z" fill="white"/>
</svg>
