<svg width="1363" height="167" viewBox="0 0 1363 167" fill="none" xmlns="http://www.w3.org/2000/svg">
<rect width="1363" height="167" rx="15" fill="#F0F0F0"/>
<path d="M0 15C0 6.71573 6.71573 0 15 0H37V167H15C6.71573 167 0 160.284 0 152V15Z" fill="#424241"/>
<path d="M100.906 54.9219L93.3945 52.2383V49.0859L103.602 53.375V55.6367L100.906 54.9219ZM93.3945 57.1719L100.918 54.4297L103.602 53.7852V56.0352L93.3945 60.3242V57.1719ZM118.543 55.918H114.195V53.1758H118.543C119.215 53.1758 119.762 53.0664 120.184 52.8477C120.605 52.6211 120.914 52.3086 121.109 51.9102C121.305 51.5117 121.402 51.0625 121.402 50.5625C121.402 50.0547 121.305 49.582 121.109 49.1445C120.914 48.707 120.605 48.3555 120.184 48.0898C119.762 47.8242 119.215 47.6914 118.543 47.6914H115.414V62H111.898V44.9375H118.543C119.879 44.9375 121.023 45.1797 121.977 45.6641C122.938 46.1406 123.672 46.8008 124.18 47.6445C124.688 48.4883 124.941 49.4531 124.941 50.5391C124.941 51.6406 124.688 52.5938 124.18 53.3984C123.672 54.2031 122.938 54.8242 121.977 55.2617C121.023 55.6992 119.879 55.918 118.543 55.918ZM130.531 52.0859V62H127.156V49.3203H130.332L130.531 52.0859ZM134.352 49.2383L134.293 52.3672C134.129 52.3438 133.93 52.3242 133.695 52.3086C133.469 52.2852 133.262 52.2734 133.074 52.2734C132.598 52.2734 132.184 52.3359 131.832 52.4609C131.488 52.5781 131.199 52.7539 130.965 52.9883C130.738 53.2227 130.566 53.5078 130.449 53.8438C130.34 54.1797 130.277 54.5625 130.262 54.9922L129.582 54.7812C129.582 53.9609 129.664 53.207 129.828 52.5195C129.992 51.8242 130.23 51.2188 130.543 50.7031C130.863 50.1875 131.254 49.7891 131.715 49.5078C132.176 49.2266 132.703 49.0859 133.297 49.0859C133.484 49.0859 133.676 49.1016 133.871 49.1328C134.066 49.1562 134.227 49.1914 134.352 49.2383ZM135.055 55.7891V55.543C135.055 54.6133 135.188 53.7578 135.453 52.9766C135.719 52.1875 136.105 51.5039 136.613 50.9258C137.121 50.3477 137.746 49.8984 138.488 49.5781C139.23 49.25 140.082 49.0859 141.043 49.0859C142.004 49.0859 142.859 49.25 143.609 49.5781C144.359 49.8984 144.988 50.3477 145.496 50.9258C146.012 51.5039 146.402 52.1875 146.668 52.9766C146.934 53.7578 147.066 54.6133 147.066 55.543V55.7891C147.066 56.7109 146.934 57.5664 146.668 58.3555C146.402 59.1367 146.012 59.8203 145.496 60.4062C144.988 60.9844 144.363 61.4336 143.621 61.7539C142.879 62.0742 142.027 62.2344 141.066 62.2344C140.105 62.2344 139.25 62.0742 138.5 61.7539C137.758 61.4336 137.129 60.9844 136.613 60.4062C136.105 59.8203 135.719 59.1367 135.453 58.3555C135.188 57.5664 135.055 56.7109 135.055 55.7891ZM138.43 55.543V55.7891C138.43 56.3203 138.477 56.8164 138.57 57.2773C138.664 57.7383 138.812 58.1445 139.016 58.4961C139.227 58.8398 139.5 59.1094 139.836 59.3047C140.172 59.5 140.582 59.5977 141.066 59.5977C141.535 59.5977 141.938 59.5 142.273 59.3047C142.609 59.1094 142.879 58.8398 143.082 58.4961C143.285 58.1445 143.434 57.7383 143.527 57.2773C143.629 56.8164 143.68 56.3203 143.68 55.7891V55.543C143.68 55.0273 143.629 54.543 143.527 54.0898C143.434 53.6289 143.281 53.2227 143.07 52.8711C142.867 52.5117 142.598 52.2305 142.262 52.0273C141.926 51.8242 141.52 51.7227 141.043 51.7227C140.566 51.7227 140.16 51.8242 139.824 52.0273C139.496 52.2305 139.227 52.5117 139.016 52.8711C138.812 53.2227 138.664 53.6289 138.57 54.0898C138.477 54.543 138.43 55.0273 138.43 55.543ZM149.328 49.3203H152.715V62.7617C152.715 63.6992 152.543 64.4922 152.199 65.1406C151.855 65.7891 151.359 66.2812 150.711 66.6172C150.062 66.9531 149.277 67.1211 148.355 67.1211C148.066 67.1211 147.785 67.1055 147.512 67.0742C147.23 67.043 146.941 66.9922 146.645 66.9219L146.656 64.332C146.844 64.3633 147.027 64.3867 147.207 64.4023C147.379 64.4258 147.555 64.4375 147.734 64.4375C148.086 64.4375 148.379 64.3789 148.613 64.2617C148.848 64.1445 149.023 63.9609 149.141 63.7109C149.266 63.4688 149.328 63.1523 149.328 62.7617V49.3203ZM149.059 46.0156C149.059 45.5234 149.23 45.1172 149.574 44.7969C149.926 44.4766 150.387 44.3164 150.957 44.3164C151.535 44.3164 151.996 44.4766 152.34 44.7969C152.684 45.1172 152.855 45.5234 152.855 46.0156C152.855 46.5078 152.684 46.9141 152.34 47.2344C151.996 47.5547 151.535 47.7148 150.957 47.7148C150.387 47.7148 149.926 47.5547 149.574 47.2344C149.23 46.9141 149.059 46.5078 149.059 46.0156ZM161.234 62.2344C160.25 62.2344 159.367 62.0781 158.586 61.7656C157.805 61.4453 157.141 61.0039 156.594 60.4414C156.055 59.8789 155.641 59.2266 155.352 58.4844C155.062 57.7344 154.918 56.9375 154.918 56.0938V55.625C154.918 54.6641 155.055 53.7852 155.328 52.9883C155.602 52.1914 155.992 51.5 156.5 50.9141C157.016 50.3281 157.641 49.8789 158.375 49.5664C159.109 49.2461 159.938 49.0859 160.859 49.0859C161.758 49.0859 162.555 49.2344 163.25 49.5312C163.945 49.8281 164.527 50.25 164.996 50.7969C165.473 51.3438 165.832 52 166.074 52.7656C166.316 53.5234 166.438 54.3672 166.438 55.2969V56.7031H156.359V54.4531H163.121V54.1953C163.121 53.7266 163.035 53.3086 162.863 52.9414C162.699 52.5664 162.449 52.2695 162.113 52.0508C161.777 51.832 161.348 51.7227 160.824 51.7227C160.379 51.7227 159.996 51.8203 159.676 52.0156C159.355 52.2109 159.094 52.4844 158.891 52.8359C158.695 53.1875 158.547 53.6016 158.445 54.0781C158.352 54.5469 158.305 55.0625 158.305 55.625V56.0938C158.305 56.6016 158.375 57.0703 158.516 57.5C158.664 57.9297 158.871 58.3008 159.137 58.6133C159.41 58.9258 159.738 59.168 160.121 59.3398C160.512 59.5117 160.953 59.5977 161.445 59.5977C162.055 59.5977 162.621 59.4805 163.145 59.2461C163.676 59.0039 164.133 58.6406 164.516 58.1562L166.156 59.9375C165.891 60.3203 165.527 60.6875 165.066 61.0391C164.613 61.3906 164.066 61.6797 163.426 61.9062C162.785 62.125 162.055 62.2344 161.234 62.2344ZM173.598 59.5977C174.012 59.5977 174.379 59.5195 174.699 59.3633C175.02 59.1992 175.27 58.9727 175.449 58.6836C175.637 58.3867 175.734 58.0391 175.742 57.6406H178.918C178.91 58.5312 178.672 59.3242 178.203 60.0195C177.734 60.707 177.105 61.25 176.316 61.6484C175.527 62.0391 174.645 62.2344 173.668 62.2344C172.684 62.2344 171.824 62.0703 171.09 61.7422C170.363 61.4141 169.758 60.9609 169.273 60.3828C168.789 59.7969 168.426 59.1172 168.184 58.3438C167.941 57.5625 167.82 56.7266 167.82 55.8359V55.4961C167.82 54.5977 167.941 53.7617 168.184 52.9883C168.426 52.207 168.789 51.5273 169.273 50.9492C169.758 50.3633 170.363 49.9062 171.09 49.5781C171.816 49.25 172.668 49.0859 173.645 49.0859C174.684 49.0859 175.594 49.2852 176.375 49.6836C177.164 50.082 177.781 50.6523 178.227 51.3945C178.68 52.1289 178.91 53 178.918 54.0078H175.742C175.734 53.5859 175.645 53.2031 175.473 52.8594C175.309 52.5156 175.066 52.2422 174.746 52.0391C174.434 51.8281 174.047 51.7227 173.586 51.7227C173.094 51.7227 172.691 51.8281 172.379 52.0391C172.066 52.2422 171.824 52.5234 171.652 52.8828C171.48 53.2344 171.359 53.6367 171.289 54.0898C171.227 54.5352 171.195 55.0039 171.195 55.4961V55.8359C171.195 56.3281 171.227 56.8008 171.289 57.2539C171.352 57.707 171.469 58.1094 171.641 58.4609C171.82 58.8125 172.066 59.0898 172.379 59.293C172.691 59.4961 173.098 59.5977 173.598 59.5977ZM187.086 49.3203V51.7109H179.703V49.3203H187.086ZM181.531 46.1914H184.906V58.1797C184.906 58.5469 184.953 58.8281 185.047 59.0234C185.148 59.2188 185.297 59.3555 185.492 59.4336C185.688 59.5039 185.934 59.5391 186.23 59.5391C186.441 59.5391 186.629 59.5312 186.793 59.5156C186.965 59.4922 187.109 59.4688 187.227 59.4453L187.238 61.9297C186.949 62.0234 186.637 62.0977 186.301 62.1523C185.965 62.207 185.594 62.2344 185.188 62.2344C184.445 62.2344 183.797 62.1133 183.242 61.8711C182.695 61.6211 182.273 61.2227 181.977 60.6758C181.68 60.1289 181.531 59.4102 181.531 58.5195V46.1914ZM209.082 44.9375V62H205.566L198.711 50.5625V62H195.195V44.9375H198.711L205.578 56.3867V44.9375H209.082ZM218.773 59.1406V53.4922C218.773 53.0859 218.707 52.7383 218.574 52.4492C218.441 52.1523 218.234 51.9219 217.953 51.7578C217.68 51.5938 217.324 51.5117 216.887 51.5117C216.512 51.5117 216.188 51.5781 215.914 51.7109C215.641 51.8359 215.43 52.0195 215.281 52.2617C215.133 52.4961 215.059 52.7734 215.059 53.0938H211.684C211.684 52.5547 211.809 52.043 212.059 51.5586C212.309 51.0742 212.672 50.6484 213.148 50.2812C213.625 49.9062 214.191 49.6133 214.848 49.4023C215.512 49.1914 216.254 49.0859 217.074 49.0859C218.059 49.0859 218.934 49.25 219.699 49.5781C220.465 49.9062 221.066 50.3984 221.504 51.0547C221.949 51.7109 222.172 52.5312 222.172 53.5156V58.9414C222.172 59.6367 222.215 60.207 222.301 60.6523C222.387 61.0898 222.512 61.4727 222.676 61.8008V62H219.266C219.102 61.6562 218.977 61.2266 218.891 60.7109C218.812 60.1875 218.773 59.6641 218.773 59.1406ZM219.219 54.2773L219.242 56.1875H217.355C216.91 56.1875 216.523 56.2383 216.195 56.3398C215.867 56.4414 215.598 56.5859 215.387 56.7734C215.176 56.9531 215.02 57.1641 214.918 57.4062C214.824 57.6484 214.777 57.9141 214.777 58.2031C214.777 58.4922 214.844 58.7539 214.977 58.9883C215.109 59.2148 215.301 59.3945 215.551 59.5273C215.801 59.6523 216.094 59.7148 216.43 59.7148C216.938 59.7148 217.379 59.6133 217.754 59.4102C218.129 59.207 218.418 58.957 218.621 58.6602C218.832 58.3633 218.941 58.082 218.949 57.8164L219.84 59.2461C219.715 59.5664 219.543 59.8984 219.324 60.2422C219.113 60.5859 218.844 60.9102 218.516 61.2148C218.188 61.5117 217.793 61.7578 217.332 61.9531C216.871 62.1406 216.324 62.2344 215.691 62.2344C214.887 62.2344 214.156 62.0742 213.5 61.7539C212.852 61.4258 212.336 60.9766 211.953 60.4062C211.578 59.8281 211.391 59.1719 211.391 58.4375C211.391 57.7734 211.516 57.1836 211.766 56.668C212.016 56.1523 212.383 55.7188 212.867 55.3672C213.359 55.0078 213.973 54.7383 214.707 54.5586C215.441 54.3711 216.293 54.2773 217.262 54.2773H219.219ZM228.148 51.9453V62H224.762V49.3203H227.938L228.148 51.9453ZM227.68 55.2148H226.742C226.742 54.332 226.848 53.5195 227.059 52.7773C227.277 52.0273 227.594 51.3789 228.008 50.832C228.43 50.2773 228.949 49.8477 229.566 49.543C230.184 49.2383 230.898 49.0859 231.711 49.0859C232.273 49.0859 232.789 49.1719 233.258 49.3438C233.727 49.5078 234.129 49.7695 234.465 50.1289C234.809 50.4805 235.074 50.9414 235.262 51.5117C235.449 52.0742 235.543 52.75 235.543 53.5391V62H232.168V53.9141C232.168 53.3359 232.09 52.8906 231.934 52.5781C231.777 52.2656 231.555 52.0469 231.266 51.9219C230.984 51.7969 230.645 51.7344 230.246 51.7344C229.809 51.7344 229.426 51.8242 229.098 52.0039C228.777 52.1836 228.512 52.4336 228.301 52.7539C228.09 53.0664 227.934 53.4336 227.832 53.8555C227.73 54.2773 227.68 54.7305 227.68 55.2148ZM235.227 54.8281L234.02 54.9805C234.02 54.1523 234.121 53.3828 234.324 52.6719C234.535 51.9609 234.844 51.3359 235.25 50.7969C235.664 50.2578 236.176 49.8398 236.785 49.543C237.395 49.2383 238.098 49.0859 238.895 49.0859C239.504 49.0859 240.059 49.1758 240.559 49.3555C241.059 49.5273 241.484 49.8047 241.836 50.1875C242.195 50.5625 242.469 51.0547 242.656 51.6641C242.852 52.2734 242.949 53.0195 242.949 53.9023V62H239.562V53.9023C239.562 53.3164 239.484 52.8711 239.328 52.5664C239.18 52.2539 238.961 52.0391 238.672 51.9219C238.391 51.7969 238.055 51.7344 237.664 51.7344C237.258 51.7344 236.902 51.8164 236.598 51.9805C236.293 52.1367 236.039 52.3555 235.836 52.6367C235.633 52.918 235.48 53.2461 235.379 53.6211C235.277 53.9883 235.227 54.3906 235.227 54.8281ZM251.398 62.2344C250.414 62.2344 249.531 62.0781 248.75 61.7656C247.969 61.4453 247.305 61.0039 246.758 60.4414C246.219 59.8789 245.805 59.2266 245.516 58.4844C245.227 57.7344 245.082 56.9375 245.082 56.0938V55.625C245.082 54.6641 245.219 53.7852 245.492 52.9883C245.766 52.1914 246.156 51.5 246.664 50.9141C247.18 50.3281 247.805 49.8789 248.539 49.5664C249.273 49.2461 250.102 49.0859 251.023 49.0859C251.922 49.0859 252.719 49.2344 253.414 49.5312C254.109 49.8281 254.691 50.25 255.16 50.7969C255.637 51.3438 255.996 52 256.238 52.7656C256.48 53.5234 256.602 54.3672 256.602 55.2969V56.7031H246.523V54.4531H253.285V54.1953C253.285 53.7266 253.199 53.3086 253.027 52.9414C252.863 52.5664 252.613 52.2695 252.277 52.0508C251.941 51.832 251.512 51.7227 250.988 51.7227C250.543 51.7227 250.16 51.8203 249.84 52.0156C249.52 52.2109 249.258 52.4844 249.055 52.8359C248.859 53.1875 248.711 53.6016 248.609 54.0781C248.516 54.5469 248.469 55.0625 248.469 55.625V56.0938C248.469 56.6016 248.539 57.0703 248.68 57.5C248.828 57.9297 249.035 58.3008 249.301 58.6133C249.574 58.9258 249.902 59.168 250.285 59.3398C250.676 59.5117 251.117 59.5977 251.609 59.5977C252.219 59.5977 252.785 59.4805 253.309 59.2461C253.84 59.0039 254.297 58.6406 254.68 58.1562L256.32 59.9375C256.055 60.3203 255.691 60.6875 255.23 61.0391C254.777 61.3906 254.23 61.6797 253.59 61.9062C252.949 62.125 252.219 62.2344 251.398 62.2344Z" fill="#888888"/>
<path d="M102.635 86.0078V118H94.9443V86.0078H102.635ZM115.181 99.2573V118H107.776V94.2256H114.72L115.181 99.2573ZM114.28 105.3L112.588 105.344C112.588 103.674 112.786 102.136 113.182 100.729C113.577 99.3232 114.163 98.1001 114.939 97.0601C115.716 96.02 116.668 95.2144 117.796 94.6431C118.938 94.0718 120.257 93.7861 121.751 93.7861C122.791 93.7861 123.736 93.9473 124.585 94.2695C125.435 94.5771 126.167 95.0679 126.783 95.7417C127.398 96.4009 127.867 97.2651 128.189 98.3345C128.526 99.3892 128.694 100.656 128.694 102.136V118H121.29V103.081C121.29 102.07 121.172 101.308 120.938 100.795C120.718 100.283 120.396 99.9385 119.971 99.7627C119.546 99.5869 119.026 99.499 118.411 99.499C117.767 99.499 117.188 99.6455 116.675 99.9385C116.163 100.231 115.723 100.642 115.357 101.169C115.005 101.682 114.734 102.29 114.544 102.993C114.368 103.696 114.28 104.465 114.28 105.3ZM127.859 105.3L125.794 105.344C125.794 103.674 125.977 102.136 126.343 100.729C126.724 99.3232 127.288 98.1001 128.035 97.0601C128.797 96.02 129.742 95.2144 130.87 94.6431C131.998 94.0718 133.309 93.7861 134.803 93.7861C135.887 93.7861 136.883 93.9473 137.791 94.2695C138.699 94.5918 139.483 95.1118 140.142 95.8296C140.801 96.5474 141.314 97.4995 141.68 98.686C142.046 99.8579 142.229 101.308 142.229 103.037V118H134.803V103.037C134.803 102.055 134.686 101.315 134.451 100.817C134.231 100.305 133.909 99.9604 133.484 99.7847C133.06 99.5942 132.554 99.499 131.968 99.499C131.265 99.499 130.657 99.6455 130.145 99.9385C129.632 100.231 129.2 100.642 128.848 101.169C128.511 101.682 128.262 102.29 128.101 102.993C127.94 103.696 127.859 104.465 127.859 105.3ZM153.941 98.7959V127.141H146.536V94.2256H153.436L153.941 98.7959ZM168.531 105.827V106.289C168.531 108.017 168.333 109.621 167.938 111.101C167.542 112.58 166.956 113.869 166.18 114.968C165.403 116.066 164.437 116.923 163.279 117.539C162.137 118.139 160.811 118.439 159.302 118.439C157.881 118.439 156.658 118.125 155.633 117.495C154.607 116.865 153.75 115.993 153.062 114.88C152.374 113.767 151.817 112.492 151.392 111.057C150.967 109.621 150.63 108.105 150.381 106.508V105.915C150.63 104.201 150.967 102.612 151.392 101.147C151.817 99.6675 152.374 98.3784 153.062 97.2798C153.75 96.1812 154.6 95.3242 155.611 94.709C156.636 94.0938 157.859 93.7861 159.28 93.7861C160.789 93.7861 162.115 94.0718 163.257 94.6431C164.415 95.2144 165.381 96.0347 166.158 97.104C166.949 98.1587 167.542 99.4258 167.938 100.905C168.333 102.385 168.531 104.025 168.531 105.827ZM161.126 106.289V105.827C161.126 104.904 161.06 104.062 160.928 103.3C160.796 102.524 160.584 101.85 160.291 101.279C160.013 100.708 159.639 100.268 159.17 99.9604C158.702 99.6528 158.123 99.499 157.435 99.499C156.644 99.499 155.977 99.6235 155.435 99.8726C154.908 100.107 154.483 100.473 154.161 100.971C153.853 101.455 153.633 102.062 153.501 102.795C153.384 103.513 153.333 104.355 153.348 105.322V107.124C153.318 108.237 153.428 109.218 153.677 110.068C153.926 110.903 154.358 111.555 154.974 112.023C155.589 112.492 156.424 112.727 157.479 112.727C158.182 112.727 158.768 112.565 159.236 112.243C159.705 111.906 160.079 111.445 160.357 110.859C160.635 110.258 160.833 109.57 160.95 108.793C161.067 108.017 161.126 107.182 161.126 106.289ZM179.649 84.25V118H172.222V84.25H179.649ZM195.733 118.439C193.799 118.439 192.071 118.139 190.547 117.539C189.024 116.923 187.735 116.081 186.68 115.012C185.64 113.942 184.842 112.712 184.285 111.32C183.743 109.929 183.472 108.457 183.472 106.904V106.069C183.472 104.326 183.714 102.714 184.197 101.235C184.681 99.7407 185.398 98.437 186.351 97.3237C187.303 96.2104 188.497 95.3462 189.932 94.731C191.368 94.1011 193.038 93.7861 194.942 93.7861C196.626 93.7861 198.135 94.0571 199.468 94.5991C200.801 95.1411 201.929 95.9175 202.852 96.9282C203.79 97.939 204.5 99.1621 204.983 100.598C205.481 102.033 205.73 103.645 205.73 105.432V108.442H186.307V103.806H198.501V103.234C198.516 102.443 198.377 101.77 198.084 101.213C197.806 100.656 197.396 100.231 196.854 99.9385C196.312 99.6455 195.652 99.499 194.876 99.499C194.07 99.499 193.404 99.6748 192.876 100.026C192.364 100.378 191.961 100.861 191.668 101.477C191.39 102.077 191.192 102.773 191.075 103.564C190.958 104.355 190.899 105.19 190.899 106.069V106.904C190.899 107.783 191.016 108.581 191.25 109.299C191.5 110.017 191.851 110.632 192.305 111.145C192.774 111.643 193.331 112.031 193.975 112.309C194.634 112.587 195.381 112.727 196.216 112.727C197.227 112.727 198.223 112.536 199.205 112.155C200.186 111.774 201.028 111.145 201.731 110.266L205.093 114.265C204.61 114.953 203.921 115.62 203.028 116.264C202.149 116.909 201.094 117.436 199.864 117.846C198.633 118.242 197.256 118.439 195.733 118.439ZM216.211 99.2573V118H208.807V94.2256H215.75L216.211 99.2573ZM215.311 105.3L213.619 105.344C213.619 103.674 213.816 102.136 214.212 100.729C214.607 99.3232 215.193 98.1001 215.97 97.0601C216.746 96.02 217.698 95.2144 218.826 94.6431C219.969 94.0718 221.287 93.7861 222.781 93.7861C223.821 93.7861 224.766 93.9473 225.616 94.2695C226.465 94.5771 227.198 95.0679 227.813 95.7417C228.428 96.4009 228.897 97.2651 229.219 98.3345C229.556 99.3892 229.725 100.656 229.725 102.136V118H222.32V103.081C222.32 102.07 222.203 101.308 221.968 100.795C221.749 100.283 221.426 99.9385 221.001 99.7627C220.577 99.5869 220.057 99.499 219.441 99.499C218.797 99.499 218.218 99.6455 217.706 99.9385C217.193 100.231 216.753 100.642 216.387 101.169C216.036 101.682 215.765 102.29 215.574 102.993C215.398 103.696 215.311 104.465 215.311 105.3ZM228.89 105.3L226.824 105.344C226.824 103.674 227.007 102.136 227.374 100.729C227.754 99.3232 228.318 98.1001 229.065 97.0601C229.827 96.02 230.772 95.2144 231.9 94.6431C233.028 94.0718 234.339 93.7861 235.833 93.7861C236.917 93.7861 237.913 93.9473 238.821 94.2695C239.729 94.5918 240.513 95.1118 241.172 95.8296C241.832 96.5474 242.344 97.4995 242.71 98.686C243.077 99.8579 243.26 101.308 243.26 103.037V118H235.833V103.037C235.833 102.055 235.716 101.315 235.481 100.817C235.262 100.305 234.939 99.9604 234.515 99.7847C234.09 99.5942 233.584 99.499 232.999 99.499C232.295 99.499 231.688 99.6455 231.175 99.9385C230.662 100.231 230.23 100.642 229.878 101.169C229.542 101.682 229.292 102.29 229.131 102.993C228.97 103.696 228.89 104.465 228.89 105.3ZM259.014 118.439C257.081 118.439 255.352 118.139 253.829 117.539C252.305 116.923 251.016 116.081 249.961 115.012C248.921 113.942 248.123 112.712 247.566 111.32C247.024 109.929 246.753 108.457 246.753 106.904V106.069C246.753 104.326 246.995 102.714 247.479 101.235C247.962 99.7407 248.68 98.437 249.632 97.3237C250.584 96.2104 251.778 95.3462 253.213 94.731C254.649 94.1011 256.319 93.7861 258.223 93.7861C259.908 93.7861 261.417 94.0571 262.75 94.5991C264.083 95.1411 265.21 95.9175 266.133 96.9282C267.071 97.939 267.781 99.1621 268.265 100.598C268.763 102.033 269.012 103.645 269.012 105.432V108.442H249.588V103.806H261.783V103.234C261.797 102.443 261.658 101.77 261.365 101.213C261.087 100.656 260.677 100.231 260.135 99.9385C259.593 99.6455 258.934 99.499 258.157 99.499C257.352 99.499 256.685 99.6748 256.158 100.026C255.645 100.378 255.242 100.861 254.949 101.477C254.671 102.077 254.473 102.773 254.356 103.564C254.239 104.355 254.18 105.19 254.18 106.069V106.904C254.18 107.783 254.297 108.581 254.532 109.299C254.781 110.017 255.132 110.632 255.586 111.145C256.055 111.643 256.612 112.031 257.256 112.309C257.916 112.587 258.663 112.727 259.498 112.727C260.508 112.727 261.504 112.536 262.486 112.155C263.467 111.774 264.31 111.145 265.013 110.266L268.375 114.265C267.891 114.953 267.203 115.62 266.309 116.264C265.43 116.909 264.375 117.436 263.145 117.846C261.915 118.242 260.538 118.439 259.014 118.439ZM279.295 99.3013V118H271.89V94.2256H278.833L279.295 99.3013ZM278.416 105.3L276.68 105.344C276.68 103.527 276.9 101.909 277.339 100.488C277.779 99.0522 278.401 97.8364 279.207 96.8403C280.013 95.8442 280.972 95.0898 282.085 94.5771C283.213 94.0498 284.466 93.7861 285.843 93.7861C286.941 93.7861 287.945 93.9473 288.853 94.2695C289.776 94.5918 290.567 95.1118 291.226 95.8296C291.9 96.5474 292.413 97.4995 292.764 98.686C293.13 99.8579 293.313 101.308 293.313 103.037V118H285.865V103.015C285.865 102.062 285.733 101.337 285.469 100.839C285.206 100.327 284.825 99.9751 284.327 99.7847C283.829 99.5942 283.221 99.499 282.503 99.499C281.741 99.499 281.097 99.6455 280.569 99.9385C280.042 100.231 279.617 100.642 279.295 101.169C278.987 101.682 278.76 102.29 278.614 102.993C278.482 103.696 278.416 104.465 278.416 105.3ZM309.947 94.2256V99.3672H295.621V94.2256H309.947ZM298.631 88.3149H306.036V110.244C306.036 110.874 306.109 111.364 306.255 111.716C306.402 112.053 306.651 112.294 307.002 112.441C307.369 112.573 307.852 112.639 308.453 112.639C308.877 112.639 309.229 112.631 309.507 112.617C309.786 112.587 310.049 112.551 310.298 112.507V117.802C309.668 118.007 309.009 118.161 308.321 118.264C307.632 118.381 306.9 118.439 306.124 118.439C304.542 118.439 303.187 118.19 302.059 117.692C300.945 117.194 300.096 116.411 299.51 115.341C298.924 114.272 298.631 112.88 298.631 111.167V88.3149ZM325.24 112.023V102.224C325.24 101.55 325.145 100.971 324.954 100.488C324.764 100.004 324.463 99.6309 324.053 99.3672C323.643 99.0889 323.094 98.9497 322.405 98.9497C321.849 98.9497 321.373 99.0449 320.977 99.2354C320.582 99.4258 320.281 99.7114 320.076 100.092C319.871 100.473 319.769 100.957 319.769 101.542H312.364C312.364 100.444 312.605 99.4258 313.089 98.4883C313.587 97.5361 314.29 96.7085 315.198 96.0054C316.121 95.3022 317.22 94.7603 318.494 94.3794C319.783 93.9839 321.219 93.7861 322.801 93.7861C324.69 93.7861 326.375 94.1011 327.854 94.731C329.349 95.3608 330.528 96.3057 331.392 97.5654C332.256 98.8105 332.688 100.378 332.688 102.268V112.001C332.688 113.554 332.776 114.733 332.952 115.539C333.128 116.33 333.377 117.026 333.699 117.626V118H326.272C325.921 117.268 325.657 116.374 325.481 115.319C325.32 114.25 325.24 113.151 325.24 112.023ZM326.141 103.476L326.185 107.431H322.911C322.222 107.431 321.636 107.526 321.153 107.717C320.684 107.907 320.303 108.171 320.01 108.508C319.732 108.83 319.527 109.196 319.395 109.606C319.278 110.017 319.219 110.449 319.219 110.903C319.219 111.342 319.322 111.738 319.527 112.089C319.747 112.426 320.04 112.69 320.406 112.88C320.772 113.071 321.182 113.166 321.636 113.166C322.457 113.166 323.152 113.012 323.724 112.705C324.31 112.382 324.756 111.994 325.064 111.54C325.372 111.086 325.525 110.661 325.525 110.266L327.151 113.298C326.858 113.884 326.521 114.477 326.141 115.078C325.774 115.678 325.313 116.235 324.756 116.748C324.214 117.246 323.548 117.656 322.757 117.978C321.966 118.286 321.006 118.439 319.878 118.439C318.414 118.439 317.066 118.139 315.835 117.539C314.62 116.938 313.646 116.103 312.913 115.034C312.181 113.95 311.814 112.705 311.814 111.298C311.814 110.068 312.034 108.969 312.474 108.002C312.928 107.036 313.609 106.215 314.517 105.542C315.425 104.868 316.583 104.355 317.989 104.003C319.395 103.652 321.05 103.476 322.955 103.476H326.141ZM349.322 94.2256V99.3672H334.996V94.2256H349.322ZM338.006 88.3149H345.411V110.244C345.411 110.874 345.484 111.364 345.63 111.716C345.777 112.053 346.026 112.294 346.377 112.441C346.744 112.573 347.227 112.639 347.828 112.639C348.252 112.639 348.604 112.631 348.882 112.617C349.161 112.587 349.424 112.551 349.673 112.507V117.802C349.043 118.007 348.384 118.161 347.696 118.264C347.007 118.381 346.275 118.439 345.499 118.439C343.917 118.439 342.562 118.19 341.434 117.692C340.32 117.194 339.471 116.411 338.885 115.341C338.299 114.272 338.006 112.88 338.006 111.167V88.3149ZM360.088 94.2256V118H352.662V94.2256H360.088ZM352.222 88.0952C352.222 87.0405 352.603 86.1763 353.365 85.5024C354.126 84.8286 355.115 84.4917 356.331 84.4917C357.547 84.4917 358.536 84.8286 359.297 85.5024C360.059 86.1763 360.44 87.0405 360.44 88.0952C360.44 89.1499 360.059 90.0142 359.297 90.688C358.536 91.3618 357.547 91.6987 356.331 91.6987C355.115 91.6987 354.126 91.3618 353.365 90.688C352.603 90.0142 352.222 89.1499 352.222 88.0952ZM363.736 106.354V105.893C363.736 104.15 363.985 102.546 364.483 101.081C364.981 99.6016 365.713 98.3198 366.68 97.2358C367.647 96.1519 368.841 95.3096 370.262 94.709C371.683 94.0938 373.323 93.7861 375.184 93.7861C377.059 93.7861 378.707 94.0938 380.127 94.709C381.563 95.3096 382.764 96.1519 383.731 97.2358C384.698 98.3198 385.43 99.6016 385.928 101.081C386.426 102.546 386.675 104.15 386.675 105.893V106.354C386.675 108.083 386.426 109.687 385.928 111.167C385.43 112.631 384.698 113.913 383.731 115.012C382.764 116.096 381.57 116.938 380.149 117.539C378.729 118.139 377.088 118.439 375.228 118.439C373.367 118.439 371.719 118.139 370.284 117.539C368.848 116.938 367.647 116.096 366.68 115.012C365.713 113.913 364.981 112.631 364.483 111.167C363.985 109.687 363.736 108.083 363.736 106.354ZM371.141 105.893V106.354C371.141 107.248 371.207 108.083 371.338 108.859C371.47 109.636 371.69 110.317 371.998 110.903C372.305 111.474 372.723 111.921 373.25 112.243C373.777 112.565 374.437 112.727 375.228 112.727C376.004 112.727 376.648 112.565 377.161 112.243C377.688 111.921 378.106 111.474 378.414 110.903C378.721 110.317 378.941 109.636 379.073 108.859C379.205 108.083 379.271 107.248 379.271 106.354V105.893C379.271 105.029 379.205 104.216 379.073 103.454C378.941 102.678 378.721 101.997 378.414 101.411C378.106 100.81 377.688 100.341 377.161 100.004C376.634 99.6675 375.975 99.499 375.184 99.499C374.407 99.499 373.755 99.6675 373.228 100.004C372.715 100.341 372.305 100.81 371.998 101.411C371.69 101.997 371.47 102.678 371.338 103.454C371.207 104.216 371.141 105.029 371.141 105.893ZM397.244 99.3013V118H389.839V94.2256H396.783L397.244 99.3013ZM396.365 105.3L394.629 105.344C394.629 103.527 394.849 101.909 395.289 100.488C395.728 99.0522 396.351 97.8364 397.156 96.8403C397.962 95.8442 398.921 95.0898 400.035 94.5771C401.163 94.0498 402.415 93.7861 403.792 93.7861C404.891 93.7861 405.894 93.9473 406.802 94.2695C407.725 94.5918 408.516 95.1118 409.175 95.8296C409.849 96.5474 410.362 97.4995 410.713 98.686C411.08 99.8579 411.263 101.308 411.263 103.037V118H403.814V103.015C403.814 102.062 403.682 101.337 403.418 100.839C403.155 100.327 402.774 99.9751 402.276 99.7847C401.778 99.5942 401.17 99.499 400.452 99.499C399.69 99.499 399.046 99.6455 398.519 99.9385C397.991 100.231 397.566 100.642 397.244 101.169C396.937 101.682 396.709 102.29 396.563 102.993C396.431 103.696 396.365 104.465 396.365 105.3Z" fill="#424241"/>
<path d="M1363 15C1363 6.71573 1356.28 0 1348 0H1134V167H1348C1356.28 167 1363 160.284 1363 152V15Z" fill="#011043"/>
<path d="M1281.5 49H1216.5L1214 51.5V116.5L1216.5 119H1281.5L1284 116.5V51.5L1281.5 49ZM1279 114H1234V104H1245.5C1247 107 1250.5 109 1254 109C1259.5 109 1264 104.5 1264 99C1264 93.5 1259.5 89 1254 89C1248.5 89 1244 93.5 1244 99H1229V114H1219V54H1229V65.5C1226 67 1224 70.5 1224 74C1224 79.5 1228.5 84 1234 84C1239.5 84 1244 79.5 1244 74H1254C1254 79.5 1258.5 84 1264 84C1269.5 84 1274 79.5 1274 74C1274 68.5 1269.5 64 1264 64C1260.5 64 1257 66 1255.5 69H1242.5C1241 66 1237.5 64 1234 64V54H1279V114ZM1249 99C1249 96 1251 94 1254 94C1257 94 1259 96 1259 99C1259 102 1257 104 1254 104C1251 104 1249 102 1249 99ZM1234 69C1237 69 1239 71 1239 74C1239 77 1237 79 1234 79C1231 79 1229 77 1229 74C1229 71 1231 69 1234 69ZM1264 69C1267 69 1269 71 1269 74C1269 77 1267 79 1264 79C1261 79 1259 77 1259 74C1259 71 1261 69 1264 69Z" fill="white"/>
</svg>
