<svg width="1363" height="301" viewBox="0 0 1363 301" fill="none" xmlns="http://www.w3.org/2000/svg">
<rect width="1363" height="301" rx="15" fill="#F0F0F0"/>
<path d="M0 15C0 6.71573 6.71573 0 15 0H37V301H15C6.71573 301 0 294.284 0 286V15Z" fill="#011043"/>
<path d="M117.217 130.76H126.617C126.491 133.482 125.757 135.881 124.415 137.958C123.072 140.034 121.21 141.655 118.829 142.818C116.465 143.964 113.672 144.537 110.45 144.537C107.836 144.537 105.499 144.098 103.44 143.221C101.399 142.344 99.6628 141.082 98.2305 139.435C96.8161 137.787 95.7329 135.791 94.981 133.446C94.2469 131.1 93.8799 128.46 93.8799 125.523V123.402C93.8799 120.466 94.2648 117.825 95.0347 115.479C95.8224 113.116 96.9325 111.111 98.3647 109.464C99.8149 107.799 101.552 106.528 103.575 105.65C105.598 104.773 107.845 104.334 110.315 104.334C113.717 104.334 116.591 104.943 118.936 106.161C121.281 107.378 123.099 109.052 124.388 111.183C125.677 113.295 126.438 115.703 126.67 118.407H117.271C117.235 116.939 116.985 115.712 116.519 114.728C116.054 113.725 115.319 112.973 114.317 112.472C113.314 111.97 111.98 111.72 110.315 111.72C109.152 111.72 108.14 111.935 107.281 112.364C106.421 112.794 105.705 113.474 105.132 114.405C104.559 115.336 104.13 116.545 103.843 118.031C103.575 119.499 103.44 121.271 103.44 123.348V125.523C103.44 127.6 103.566 129.373 103.816 130.841C104.067 132.309 104.47 133.508 105.025 134.439C105.58 135.37 106.296 136.06 107.173 136.507C108.069 136.937 109.161 137.152 110.45 137.152C111.882 137.152 113.09 136.928 114.075 136.48C115.06 136.015 115.821 135.317 116.358 134.386C116.895 133.437 117.181 132.228 117.217 130.76ZM140.206 102.75V144H131.128V102.75H140.206ZM144.664 129.767V129.203C144.664 127.072 144.968 125.112 145.577 123.321C146.185 121.513 147.081 119.946 148.262 118.622C149.444 117.297 150.903 116.267 152.64 115.533C154.376 114.781 156.382 114.405 158.655 114.405C160.947 114.405 162.961 114.781 164.698 115.533C166.452 116.267 167.92 117.297 169.102 118.622C170.284 119.946 171.179 121.513 171.788 123.321C172.396 125.112 172.701 127.072 172.701 129.203V129.767C172.701 131.879 172.396 133.84 171.788 135.648C171.179 137.438 170.284 139.005 169.102 140.348C167.92 141.673 166.461 142.702 164.725 143.436C162.988 144.17 160.983 144.537 158.709 144.537C156.435 144.537 154.421 144.17 152.667 143.436C150.912 142.702 149.444 141.673 148.262 140.348C147.081 139.005 146.185 137.438 145.577 135.648C144.968 133.84 144.664 131.879 144.664 129.767ZM153.714 129.203V129.767C153.714 130.859 153.794 131.879 153.956 132.828C154.117 133.777 154.385 134.61 154.761 135.326C155.137 136.024 155.647 136.57 156.292 136.964C156.937 137.358 157.742 137.555 158.709 137.555C159.658 137.555 160.446 137.358 161.072 136.964C161.717 136.57 162.227 136.024 162.603 135.326C162.979 134.61 163.248 133.777 163.409 132.828C163.57 131.879 163.65 130.859 163.65 129.767V129.203C163.65 128.146 163.57 127.153 163.409 126.222C163.248 125.273 162.979 124.44 162.603 123.724C162.227 122.99 161.717 122.417 161.072 122.005C160.428 121.594 159.622 121.388 158.655 121.388C157.706 121.388 156.91 121.594 156.265 122.005C155.639 122.417 155.137 122.99 154.761 123.724C154.385 124.44 154.117 125.273 153.956 126.222C153.794 127.153 153.714 128.146 153.714 129.203ZM191.956 135.836C191.956 135.335 191.786 134.905 191.446 134.547C191.124 134.171 190.551 133.831 189.727 133.526C188.903 133.204 187.749 132.882 186.263 132.56C184.848 132.255 183.514 131.852 182.261 131.351C181.026 130.85 179.943 130.241 179.012 129.525C178.081 128.809 177.347 127.958 176.81 126.974C176.29 125.989 176.031 124.861 176.031 123.59C176.031 122.354 176.29 121.191 176.81 120.099C177.347 118.989 178.125 118.013 179.146 117.171C180.184 116.312 181.447 115.641 182.933 115.157C184.419 114.656 186.111 114.405 188.008 114.405C190.622 114.405 192.878 114.808 194.776 115.614C196.674 116.402 198.133 117.512 199.153 118.944C200.192 120.358 200.711 121.996 200.711 123.858H191.661C191.661 123.124 191.535 122.498 191.285 121.979C191.052 121.459 190.667 121.065 190.13 120.797C189.593 120.51 188.877 120.367 187.981 120.367C187.355 120.367 186.782 120.484 186.263 120.716C185.761 120.949 185.359 121.271 185.054 121.683C184.75 122.095 184.598 122.578 184.598 123.133C184.598 123.527 184.687 123.885 184.866 124.208C185.063 124.512 185.359 124.798 185.752 125.067C186.146 125.318 186.648 125.55 187.256 125.765C187.865 125.962 188.599 126.141 189.458 126.302C191.41 126.66 193.236 127.171 194.937 127.833C196.638 128.495 198.016 129.435 199.073 130.653C200.147 131.87 200.684 133.508 200.684 135.567C200.684 136.856 200.389 138.047 199.798 139.139C199.207 140.213 198.357 141.162 197.247 141.986C196.137 142.792 194.803 143.418 193.245 143.866C191.688 144.313 189.933 144.537 187.981 144.537C185.206 144.537 182.861 144.045 180.945 143.06C179.03 142.057 177.579 140.804 176.595 139.3C175.628 137.778 175.145 136.239 175.145 134.681H183.577C183.613 135.576 183.828 136.31 184.222 136.883C184.633 137.456 185.18 137.877 185.86 138.146C186.54 138.414 187.328 138.548 188.223 138.548C189.047 138.548 189.727 138.432 190.264 138.199C190.819 137.966 191.24 137.653 191.526 137.259C191.813 136.847 191.956 136.373 191.956 135.836ZM219 144.537C216.636 144.537 214.524 144.17 212.662 143.436C210.8 142.684 209.224 141.655 207.935 140.348C206.664 139.041 205.688 137.537 205.008 135.836C204.345 134.135 204.014 132.336 204.014 130.438V129.417C204.014 127.287 204.31 125.318 204.9 123.509C205.491 121.683 206.368 120.09 207.532 118.729C208.696 117.368 210.155 116.312 211.91 115.56C213.664 114.79 215.705 114.405 218.033 114.405C220.092 114.405 221.936 114.736 223.565 115.399C225.194 116.061 226.573 117.01 227.701 118.246C228.847 119.481 229.715 120.976 230.306 122.73C230.914 124.485 231.219 126.454 231.219 128.639V132.318H207.479V126.651H222.383V125.953C222.401 124.986 222.231 124.163 221.873 123.482C221.533 122.802 221.032 122.283 220.369 121.925C219.707 121.567 218.901 121.388 217.952 121.388C216.967 121.388 216.153 121.603 215.508 122.032C214.882 122.462 214.389 123.053 214.031 123.805C213.691 124.539 213.449 125.389 213.306 126.356C213.163 127.323 213.091 128.343 213.091 129.417V130.438C213.091 131.512 213.235 132.488 213.521 133.365C213.825 134.243 214.255 134.994 214.81 135.621C215.383 136.23 216.063 136.704 216.851 137.044C217.657 137.385 218.57 137.555 219.59 137.555C220.826 137.555 222.043 137.322 223.243 136.856C224.442 136.391 225.472 135.621 226.331 134.547L230.44 139.435C229.849 140.276 229.008 141.091 227.916 141.878C226.841 142.666 225.552 143.311 224.048 143.812C222.544 144.295 220.861 144.537 219 144.537ZM244.029 122.14V144H234.979V114.942H243.438L244.029 122.14ZM252.623 114.728L252.461 123.133C252.103 123.097 251.62 123.053 251.011 122.999C250.403 122.945 249.892 122.918 249.48 122.918C248.424 122.918 247.511 123.044 246.741 123.294C245.989 123.527 245.363 123.885 244.861 124.369C244.378 124.834 244.02 125.425 243.787 126.141C243.572 126.857 243.474 127.69 243.492 128.639L241.854 127.564C241.854 125.613 242.042 123.84 242.417 122.247C242.811 120.636 243.366 119.248 244.083 118.084C244.799 116.903 245.667 115.999 246.688 115.372C247.708 114.728 248.854 114.405 250.125 114.405C250.573 114.405 251.011 114.432 251.441 114.486C251.889 114.54 252.282 114.62 252.623 114.728Z" fill="black"/>
<path d="M108.646 71.7456H113.755C113.653 73.4204 113.191 74.9072 112.371 76.2061C111.562 77.5049 110.429 78.5189 108.97 79.248C107.523 79.9772 105.78 80.3418 103.741 80.3418C102.146 80.3418 100.716 80.0684 99.4512 79.5215C98.1865 78.9632 97.1042 78.1657 96.2041 77.1289C95.3154 76.0921 94.6375 74.8389 94.1704 73.3691C93.7033 71.8994 93.4697 70.2531 93.4697 68.4302V66.7041C93.4697 64.8812 93.709 63.2349 94.1875 61.7651C94.6774 60.284 95.3724 59.0251 96.2725 57.9883C97.1839 56.9515 98.272 56.154 99.5366 55.5957C100.801 55.0374 102.214 54.7583 103.775 54.7583C105.848 54.7583 107.597 55.1343 109.021 55.8862C110.457 56.6382 111.568 57.675 112.354 58.9966C113.152 60.3182 113.63 61.8221 113.79 63.5083H108.663C108.606 62.5057 108.406 61.6569 108.064 60.9619C107.723 60.2555 107.204 59.7257 106.509 59.3726C105.826 59.008 104.914 58.8257 103.775 58.8257C102.92 58.8257 102.174 58.9852 101.536 59.3042C100.898 59.6232 100.363 60.1074 99.9297 60.7568C99.4967 61.4062 99.172 62.2266 98.9556 63.2178C98.7505 64.1976 98.6479 65.3483 98.6479 66.6699V68.4302C98.6479 69.7176 98.7448 70.8512 98.9385 71.8311C99.1322 72.7995 99.4284 73.6198 99.8271 74.292C100.237 74.9528 100.761 75.4541 101.399 75.7959C102.049 76.1263 102.829 76.2915 103.741 76.2915C104.812 76.2915 105.695 76.1206 106.39 75.7788C107.085 75.437 107.614 74.93 107.979 74.2578C108.355 73.5856 108.577 72.7482 108.646 71.7456ZM121.617 53.75V80H116.695V53.75H121.617ZM120.916 70.105H119.566C119.577 68.8175 119.748 67.6326 120.079 66.5503C120.409 65.4565 120.882 64.5109 121.497 63.7134C122.112 62.9045 122.847 62.2778 123.702 61.8335C124.568 61.3892 125.525 61.167 126.573 61.167C127.484 61.167 128.31 61.298 129.051 61.5601C129.803 61.8107 130.446 62.2209 130.982 62.7905C131.529 63.3488 131.95 64.0837 132.247 64.9951C132.543 65.9066 132.691 67.0117 132.691 68.3105V80H127.735V68.2764C127.735 67.4561 127.615 66.8123 127.376 66.3452C127.148 65.8667 126.812 65.5306 126.368 65.3369C125.935 65.1318 125.399 65.0293 124.761 65.0293C124.055 65.0293 123.451 65.1603 122.95 65.4224C122.46 65.6844 122.067 66.049 121.771 66.5161C121.474 66.9718 121.258 67.5073 121.121 68.1226C120.984 68.7378 120.916 69.3986 120.916 70.105ZM141.355 65.542V80H136.434V61.5088H141.065L141.355 65.542ZM146.927 61.3892L146.841 65.9521C146.602 65.918 146.312 65.8895 145.97 65.8667C145.639 65.8325 145.337 65.8154 145.064 65.8154C144.369 65.8154 143.765 65.9066 143.252 66.0889C142.751 66.2598 142.33 66.5161 141.988 66.8579C141.657 67.1997 141.407 67.6156 141.236 68.1055C141.076 68.5954 140.985 69.1536 140.962 69.7803L139.971 69.4727C139.971 68.2764 140.091 67.1769 140.33 66.1743C140.569 65.1603 140.917 64.2773 141.373 63.5254C141.84 62.7734 142.409 62.1924 143.082 61.7822C143.754 61.3721 144.523 61.167 145.389 61.167C145.662 61.167 145.941 61.1898 146.226 61.2354C146.511 61.2695 146.744 61.3208 146.927 61.3892ZM154.446 61.5088V80H149.507V61.5088H154.446ZM149.2 56.6895C149.2 55.9717 149.45 55.3792 149.952 54.9121C150.453 54.445 151.125 54.2114 151.968 54.2114C152.8 54.2114 153.466 54.445 153.968 54.9121C154.48 55.3792 154.737 55.9717 154.737 56.6895C154.737 57.4072 154.48 57.9997 153.968 58.4668C153.466 58.9339 152.8 59.1675 151.968 59.1675C151.125 59.1675 150.453 58.9339 149.952 58.4668C149.45 57.9997 149.2 57.4072 149.2 56.6895ZM168.511 74.8901C168.511 74.5369 168.409 74.2179 168.204 73.9331C167.999 73.6483 167.617 73.3862 167.059 73.147C166.512 72.8963 165.72 72.6685 164.683 72.4634C163.749 72.2583 162.877 72.002 162.068 71.6943C161.271 71.3753 160.576 70.9937 159.983 70.5493C159.402 70.105 158.947 69.5809 158.616 68.9771C158.286 68.3618 158.121 67.6611 158.121 66.875C158.121 66.1003 158.286 65.3711 158.616 64.6875C158.958 64.0039 159.442 63.4001 160.069 62.876C160.707 62.3405 161.482 61.9246 162.393 61.6284C163.316 61.3208 164.353 61.167 165.503 61.167C167.11 61.167 168.488 61.4233 169.639 61.936C170.801 62.4487 171.69 63.1551 172.305 64.0552C172.932 64.9438 173.245 65.9578 173.245 67.0972H168.323C168.323 66.6187 168.221 66.1914 168.016 65.8154C167.822 65.4281 167.514 65.1261 167.093 64.9097C166.683 64.6818 166.147 64.5679 165.486 64.5679C164.939 64.5679 164.467 64.6647 164.068 64.8584C163.669 65.0407 163.361 65.2913 163.145 65.6104C162.94 65.918 162.837 66.2598 162.837 66.6357C162.837 66.9206 162.894 67.1769 163.008 67.4048C163.134 67.6213 163.333 67.8206 163.606 68.0029C163.88 68.1852 164.233 68.3561 164.666 68.5156C165.11 68.6637 165.657 68.8005 166.307 68.9258C167.64 69.1992 168.83 69.5581 169.878 70.0024C170.927 70.4354 171.758 71.0278 172.374 71.7798C172.989 72.5203 173.296 73.4945 173.296 74.7021C173.296 75.5225 173.114 76.2744 172.75 76.958C172.385 77.6416 171.861 78.2397 171.177 78.7524C170.494 79.2537 169.673 79.6468 168.716 79.9316C167.771 80.2051 166.705 80.3418 165.521 80.3418C163.8 80.3418 162.342 80.0342 161.146 79.4189C159.961 78.8037 159.061 78.0233 158.445 77.0776C157.841 76.1206 157.54 75.1408 157.54 74.1382H162.205C162.228 74.8104 162.399 75.3516 162.718 75.7617C163.048 76.1719 163.464 76.4681 163.965 76.6504C164.478 76.8327 165.031 76.9238 165.623 76.9238C166.261 76.9238 166.791 76.8384 167.212 76.6675C167.634 76.4852 167.953 76.2459 168.169 75.9497C168.397 75.6421 168.511 75.2889 168.511 74.8901ZM185.55 61.5088V64.9951H174.783V61.5088H185.55ZM177.449 56.9458H182.371V74.4287C182.371 74.9642 182.439 75.3743 182.576 75.6592C182.724 75.944 182.941 76.1434 183.226 76.2573C183.51 76.3599 183.869 76.4111 184.302 76.4111C184.61 76.4111 184.883 76.3997 185.123 76.377C185.373 76.3428 185.584 76.3086 185.755 76.2744L185.772 79.8975C185.35 80.0342 184.895 80.1424 184.405 80.2222C183.915 80.3019 183.374 80.3418 182.781 80.3418C181.699 80.3418 180.753 80.1652 179.944 79.812C179.147 79.4474 178.532 78.8664 178.099 78.0688C177.666 77.2713 177.449 76.2231 177.449 74.9243V56.9458ZM187.122 70.9424V70.5835C187.122 69.2277 187.316 67.9801 187.703 66.8408C188.09 65.6901 188.654 64.6932 189.395 63.8501C190.136 63.007 191.047 62.3519 192.129 61.8848C193.212 61.4062 194.454 61.167 195.855 61.167C197.256 61.167 198.504 61.4062 199.598 61.8848C200.691 62.3519 201.609 63.007 202.349 63.8501C203.101 64.6932 203.671 65.6901 204.058 66.8408C204.445 67.9801 204.639 69.2277 204.639 70.5835V70.9424C204.639 72.2868 204.445 73.5343 204.058 74.6851C203.671 75.8244 203.101 76.8213 202.349 77.6758C201.609 78.5189 200.697 79.174 199.615 79.6411C198.532 80.1082 197.291 80.3418 195.889 80.3418C194.488 80.3418 193.24 80.1082 192.146 79.6411C191.064 79.174 190.147 78.5189 189.395 77.6758C188.654 76.8213 188.09 75.8244 187.703 74.6851C187.316 73.5343 187.122 72.2868 187.122 70.9424ZM192.044 70.5835V70.9424C192.044 71.7171 192.112 72.4406 192.249 73.1128C192.386 73.785 192.602 74.3774 192.898 74.8901C193.206 75.3914 193.605 75.7845 194.095 76.0693C194.585 76.3542 195.183 76.4966 195.889 76.4966C196.573 76.4966 197.16 76.3542 197.649 76.0693C198.139 75.7845 198.532 75.3914 198.829 74.8901C199.125 74.3774 199.341 73.785 199.478 73.1128C199.626 72.4406 199.7 71.7171 199.7 70.9424V70.5835C199.7 69.8315 199.626 69.1252 199.478 68.4644C199.341 67.7922 199.119 67.1997 198.812 66.687C198.515 66.1629 198.122 65.7528 197.632 65.4565C197.142 65.1603 196.55 65.0122 195.855 65.0122C195.16 65.0122 194.568 65.1603 194.078 65.4565C193.599 65.7528 193.206 66.1629 192.898 66.687C192.602 67.1997 192.386 67.7922 192.249 68.4644C192.112 69.1252 192.044 69.8315 192.044 70.5835ZM212.586 65.0635V87.1094H207.664V61.5088H212.227L212.586 65.0635ZM224.292 70.5493V70.9082C224.292 72.2526 224.133 73.5002 223.814 74.6509C223.506 75.8016 223.051 76.8042 222.447 77.6587C221.843 78.5018 221.091 79.1626 220.191 79.6411C219.302 80.1082 218.277 80.3418 217.115 80.3418C215.987 80.3418 215.007 80.1139 214.175 79.6582C213.344 79.2025 212.643 78.5645 212.073 77.7441C211.515 76.9124 211.065 75.9497 210.723 74.856C210.381 73.7622 210.119 72.5887 209.937 71.3354V70.3955C210.119 69.0511 210.381 67.8206 210.723 66.7041C211.065 65.5762 211.515 64.6021 212.073 63.7817C212.643 62.95 213.338 62.3063 214.158 61.8506C214.99 61.3949 215.964 61.167 217.081 61.167C218.254 61.167 219.285 61.3892 220.174 61.8335C221.074 62.2778 221.826 62.9159 222.43 63.7476C223.045 64.5793 223.506 65.5705 223.814 66.7212C224.133 67.8719 224.292 69.1479 224.292 70.5493ZM219.354 70.9082V70.5493C219.354 69.7632 219.285 69.0397 219.148 68.3789C219.023 67.7067 218.818 67.12 218.533 66.6187C218.26 66.1174 217.895 65.73 217.439 65.4565C216.995 65.1717 216.454 65.0293 215.816 65.0293C215.144 65.0293 214.568 65.1375 214.09 65.354C213.623 65.5705 213.241 65.8838 212.945 66.2939C212.649 66.7041 212.426 67.194 212.278 67.7637C212.13 68.3333 212.039 68.9771 212.005 69.6948V72.0703C212.062 72.9134 212.221 73.6711 212.483 74.3433C212.745 75.0041 213.15 75.5282 213.697 75.9155C214.244 76.3029 214.961 76.4966 215.85 76.4966C216.5 76.4966 217.046 76.3542 217.491 76.0693C217.935 75.7731 218.294 75.3687 218.567 74.856C218.852 74.3433 219.052 73.7508 219.166 73.0786C219.291 72.4064 219.354 71.6829 219.354 70.9082ZM232.154 53.75V80H227.232V53.75H232.154ZM231.453 70.105H230.103C230.114 68.8175 230.285 67.6326 230.616 66.5503C230.946 65.4565 231.419 64.5109 232.034 63.7134C232.649 62.9045 233.384 62.2778 234.239 61.8335C235.105 61.3892 236.062 61.167 237.11 61.167C238.021 61.167 238.847 61.298 239.588 61.5601C240.34 61.8107 240.984 62.2209 241.519 62.7905C242.066 63.3488 242.487 64.0837 242.784 64.9951C243.08 65.9066 243.228 67.0117 243.228 68.3105V80H238.272V68.2764C238.272 67.4561 238.152 66.8123 237.913 66.3452C237.685 65.8667 237.349 65.5306 236.905 65.3369C236.472 65.1318 235.936 65.0293 235.298 65.0293C234.592 65.0293 233.988 65.1603 233.487 65.4224C232.997 65.6844 232.604 66.049 232.308 66.5161C232.011 66.9718 231.795 67.5073 231.658 68.1226C231.521 68.7378 231.453 69.3986 231.453 70.105ZM255.481 80.3418C254.046 80.3418 252.758 80.1139 251.619 79.6582C250.48 79.1911 249.511 78.5474 248.714 77.7271C247.928 76.9067 247.324 75.9554 246.902 74.873C246.481 73.7793 246.27 72.6172 246.27 71.3867V70.7031C246.27 69.3018 246.469 68.02 246.868 66.8579C247.267 65.6958 247.837 64.6875 248.577 63.833C249.329 62.9785 250.241 62.3234 251.312 61.8677C252.382 61.4006 253.59 61.167 254.935 61.167C256.245 61.167 257.407 61.3835 258.421 61.8164C259.435 62.2493 260.284 62.8646 260.967 63.6621C261.662 64.4596 262.186 65.4167 262.54 66.5332C262.893 67.6383 263.069 68.8688 263.069 70.2246V72.2754H248.372V68.9941H258.233V68.6182C258.233 67.9346 258.108 67.325 257.857 66.7896C257.618 66.2427 257.253 65.8097 256.763 65.4907C256.273 65.1717 255.647 65.0122 254.883 65.0122C254.234 65.0122 253.676 65.1546 253.208 65.4395C252.741 65.7243 252.36 66.123 252.063 66.6357C251.779 67.1484 251.562 67.7523 251.414 68.4473C251.277 69.1309 251.209 69.8828 251.209 70.7031V71.3867C251.209 72.1273 251.312 72.8109 251.517 73.4375C251.733 74.0641 252.035 74.6053 252.422 75.061C252.821 75.5168 253.3 75.87 253.858 76.1206C254.428 76.3713 255.071 76.4966 255.789 76.4966C256.678 76.4966 257.504 76.3257 258.267 75.9839C259.042 75.6307 259.708 75.1009 260.267 74.3945L262.659 76.9922C262.272 77.5505 261.742 78.0859 261.07 78.5986C260.409 79.1113 259.611 79.5329 258.677 79.8633C257.743 80.1823 256.678 80.3418 255.481 80.3418ZM270.794 65.542V80H265.872V61.5088H270.503L270.794 65.542ZM276.365 61.3892L276.28 65.9521C276.041 65.918 275.75 65.8895 275.408 65.8667C275.078 65.8325 274.776 65.8154 274.502 65.8154C273.807 65.8154 273.204 65.9066 272.691 66.0889C272.19 66.2598 271.768 66.5161 271.426 66.8579C271.096 67.1997 270.845 67.6156 270.674 68.1055C270.515 68.5954 270.424 69.1536 270.401 69.7803L269.41 69.4727C269.41 68.2764 269.529 67.1769 269.769 66.1743C270.008 65.1603 270.355 64.2773 270.811 63.5254C271.278 62.7734 271.848 62.1924 272.52 61.7822C273.192 61.3721 273.961 61.167 274.827 61.167C275.101 61.167 275.38 61.1898 275.665 61.2354C275.949 61.2695 276.183 61.3208 276.365 61.3892ZM291.131 55.1172L296.326 66.4648L301.521 55.1172H307.11L298.924 70.9424V80H293.729V70.9424L285.525 55.1172H291.131ZM317.894 75.8301V67.5928C317.894 67.0003 317.797 66.4933 317.603 66.0718C317.409 65.6388 317.107 65.3027 316.697 65.0635C316.299 64.8242 315.78 64.7046 315.142 64.7046C314.595 64.7046 314.122 64.8014 313.724 64.9951C313.325 65.1774 313.017 65.4451 312.801 65.7983C312.584 66.1401 312.476 66.5446 312.476 67.0117H307.554C307.554 66.2256 307.736 65.4793 308.101 64.7729C308.466 64.0666 308.995 63.4456 309.69 62.9102C310.385 62.3633 311.211 61.936 312.168 61.6284C313.137 61.3208 314.219 61.167 315.416 61.167C316.851 61.167 318.127 61.4062 319.244 61.8848C320.36 62.3633 321.237 63.0811 321.875 64.0381C322.525 64.9951 322.85 66.1914 322.85 67.627V75.5396C322.85 76.5535 322.912 77.3853 323.038 78.0347C323.163 78.6727 323.345 79.231 323.584 79.7095V80H318.611C318.372 79.4987 318.19 78.8721 318.064 78.1201C317.951 77.3568 317.894 76.5934 317.894 75.8301ZM318.543 68.7378L318.577 71.5234H315.826C315.176 71.5234 314.612 71.5975 314.134 71.7456C313.655 71.8937 313.262 72.1045 312.955 72.3779C312.647 72.64 312.419 72.9476 312.271 73.3008C312.134 73.654 312.066 74.0413 312.066 74.4629C312.066 74.8844 312.163 75.2661 312.356 75.6079C312.55 75.9383 312.829 76.2004 313.194 76.394C313.558 76.5763 313.986 76.6675 314.476 76.6675C315.216 76.6675 315.86 76.5194 316.407 76.2231C316.954 75.9269 317.375 75.5623 317.671 75.1294C317.979 74.6965 318.139 74.2863 318.15 73.8989L319.449 75.9839C319.266 76.451 319.016 76.9352 318.697 77.4365C318.389 77.9378 317.996 78.4106 317.518 78.855C317.039 79.2879 316.464 79.6468 315.792 79.9316C315.119 80.2051 314.322 80.3418 313.399 80.3418C312.225 80.3418 311.16 80.1082 310.203 79.6411C309.257 79.1626 308.506 78.5075 307.947 77.6758C307.4 76.8327 307.127 75.8757 307.127 74.8047C307.127 73.8363 307.309 72.9761 307.674 72.2241C308.038 71.4722 308.574 70.8398 309.28 70.3271C309.998 69.8031 310.892 69.41 311.963 69.1479C313.034 68.8745 314.276 68.7378 315.689 68.7378H318.543ZM331.565 65.3369V80H326.626V61.5088H331.258L331.565 65.3369ZM330.882 70.105H329.515C329.515 68.8175 329.668 67.6326 329.976 66.5503C330.295 65.4565 330.757 64.5109 331.36 63.7134C331.976 62.9045 332.733 62.2778 333.633 61.8335C334.533 61.3892 335.576 61.167 336.761 61.167C337.581 61.167 338.333 61.2923 339.017 61.543C339.7 61.7822 340.287 62.1639 340.777 62.688C341.278 63.2007 341.666 63.8729 341.939 64.7046C342.212 65.5249 342.349 66.5104 342.349 67.6611V80H337.427V68.208C337.427 67.3649 337.313 66.7155 337.085 66.2598C336.858 65.804 336.533 65.485 336.111 65.3027C335.701 65.1204 335.206 65.0293 334.625 65.0293C333.986 65.0293 333.428 65.1603 332.95 65.4224C332.483 65.6844 332.095 66.049 331.788 66.5161C331.48 66.9718 331.252 67.5073 331.104 68.1226C330.956 68.7378 330.882 69.3986 330.882 70.105ZM341.888 69.541L340.127 69.7632C340.127 68.5555 340.276 67.4333 340.572 66.3965C340.879 65.3597 341.329 64.4482 341.922 63.6621C342.526 62.876 343.272 62.2664 344.161 61.8335C345.049 61.3892 346.075 61.167 347.237 61.167C348.125 61.167 348.934 61.298 349.664 61.5601C350.393 61.8107 351.014 62.2152 351.526 62.7734C352.05 63.3203 352.449 64.0381 352.723 64.9268C353.007 65.8154 353.15 66.9035 353.15 68.1909V80H348.211V68.1909C348.211 67.3364 348.097 66.687 347.869 66.2427C347.653 65.7869 347.334 65.4736 346.912 65.3027C346.502 65.1204 346.012 65.0293 345.442 65.0293C344.85 65.0293 344.332 65.1489 343.887 65.3882C343.443 65.616 343.073 65.9351 342.776 66.3452C342.48 66.7554 342.258 67.2339 342.11 67.7808C341.962 68.3162 341.888 68.903 341.888 69.541ZM361.883 65.3369V80H356.944V61.5088H361.575L361.883 65.3369ZM361.199 70.105H359.832C359.832 68.8175 359.986 67.6326 360.293 66.5503C360.612 65.4565 361.074 64.5109 361.678 63.7134C362.293 62.9045 363.051 62.2778 363.951 61.8335C364.851 61.3892 365.893 61.167 367.078 61.167C367.898 61.167 368.65 61.2923 369.334 61.543C370.018 61.7822 370.604 62.1639 371.094 62.688C371.596 63.2007 371.983 63.8729 372.256 64.7046C372.53 65.5249 372.667 66.5104 372.667 67.6611V80H367.745V68.208C367.745 67.3649 367.631 66.7155 367.403 66.2598C367.175 65.804 366.85 65.485 366.429 65.3027C366.019 65.1204 365.523 65.0293 364.942 65.0293C364.304 65.0293 363.746 65.1603 363.267 65.4224C362.8 65.6844 362.413 66.049 362.105 66.5161C361.797 66.9718 361.569 67.5073 361.421 68.1226C361.273 68.7378 361.199 69.3986 361.199 70.105ZM372.205 69.541L370.445 69.7632C370.445 68.5555 370.593 67.4333 370.889 66.3965C371.197 65.3597 371.647 64.4482 372.239 63.6621C372.843 62.876 373.589 62.2664 374.478 61.8335C375.367 61.3892 376.392 61.167 377.554 61.167C378.443 61.167 379.252 61.298 379.981 61.5601C380.71 61.8107 381.331 62.2152 381.844 62.7734C382.368 63.3203 382.767 64.0381 383.04 64.9268C383.325 65.8154 383.467 66.9035 383.467 68.1909V80H378.528V68.1909C378.528 67.3364 378.414 66.687 378.187 66.2427C377.97 65.7869 377.651 65.4736 377.229 65.3027C376.819 65.1204 376.329 65.0293 375.76 65.0293C375.167 65.0293 374.649 65.1489 374.205 65.3882C373.76 65.616 373.39 65.9351 373.094 66.3452C372.798 66.7554 372.575 67.2339 372.427 67.7808C372.279 68.3162 372.205 68.903 372.205 69.541ZM392.474 61.5088V80H387.535V61.5088H392.474ZM387.227 56.6895C387.227 55.9717 387.478 55.3792 387.979 54.9121C388.48 54.445 389.153 54.2114 389.996 54.2114C390.827 54.2114 391.494 54.445 391.995 54.9121C392.508 55.3792 392.764 55.9717 392.764 56.6895C392.764 57.4072 392.508 57.9997 391.995 58.4668C391.494 58.9339 390.827 59.1675 389.996 59.1675C389.153 59.1675 388.48 58.9339 387.979 58.4668C387.478 57.9997 387.227 57.4072 387.227 56.6895ZM401.36 65.4565V80H396.438V61.5088H401.053L401.36 65.4565ZM400.643 70.105H399.31C399.31 68.7378 399.486 67.5073 399.839 66.4136C400.193 65.3084 400.688 64.3685 401.326 63.5938C401.964 62.8076 402.722 62.2095 403.599 61.7993C404.488 61.3778 405.479 61.167 406.573 61.167C407.439 61.167 408.23 61.2923 408.948 61.543C409.666 61.7936 410.281 62.1924 410.794 62.7393C411.318 63.2861 411.717 64.0096 411.99 64.9097C412.275 65.8097 412.417 66.9092 412.417 68.208V80H407.461V68.1909C407.461 67.3706 407.347 66.7326 407.12 66.2769C406.892 65.8211 406.556 65.5021 406.111 65.3198C405.678 65.1261 405.143 65.0293 404.505 65.0293C403.844 65.0293 403.269 65.1603 402.779 65.4224C402.3 65.6844 401.902 66.049 401.583 66.5161C401.275 66.9718 401.041 67.5073 400.882 68.1226C400.722 68.7378 400.643 69.3986 400.643 70.105ZM424.671 80.3418C423.235 80.3418 421.948 80.1139 420.809 79.6582C419.669 79.1911 418.701 78.5474 417.903 77.7271C417.117 76.9067 416.513 75.9554 416.092 74.873C415.67 73.7793 415.459 72.6172 415.459 71.3867V70.7031C415.459 69.3018 415.659 68.02 416.058 66.8579C416.456 65.6958 417.026 64.6875 417.767 63.833C418.519 62.9785 419.43 62.3234 420.501 61.8677C421.572 61.4006 422.78 61.167 424.124 61.167C425.434 61.167 426.596 61.3835 427.61 61.8164C428.624 62.2493 429.473 62.8646 430.157 63.6621C430.852 64.4596 431.376 65.4167 431.729 66.5332C432.082 67.6383 432.259 68.8688 432.259 70.2246V72.2754H417.562V68.9941H427.422V68.6182C427.422 67.9346 427.297 67.325 427.046 66.7896C426.807 66.2427 426.443 65.8097 425.953 65.4907C425.463 65.1717 424.836 65.0122 424.073 65.0122C423.423 65.0122 422.865 65.1546 422.398 65.4395C421.931 65.7243 421.549 66.123 421.253 66.6357C420.968 67.1484 420.752 67.7523 420.604 68.4473C420.467 69.1309 420.398 69.8828 420.398 70.7031V71.3867C420.398 72.1273 420.501 72.8109 420.706 73.4375C420.923 74.0641 421.224 74.6053 421.612 75.061C422.011 75.5168 422.489 75.87 423.047 76.1206C423.617 76.3713 424.261 76.4966 424.979 76.4966C425.867 76.4966 426.693 76.3257 427.457 75.9839C428.231 75.6307 428.898 75.1009 429.456 74.3945L431.849 76.9922C431.461 77.5505 430.931 78.0859 430.259 78.5986C429.598 79.1113 428.801 79.5329 427.867 79.8633C426.932 80.1823 425.867 80.3418 424.671 80.3418Z" fill="#888888"/>
<rect x="92" y="181" width="1179" height="80" rx="13.3333" fill="#CCCCCC"/>
<rect x="107" y="196.333" width="208" height="49.3333" rx="4.66667" fill="#888888" stroke="#888888" stroke-width="4"/>
<path d="M171.823 213.167H177.792C178.958 213.167 179.972 213.34 180.833 213.687C181.694 214.035 182.358 214.549 182.823 215.229C183.295 215.91 183.531 216.75 183.531 217.75C183.531 218.618 183.396 219.344 183.125 219.927C182.854 220.51 182.476 220.993 181.99 221.375C181.51 221.75 180.951 222.059 180.312 222.302L179.115 222.979H174.104L174.083 220.156H177.792C178.257 220.156 178.642 220.073 178.948 219.906C179.253 219.74 179.483 219.503 179.635 219.198C179.795 218.885 179.875 218.514 179.875 218.083C179.875 217.646 179.795 217.271 179.635 216.958C179.476 216.646 179.24 216.406 178.927 216.24C178.622 216.073 178.243 215.99 177.792 215.99H175.479V228.333H171.823V213.167ZM180.125 228.333L176.771 221.625L180.646 221.604L184.042 228.177V228.333H180.125ZM191.031 228.542C190.115 228.542 189.295 228.399 188.573 228.115C187.851 227.823 187.24 227.424 186.74 226.917C186.247 226.41 185.868 225.826 185.604 225.167C185.347 224.507 185.219 223.809 185.219 223.073V222.677C185.219 221.851 185.333 221.087 185.562 220.385C185.792 219.677 186.132 219.059 186.583 218.531C187.035 218.003 187.601 217.594 188.281 217.302C188.962 217.003 189.753 216.854 190.656 216.854C191.455 216.854 192.17 216.983 192.802 217.24C193.434 217.497 193.969 217.865 194.406 218.344C194.851 218.823 195.187 219.403 195.417 220.083C195.653 220.764 195.771 221.528 195.771 222.375V223.802H186.562V221.604H192.344V221.333C192.351 220.958 192.285 220.639 192.146 220.375C192.014 220.111 191.819 219.91 191.562 219.771C191.306 219.632 190.993 219.562 190.625 219.562C190.243 219.562 189.927 219.646 189.677 219.812C189.434 219.979 189.243 220.208 189.104 220.5C188.972 220.785 188.878 221.115 188.823 221.49C188.767 221.865 188.74 222.26 188.74 222.677V223.073C188.74 223.49 188.795 223.868 188.906 224.208C189.024 224.549 189.191 224.84 189.406 225.083C189.628 225.319 189.892 225.503 190.198 225.635C190.51 225.767 190.865 225.833 191.26 225.833C191.74 225.833 192.212 225.743 192.677 225.562C193.142 225.382 193.542 225.083 193.875 224.667L195.469 226.562C195.24 226.889 194.913 227.205 194.49 227.51C194.073 227.816 193.573 228.066 192.99 228.26C192.406 228.448 191.753 228.542 191.031 228.542ZM203.052 225.5V220.854C203.052 220.535 203.007 220.26 202.917 220.031C202.826 219.802 202.684 219.625 202.49 219.5C202.295 219.368 202.035 219.302 201.708 219.302C201.444 219.302 201.219 219.347 201.031 219.437C200.844 219.528 200.701 219.663 200.604 219.844C200.507 220.024 200.458 220.253 200.458 220.531H196.948C196.948 220.01 197.062 219.528 197.292 219.083C197.528 218.632 197.861 218.24 198.292 217.906C198.729 217.573 199.25 217.316 199.854 217.135C200.465 216.948 201.146 216.854 201.896 216.854C202.792 216.854 203.59 217.003 204.292 217.302C205 217.601 205.559 218.049 205.969 218.646C206.378 219.236 206.583 219.979 206.583 220.875V225.49C206.583 226.226 206.625 226.785 206.708 227.167C206.792 227.542 206.91 227.872 207.062 228.156V228.333H203.542C203.375 227.986 203.25 227.562 203.167 227.062C203.09 226.556 203.052 226.035 203.052 225.5ZM203.479 221.448L203.5 223.323H201.948C201.622 223.323 201.344 223.368 201.115 223.458C200.892 223.549 200.712 223.674 200.573 223.833C200.441 223.986 200.344 224.16 200.281 224.354C200.226 224.549 200.198 224.753 200.198 224.969C200.198 225.177 200.247 225.365 200.344 225.531C200.448 225.691 200.587 225.816 200.76 225.906C200.934 225.997 201.128 226.042 201.344 226.042C201.733 226.042 202.062 225.969 202.333 225.823C202.611 225.67 202.823 225.486 202.969 225.271C203.115 225.056 203.187 224.854 203.187 224.667L203.958 226.104C203.819 226.382 203.66 226.663 203.479 226.948C203.306 227.233 203.087 227.497 202.823 227.74C202.566 227.976 202.25 228.17 201.875 228.323C201.5 228.469 201.045 228.542 200.51 228.542C199.816 228.542 199.177 228.399 198.594 228.115C198.017 227.83 197.556 227.434 197.208 226.927C196.861 226.413 196.687 225.823 196.687 225.156C196.687 224.573 196.792 224.052 197 223.594C197.215 223.135 197.538 222.747 197.969 222.427C198.399 222.108 198.948 221.865 199.615 221.698C200.281 221.531 201.066 221.448 201.969 221.448H203.479ZM213.292 225.833C213.618 225.833 213.896 225.774 214.125 225.656C214.361 225.531 214.538 225.358 214.656 225.135C214.781 224.906 214.84 224.632 214.833 224.312H218.135C218.142 225.16 217.934 225.903 217.51 226.542C217.094 227.174 216.524 227.667 215.802 228.021C215.087 228.368 214.278 228.542 213.375 228.542C212.493 228.542 211.722 228.399 211.062 228.115C210.403 227.823 209.851 227.42 209.406 226.906C208.969 226.385 208.639 225.778 208.417 225.083C208.201 224.389 208.094 223.635 208.094 222.823V222.583C208.094 221.771 208.201 221.017 208.417 220.323C208.639 219.622 208.969 219.014 209.406 218.5C209.851 217.979 210.399 217.576 211.052 217.292C211.712 217 212.479 216.854 213.354 216.854C214.292 216.854 215.118 217.031 215.833 217.385C216.556 217.74 217.122 218.253 217.531 218.927C217.941 219.601 218.142 220.417 218.135 221.375H214.833C214.84 221.035 214.788 220.729 214.677 220.458C214.566 220.187 214.392 219.972 214.156 219.812C213.927 219.646 213.632 219.562 213.271 219.562C212.91 219.562 212.618 219.642 212.396 219.802C212.174 219.962 212.003 220.184 211.885 220.469C211.774 220.747 211.698 221.066 211.656 221.427C211.622 221.788 211.604 222.174 211.604 222.583V222.823C211.604 223.24 211.622 223.632 211.656 224C211.698 224.361 211.778 224.681 211.896 224.958C212.014 225.229 212.184 225.444 212.406 225.604C212.628 225.757 212.924 225.833 213.292 225.833ZM225.573 217.062V219.5H218.781V217.062H225.573ZM220.208 214.26H223.719V224.656C223.719 224.955 223.753 225.187 223.823 225.354C223.892 225.514 224.01 225.628 224.177 225.698C224.351 225.76 224.58 225.792 224.865 225.792C225.066 225.792 225.233 225.788 225.365 225.781C225.497 225.767 225.622 225.75 225.74 225.729V228.24C225.441 228.337 225.128 228.41 224.802 228.458C224.476 228.514 224.128 228.542 223.76 228.542C223.01 228.542 222.368 228.424 221.833 228.187C221.306 227.951 220.903 227.58 220.625 227.073C220.347 226.566 220.208 225.906 220.208 225.094V214.26ZM233.167 223.573V213.167H236.812V223.573C236.812 224.587 236.58 225.465 236.115 226.208C235.656 226.951 235.031 227.528 234.24 227.937C233.455 228.34 232.573 228.542 231.594 228.542C230.58 228.542 229.677 228.372 228.885 228.031C228.101 227.691 227.483 227.167 227.031 226.458C226.587 225.75 226.365 224.847 226.365 223.75H230.031C230.031 224.264 230.09 224.667 230.208 224.958C230.326 225.243 230.5 225.444 230.729 225.562C230.965 225.674 231.253 225.729 231.594 225.729C231.927 225.729 232.208 225.646 232.437 225.479C232.674 225.306 232.854 225.059 232.979 224.74C233.104 224.413 233.167 224.024 233.167 223.573ZM246.948 224.302C246.948 224.066 246.913 223.854 246.844 223.667C246.774 223.472 246.646 223.292 246.458 223.125C246.271 222.958 246 222.792 245.646 222.625C245.299 222.451 244.84 222.271 244.271 222.083C243.604 221.861 242.962 221.611 242.344 221.333C241.726 221.049 241.174 220.719 240.687 220.344C240.201 219.962 239.816 219.517 239.531 219.01C239.247 218.497 239.104 217.899 239.104 217.219C239.104 216.566 239.25 215.979 239.542 215.458C239.833 214.931 240.24 214.483 240.76 214.115C241.288 213.74 241.906 213.455 242.615 213.26C243.323 213.059 244.097 212.958 244.937 212.958C246.049 212.958 247.028 213.153 247.875 213.542C248.729 213.924 249.396 214.469 249.875 215.177C250.361 215.878 250.604 216.708 250.604 217.667H246.969C246.969 217.285 246.889 216.948 246.729 216.656C246.576 216.365 246.344 216.135 246.031 215.969C245.719 215.802 245.326 215.719 244.854 215.719C244.396 215.719 244.01 215.788 243.698 215.927C243.385 216.066 243.149 216.253 242.99 216.49C242.83 216.719 242.75 216.972 242.75 217.25C242.75 217.479 242.812 217.687 242.937 217.875C243.069 218.056 243.253 218.226 243.49 218.385C243.733 218.545 244.024 218.698 244.365 218.844C244.712 218.99 245.101 219.132 245.531 219.271C246.337 219.528 247.052 219.816 247.677 220.135C248.309 220.448 248.84 220.806 249.271 221.208C249.708 221.604 250.038 222.056 250.26 222.562C250.49 223.069 250.604 223.642 250.604 224.281C250.604 224.962 250.472 225.566 250.208 226.094C249.944 226.622 249.566 227.069 249.073 227.437C248.58 227.799 247.99 228.073 247.302 228.26C246.615 228.448 245.847 228.542 245 228.542C244.222 228.542 243.455 228.444 242.698 228.25C241.948 228.049 241.267 227.743 240.656 227.333C240.045 226.917 239.556 226.385 239.187 225.74C238.826 225.087 238.646 224.312 238.646 223.417H242.312C242.312 223.861 242.372 224.236 242.49 224.542C242.608 224.847 242.781 225.094 243.01 225.281C243.24 225.462 243.521 225.594 243.854 225.677C244.187 225.753 244.569 225.792 245 225.792C245.465 225.792 245.84 225.726 246.125 225.594C246.41 225.455 246.618 225.274 246.75 225.052C246.882 224.823 246.948 224.573 246.948 224.302Z" fill="white"/>
<rect x="339" y="196.333" width="208" height="49.3333" rx="4.66667" fill="#888888" stroke="#888888" stroke-width="4"/>
<path d="M419.073 225.521V228.333H411.406V225.521H419.073ZM412.708 213.167V228.333H409.052V213.167H412.708ZM426.302 225.5V220.854C426.302 220.535 426.257 220.26 426.167 220.031C426.076 219.802 425.934 219.625 425.74 219.5C425.545 219.368 425.285 219.302 424.958 219.302C424.694 219.302 424.469 219.347 424.281 219.437C424.094 219.528 423.951 219.663 423.854 219.844C423.757 220.024 423.708 220.253 423.708 220.531H420.198C420.198 220.01 420.312 219.528 420.542 219.083C420.778 218.632 421.111 218.24 421.542 217.906C421.979 217.573 422.5 217.316 423.104 217.135C423.715 216.948 424.396 216.854 425.146 216.854C426.042 216.854 426.84 217.003 427.542 217.302C428.25 217.601 428.809 218.049 429.219 218.646C429.628 219.236 429.833 219.979 429.833 220.875V225.49C429.833 226.226 429.875 226.785 429.958 227.167C430.042 227.542 430.16 227.872 430.312 228.156V228.333H426.792C426.625 227.986 426.5 227.562 426.417 227.062C426.34 226.556 426.302 226.035 426.302 225.5ZM426.729 221.448L426.75 223.323H425.198C424.872 223.323 424.594 223.368 424.365 223.458C424.142 223.549 423.962 223.674 423.823 223.833C423.691 223.986 423.594 224.16 423.531 224.354C423.476 224.549 423.448 224.753 423.448 224.969C423.448 225.177 423.497 225.365 423.594 225.531C423.698 225.691 423.837 225.816 424.01 225.906C424.184 225.997 424.378 226.042 424.594 226.042C424.983 226.042 425.312 225.969 425.583 225.823C425.861 225.67 426.073 225.486 426.219 225.271C426.365 225.056 426.437 224.854 426.437 224.667L427.208 226.104C427.069 226.382 426.91 226.663 426.729 226.948C426.556 227.233 426.337 227.497 426.073 227.74C425.816 227.976 425.5 228.17 425.125 228.323C424.75 228.469 424.295 228.542 423.76 228.542C423.066 228.542 422.427 228.399 421.844 228.115C421.267 227.83 420.806 227.434 420.458 226.927C420.111 226.413 419.937 225.823 419.937 225.156C419.937 224.573 420.042 224.052 420.25 223.594C420.465 223.135 420.788 222.747 421.219 222.427C421.649 222.108 422.198 221.865 422.865 221.698C423.531 221.531 424.316 221.448 425.219 221.448H426.729ZM435.323 219.854V228.333H431.812V217.062H435.094L435.323 219.854ZM438.656 216.979L438.594 220.24C438.455 220.226 438.267 220.208 438.031 220.187C437.795 220.167 437.597 220.156 437.437 220.156C437.028 220.156 436.674 220.205 436.375 220.302C436.083 220.392 435.84 220.531 435.646 220.719C435.458 220.899 435.319 221.128 435.229 221.406C435.146 221.684 435.108 222.007 435.115 222.375L434.479 221.958C434.479 221.201 434.552 220.514 434.698 219.896C434.851 219.271 435.066 218.733 435.344 218.281C435.622 217.823 435.958 217.472 436.354 217.229C436.75 216.979 437.194 216.854 437.687 216.854C437.861 216.854 438.031 216.865 438.198 216.885C438.372 216.906 438.524 216.937 438.656 216.979ZM445.406 225.5V220.854C445.406 220.535 445.361 220.26 445.271 220.031C445.181 219.802 445.038 219.625 444.844 219.5C444.649 219.368 444.389 219.302 444.063 219.302C443.799 219.302 443.573 219.347 443.385 219.437C443.198 219.528 443.056 219.663 442.958 219.844C442.861 220.024 442.813 220.253 442.813 220.531H439.302C439.302 220.01 439.417 219.528 439.646 219.083C439.882 218.632 440.215 218.24 440.646 217.906C441.083 217.573 441.604 217.316 442.208 217.135C442.819 216.948 443.5 216.854 444.25 216.854C445.146 216.854 445.944 217.003 446.646 217.302C447.354 217.601 447.913 218.049 448.323 218.646C448.733 219.236 448.938 219.979 448.938 220.875V225.49C448.938 226.226 448.979 226.785 449.063 227.167C449.146 227.542 449.264 227.872 449.417 228.156V228.333H445.896C445.729 227.986 445.604 227.562 445.521 227.062C445.444 226.556 445.406 226.035 445.406 225.5ZM445.833 221.448L445.854 223.323H444.302C443.976 223.323 443.698 223.368 443.469 223.458C443.247 223.549 443.066 223.674 442.927 223.833C442.795 223.986 442.698 224.16 442.635 224.354C442.58 224.549 442.552 224.753 442.552 224.969C442.552 225.177 442.601 225.365 442.698 225.531C442.802 225.691 442.941 225.816 443.115 225.906C443.288 225.997 443.483 226.042 443.698 226.042C444.087 226.042 444.417 225.969 444.688 225.823C444.965 225.67 445.177 225.486 445.323 225.271C445.469 225.056 445.542 224.854 445.542 224.667L446.313 226.104C446.174 226.382 446.014 226.663 445.833 226.948C445.66 227.233 445.441 227.497 445.177 227.74C444.92 227.976 444.604 228.17 444.229 228.323C443.854 228.469 443.399 228.542 442.865 228.542C442.17 228.542 441.531 228.399 440.948 228.115C440.372 227.83 439.91 227.434 439.563 226.927C439.215 226.413 439.042 225.823 439.042 225.156C439.042 224.573 439.146 224.052 439.354 223.594C439.569 223.135 439.892 222.747 440.323 222.427C440.753 222.108 441.302 221.865 441.969 221.698C442.635 221.531 443.42 221.448 444.323 221.448H445.833ZM454.781 225.927L457 217.062H460.698L457.01 228.333H454.823L454.781 225.927ZM453.469 217.062L455.656 225.927L455.635 228.333H453.437L449.76 217.062H453.469ZM467.052 228.542C466.135 228.542 465.316 228.399 464.594 228.115C463.872 227.823 463.26 227.424 462.76 226.917C462.267 226.41 461.889 225.826 461.625 225.167C461.368 224.507 461.24 223.809 461.24 223.073V222.677C461.24 221.851 461.354 221.087 461.583 220.385C461.812 219.677 462.153 219.059 462.604 218.531C463.056 218.003 463.622 217.594 464.302 217.302C464.983 217.003 465.774 216.854 466.677 216.854C467.476 216.854 468.191 216.983 468.823 217.24C469.455 217.497 469.99 217.865 470.427 218.344C470.872 218.823 471.208 219.403 471.437 220.083C471.674 220.764 471.792 221.528 471.792 222.375V223.802H462.583V221.604H468.365V221.333C468.372 220.958 468.306 220.639 468.167 220.375C468.035 220.111 467.84 219.91 467.583 219.771C467.326 219.632 467.014 219.562 466.646 219.562C466.264 219.562 465.948 219.646 465.698 219.812C465.455 219.979 465.264 220.208 465.125 220.5C464.993 220.785 464.899 221.115 464.844 221.49C464.788 221.865 464.76 222.26 464.76 222.677V223.073C464.76 223.49 464.816 223.868 464.927 224.208C465.045 224.549 465.212 224.84 465.427 225.083C465.649 225.319 465.913 225.503 466.219 225.635C466.531 225.767 466.885 225.833 467.281 225.833C467.76 225.833 468.233 225.743 468.698 225.562C469.163 225.382 469.562 225.083 469.896 224.667L471.49 226.562C471.26 226.889 470.934 227.205 470.51 227.51C470.094 227.816 469.594 228.066 469.01 228.26C468.427 228.448 467.774 228.542 467.052 228.542ZM476.927 212.333V228.333H473.406V212.333H476.927Z" fill="white"/>
<rect x="571" y="196.333" width="208" height="49.3333" rx="4.66667" fill="#888888" stroke="#888888" stroke-width="4"/>
<path d="M643.26 213.167H646.24L649.625 223.719L653.01 213.167H655.99L650.833 228.333H648.417L643.26 213.167ZM641.448 213.167H644.531L645.104 224.792V228.333H641.448V213.167ZM654.719 213.167H657.812V228.333H654.146V224.792L654.719 213.167ZM663.448 227.01L666.365 217.062H670.135L665.604 230.01C665.507 230.295 665.378 230.601 665.219 230.927C665.059 231.26 664.84 231.576 664.563 231.875C664.285 232.174 663.927 232.417 663.49 232.604C663.059 232.792 662.524 232.885 661.885 232.885C661.545 232.885 661.295 232.868 661.135 232.833C660.983 232.806 660.747 232.753 660.427 232.677V230.167C660.517 230.167 660.594 230.167 660.656 230.167C660.726 230.167 660.802 230.167 660.885 230.167C661.26 230.167 661.559 230.128 661.781 230.052C662.01 229.976 662.184 229.865 662.302 229.719C662.427 229.573 662.524 229.396 662.594 229.187L663.448 227.01ZM662.708 217.062L664.927 224.948L665.313 228.667H662.958L658.948 217.062H662.708ZM679.031 224.302C679.031 224.066 678.997 223.854 678.927 223.667C678.858 223.472 678.729 223.292 678.542 223.125C678.354 222.958 678.083 222.792 677.729 222.625C677.382 222.451 676.924 222.271 676.354 222.083C675.688 221.861 675.045 221.611 674.427 221.333C673.809 221.049 673.257 220.719 672.771 220.344C672.285 219.962 671.899 219.517 671.615 219.01C671.33 218.497 671.188 217.899 671.188 217.219C671.188 216.566 671.333 215.979 671.625 215.458C671.917 214.931 672.323 214.483 672.844 214.115C673.372 213.74 673.99 213.455 674.698 213.26C675.406 213.059 676.181 212.958 677.021 212.958C678.132 212.958 679.111 213.153 679.958 213.542C680.813 213.924 681.479 214.469 681.958 215.177C682.444 215.878 682.688 216.708 682.688 217.667H679.052C679.052 217.285 678.972 216.948 678.813 216.656C678.66 216.365 678.427 216.135 678.115 215.969C677.802 215.802 677.41 215.719 676.938 215.719C676.479 215.719 676.094 215.788 675.781 215.927C675.469 216.066 675.233 216.253 675.073 216.49C674.913 216.719 674.833 216.972 674.833 217.25C674.833 217.479 674.896 217.687 675.021 217.875C675.153 218.056 675.337 218.226 675.573 218.385C675.816 218.545 676.108 218.698 676.448 218.844C676.795 218.99 677.184 219.132 677.615 219.271C678.42 219.528 679.135 219.816 679.76 220.135C680.392 220.448 680.924 220.806 681.354 221.208C681.792 221.604 682.122 222.056 682.344 222.562C682.573 223.069 682.688 223.642 682.688 224.281C682.688 224.962 682.556 225.566 682.292 226.094C682.028 226.622 681.649 227.069 681.156 227.437C680.663 227.799 680.073 228.073 679.385 228.26C678.698 228.448 677.931 228.542 677.083 228.542C676.306 228.542 675.538 228.444 674.781 228.25C674.031 228.049 673.351 227.743 672.74 227.333C672.128 226.917 671.639 226.385 671.271 225.74C670.91 225.087 670.729 224.312 670.729 223.417H674.396C674.396 223.861 674.455 224.236 674.573 224.542C674.691 224.847 674.865 225.094 675.094 225.281C675.323 225.462 675.604 225.594 675.938 225.677C676.271 225.753 676.653 225.792 677.083 225.792C677.549 225.792 677.924 225.726 678.208 225.594C678.493 225.455 678.701 225.274 678.833 225.052C678.965 224.823 679.031 224.573 679.031 224.302ZM693.031 225.833L697.26 229.187L694.99 231.104L690.833 227.75L693.031 225.833ZM697.437 220.448V221.062C697.437 222.222 697.274 223.264 696.948 224.187C696.628 225.104 696.17 225.889 695.573 226.542C694.983 227.187 694.285 227.684 693.479 228.031C692.674 228.372 691.785 228.542 690.812 228.542C689.833 228.542 688.937 228.372 688.125 228.031C687.319 227.684 686.618 227.187 686.021 226.542C685.431 225.889 684.972 225.104 684.646 224.187C684.326 223.264 684.167 222.222 684.167 221.062V220.448C684.167 219.288 684.326 218.247 684.646 217.323C684.972 216.399 685.427 215.615 686.01 214.969C686.601 214.316 687.299 213.819 688.104 213.479C688.917 213.132 689.812 212.958 690.792 212.958C691.764 212.958 692.653 213.132 693.458 213.479C694.271 213.819 694.972 214.316 695.562 214.969C696.16 215.615 696.622 216.399 696.948 217.323C697.274 218.247 697.437 219.288 697.437 220.448ZM693.719 221.062V220.427C693.719 219.677 693.653 219.017 693.521 218.448C693.396 217.872 693.208 217.389 692.958 217C692.708 216.611 692.399 216.319 692.031 216.125C691.67 215.924 691.257 215.823 690.792 215.823C690.306 215.823 689.882 215.924 689.521 216.125C689.16 216.319 688.858 216.611 688.615 217C688.372 217.389 688.187 217.872 688.062 218.448C687.944 219.017 687.885 219.677 687.885 220.427V221.062C687.885 221.806 687.944 222.465 688.062 223.042C688.187 223.611 688.372 224.094 688.615 224.49C688.865 224.885 689.17 225.184 689.531 225.385C689.899 225.587 690.326 225.687 690.812 225.687C691.278 225.687 691.691 225.587 692.052 225.385C692.413 225.184 692.715 224.885 692.958 224.49C693.208 224.094 693.396 223.611 693.521 223.042C693.653 222.465 693.719 221.806 693.719 221.062ZM709.323 225.521V228.333H701.656V225.521H709.323ZM702.958 213.167V228.333H699.302V213.167H702.958Z" fill="white"/>
</svg>
